Mallanna.ufo
<glyph name="exclam" format="1">
  <advance width="227"/>
  <unicode hex="0021"/>
  <outline>
    <contour>
      <point x="95" y="630"/>
      <point x="84" y="618"/>
      <point x="84" y="604" type="curve"/>
      <point x="84" y="166" type="line"/>
      <point x="84" y="151"/>
      <point x="95" y="140"/>
      <point x="110" y="140" type="curve"/>
      <point x="124" y="140"/>
      <point x="136" y="151"/>
      <point x="136" y="166" type="curve"/>
      <point x="136" y="604" type="line"/>
      <point x="136" y="618"/>
      <point x="124" y="630"/>
      <point x="110" y="630" type="curve"/>
    </contour>
    <contour>
      <point x="95" y="73"/>
      <point x="84" y="61"/>
      <point x="84" y="47" type="curve"/>
      <point x="84" y="26" type="line"/>
      <point x="84" y="12"/>
      <point x="95" y="0"/>
      <point x="110" y="0" type="curve"/>
      <point x="124" y="0"/>
      <point x="136" y="12"/>
      <point x="136" y="26" type="curve"/>
      <point x="136" y="47" type="line"/>
      <point x="136" y="61"/>
      <point x="124" y="73"/>
      <point x="110" y="73" type="curve"/>
    </contour>
  </outline>
</glyph>
<glyph name="quotedbl" format="1">
  <advance width="344"/>
  <unicode hex="0022"/>
  <outline>
    <contour>
      <point x="269" y="536" type="line" name="hr00"/>
      <point x="294" y="836" type="line"/>
      <point x="225" y="836" type="line"/>
      <point x="225" y="536" type="line"/>
    </contour>
    <contour>
      <point x="107" y="536" type="line"/>
      <point x="132" y="836" type="line"/>
      <point x="62" y="836" type="line"/>
      <point x="62" y="536" type="line"/>
    </contour>
  </outline>
</glyph>
<glyph name="numbersign" format="1">
  <advance width="630"/>
  <unicode hex="0023"/>
  <outline>
    <contour>
      <point x="125" y="27" type="line"/>
      <point x="123" y="12"/>
      <point x="132" y="-4"/>
      <point x="149" y="-4" type="curve" smooth="yes"/>
      <point x="163" y="-4"/>
      <point x="174" y="6"/>
      <point x="176" y="19" type="curve" smooth="yes"/>
      <point x="201" y="165" type="line"/>
      <point x="380" y="165" type="line"/>
      <point x="356" y="27" type="line" smooth="yes"/>
      <point x="354" y="12"/>
      <point x="363" y="-4"/>
      <point x="380" y="-4" type="curve" smooth="yes"/>
      <point x="393" y="-4"/>
      <point x="404" y="5"/>
      <point x="406" y="19" type="curve" smooth="yes"/>
      <point x="431" y="165" type="line"/>
      <point x="531" y="165" type="line" smooth="yes"/>
      <point x="545" y="165"/>
      <point x="556" y="176"/>
      <point x="556" y="190" type="curve" smooth="yes"/>
      <point x="556" y="204"/>
      <point x="545" y="215"/>
      <point x="531" y="215" type="curve" smooth="yes"/>
      <point x="439" y="215" type="line"/>
      <point x="475" y="419" type="line"/>
      <point x="566" y="419" type="line" smooth="yes"/>
      <point x="581" y="419"/>
      <point x="591" y="430"/>
      <point x="591" y="445" type="curve" smooth="yes"/>
      <point x="591" y="458"/>
      <point x="581" y="469"/>
      <point x="566" y="469" type="curve" smooth="yes"/>
      <point x="483" y="469" type="line"/>
      <point x="507" y="603" type="line" smooth="yes"/>
      <point x="509" y="618"/>
      <point x="500" y="634"/>
      <point x="483" y="634" type="curve" smooth="yes"/>
      <point x="469" y="634"/>
      <point x="459" y="625"/>
      <point x="456" y="611" type="curve" smooth="yes"/>
      <point x="433" y="469" type="line"/>
      <point x="253" y="469" type="line"/>
      <point x="276" y="603" type="line" smooth="yes"/>
      <point x="278" y="618"/>
      <point x="270" y="634"/>
      <point x="252" y="634" type="curve" smooth="yes"/>
      <point x="239" y="634"/>
      <point x="228" y="625"/>
      <point x="226" y="611" type="curve" smooth="yes"/>
      <point x="202" y="469" type="line"/>
      <point x="102" y="469" type="line" smooth="yes"/>
      <point x="87" y="469"/>
      <point x="76" y="457"/>
      <point x="76" y="444" type="curve" smooth="yes"/>
      <point x="76" y="429"/>
      <point x="87" y="419"/>
      <point x="102" y="419" type="curve" smooth="yes"/>
      <point x="194" y="419" type="line"/>
      <point x="158" y="215" type="line"/>
      <point x="66" y="215" type="line" smooth="yes"/>
      <point x="52" y="215"/>
      <point x="41" y="203"/>
      <point x="41" y="189" type="curve" smooth="yes"/>
      <point x="41" y="176"/>
      <point x="52" y="165"/>
      <point x="66" y="165" type="curve" smooth="yes"/>
      <point x="149" y="165" type="line"/>
    </contour>
    <contour>
      <point x="209" y="215" type="line"/>
      <point x="244" y="419" type="line"/>
      <point x="424" y="419" type="line"/>
      <point x="388" y="215" type="line"/>
    </contour>
  </outline>
</glyph>
<glyph name="dollar" format="1">
  <advance width="569"/>
  <unicode hex="0024"/>
  <outline>
    <contour>
      <point x="266" y="630" type="line"/>
      <point x="157" y="626"/>
      <point x="77" y="557"/>
      <point x="77" y="465" type="curve" smooth="yes"/>
      <point x="77" y="374"/>
      <point x="134" y="324"/>
      <point x="269" y="294" type="curve"/>
      <point x="269" y="50" type="line"/>
      <point x="202" y="57"/>
      <point x="149" y="84"/>
      <point x="100" y="128" type="curve" smooth="yes"/>
      <point x="96" y="131"/>
      <point x="90" y="135"/>
      <point x="82" y="135" type="curve" smooth="yes"/>
      <point x="68" y="135"/>
      <point x="55" y="122"/>
      <point x="55" y="108" type="curve" smooth="yes"/>
      <point x="55" y="99"/>
      <point x="59" y="92"/>
      <point x="67" y="86" type="curve" smooth="yes"/>
      <point x="127" y="36"/>
      <point x="190" y="7"/>
      <point x="266" y="1" type="curve"/>
      <point x="266" y="-68" type="line" smooth="yes"/>
      <point x="266" y="-81"/>
      <point x="278" y="-92"/>
      <point x="291" y="-92" type="curve" smooth="yes"/>
      <point x="304" y="-92"/>
      <point x="315" y="-81"/>
      <point x="315" y="-68" type="curve" smooth="yes"/>
      <point x="315" y="0" type="line"/>
      <point x="428" y="5"/>
      <point x="508" y="72"/>
      <point x="508" y="168" type="curve" smooth="yes"/>
      <point x="508" y="257"/>
      <point x="450" y="309"/>
      <point x="313" y="338" type="curve"/>
      <point x="313" y="579" type="line"/>
      <point x="358" y="573"/>
      <point x="400" y="556"/>
      <point x="442" y="523" type="curve" smooth="yes"/>
      <point x="448" y="518"/>
      <point x="454" y="517"/>
      <point x="460" y="517" type="curve" smooth="yes"/>
      <point x="474" y="517"/>
      <point x="487" y="528"/>
      <point x="487" y="544" type="curve" smooth="yes"/>
      <point x="487" y="554"/>
      <point x="482" y="561"/>
      <point x="473" y="567" type="curve" smooth="yes"/>
      <point x="425" y="602"/>
      <point x="378" y="623"/>
      <point x="315" y="628" type="curve"/>
      <point x="315" y="662" type="line" smooth="yes"/>
      <point x="315" y="675"/>
      <point x="304" y="686"/>
      <point x="291" y="686" type="curve" smooth="yes"/>
      <point x="278" y="686"/>
      <point x="266" y="675"/>
      <point x="266" y="662" type="curve"/>
    </contour>
    <contour>
      <point x="453" y="99"/>
      <point x="399" y="50"/>
      <point x="313" y="48" type="curve"/>
      <point x="313" y="284" type="line"/>
      <point x="423" y="258"/>
      <point x="453" y="222"/>
      <point x="453" y="164" type="curve" smooth="yes"/>
    </contour>
    <contour>
      <point x="132" y="531"/>
      <point x="185" y="580"/>
      <point x="268" y="582" type="curve"/>
      <point x="268" y="349" type="line"/>
      <point x="159" y="376"/>
      <point x="132" y="412"/>
      <point x="132" y="470" type="curve" smooth="yes"/>
    </contour>
  </outline>
</glyph>
<glyph name="percent" format="1">
  <advance width="742"/>
  <unicode hex="0025"/>
  <outline>
    <contour>
      <point x="274" y="315"/>
      <point x="329" y="392"/>
      <point x="329" y="476" type="curve" smooth="yes"/>
      <point x="329" y="478" type="line" smooth="yes"/>
      <point x="329" y="562"/>
      <point x="275" y="637"/>
      <point x="191" y="637" type="curve" smooth="yes"/>
      <point x="106" y="637"/>
      <point x="50" y="562"/>
      <point x="50" y="476" type="curve" smooth="yes"/>
      <point x="50" y="474" type="line" smooth="yes"/>
      <point x="50" y="391"/>
      <point x="105" y="315"/>
      <point x="189" y="315" type="curve" smooth="yes"/>
    </contour>
    <contour>
      <point x="133" y="5"/>
      <point x="143" y="-4"/>
      <point x="156" y="-4" type="curve" smooth="yes"/>
      <point x="163" y="-4"/>
      <point x="170" y="0"/>
      <point x="175" y="7" type="curve" smooth="yes"/>
      <point x="609" y="599" type="line" smooth="yes"/>
      <point x="612" y="603"/>
      <point x="614" y="608"/>
      <point x="614" y="612" type="curve" smooth="yes"/>
      <point x="614" y="625"/>
      <point x="603" y="634"/>
      <point x="591" y="634" type="curve" smooth="yes"/>
      <point x="583" y="634"/>
      <point x="577" y="630"/>
      <point x="572" y="623" type="curve" smooth="yes"/>
      <point x="138" y="32" type="line" smooth="yes"/>
      <point x="134" y="27"/>
      <point x="133" y="23"/>
      <point x="133" y="18" type="curve" smooth="yes"/>
    </contour>
    <contour>
      <point x="642" y="-7"/>
      <point x="698" y="69"/>
      <point x="698" y="154" type="curve" smooth="yes"/>
      <point x="698" y="156" type="line" smooth="yes"/>
      <point x="698" y="239"/>
      <point x="643" y="315"/>
      <point x="559" y="315" type="curve" smooth="yes"/>
      <point x="474" y="315"/>
      <point x="418" y="239"/>
      <point x="418" y="154" type="curve" smooth="yes"/>
      <point x="418" y="152" type="line" smooth="yes"/>
      <point x="418" y="68"/>
      <point x="473" y="-7"/>
      <point x="557" y="-7" type="curve" smooth="yes"/>
    </contour>
    <contour>
      <point x="142" y="358"/>
      <point x="102" y="408"/>
      <point x="102" y="476" type="curve" smooth="yes"/>
      <point x="102" y="478" type="line" smooth="yes"/>
      <point x="102" y="541"/>
      <point x="138" y="594"/>
      <point x="189" y="594" type="curve" smooth="yes"/>
      <point x="238" y="594"/>
      <point x="278" y="544"/>
      <point x="278" y="476" type="curve" smooth="yes"/>
      <point x="278" y="474" type="line" smooth="yes"/>
      <point x="278" y="410"/>
      <point x="242" y="358"/>
      <point x="191" y="358" type="curve" smooth="yes"/>
    </contour>
    <contour>
      <point x="509" y="36"/>
      <point x="469" y="86"/>
      <point x="469" y="154" type="curve" smooth="yes"/>
      <point x="469" y="156" type="line" smooth="yes"/>
      <point x="469" y="219"/>
      <point x="505" y="272"/>
      <point x="556" y="272" type="curve" smooth="yes"/>
      <point x="605" y="272"/>
      <point x="645" y="221"/>
      <point x="645" y="154" type="curve" smooth="yes"/>
      <point x="645" y="152" type="line" smooth="yes"/>
      <point x="645" y="87"/>
      <point x="609" y="36"/>
      <point x="558" y="36" type="curve" smooth="yes"/>
    </contour>
  </outline>
</glyph>
<glyph name="ampersand" format="1">
  <advance width="626"/>
  <unicode hex="0026"/>
  <outline>
    <contour>
      <point x="162" y="630"/>
      <point x="93" y="562"/>
      <point x="93" y="475" type="curve" smooth="yes"/>
      <point x="93" y="438"/>
      <point x="106" y="403"/>
      <point x="131" y="376" type="curve"/>
      <point x="78" y="338"/>
      <point x="44" y="276"/>
      <point x="44" y="208" type="curve" smooth="yes"/>
      <point x="44" y="94"/>
      <point x="138" y="0"/>
      <point x="252" y="0" type="curve" smooth="yes"/>
      <point x="366" y="0"/>
      <point x="459" y="94"/>
      <point x="459" y="208" type="curve" smooth="yes"/>
      <point x="459" y="221"/>
      <point x="458" y="234"/>
      <point x="455" y="247" type="curve"/>
      <point x="483" y="259"/>
      <point x="511" y="282"/>
      <point x="511" y="325" type="curve" smooth="yes"/>
      <point x="511" y="337"/>
      <point x="510" y="349"/>
      <point x="508" y="364" type="curve"/>
      <point x="505" y="375"/>
      <point x="494" y="384"/>
      <point x="482" y="384" type="curve" smooth="yes"/>
      <point x="467" y="384"/>
      <point x="455" y="373"/>
      <point x="455" y="358" type="curve" smooth="yes"/>
      <point x="455" y="353"/>
      <point x="458" y="340"/>
      <point x="458" y="330" type="curve" smooth="yes"/>
      <point x="458" y="303"/>
      <point x="446" y="293"/>
      <point x="417" y="293" type="curve" smooth="yes"/>
      <point x="402" y="293"/>
      <point x="392" y="293"/>
      <point x="381" y="293" type="curve" smooth="yes"/>
      <point x="279" y="293"/>
      <point x="215" y="252"/>
      <point x="215" y="174" type="curve" smooth="yes"/>
      <point x="215" y="147"/>
      <point x="220" y="122"/>
      <point x="246" y="122" type="curve" smooth="yes"/>
      <point x="257" y="122"/>
      <point x="271" y="131"/>
      <point x="271" y="149" type="curve" smooth="yes"/>
      <point x="271" y="157"/>
      <point x="268" y="161"/>
      <point x="268" y="173" type="curve" smooth="yes"/>
      <point x="268" y="216"/>
      <point x="301" y="241"/>
      <point x="377" y="241" type="curve" smooth="yes"/>
      <point x="385" y="241"/>
      <point x="393" y="241"/>
      <point x="403" y="239" type="curve"/>
      <point x="405" y="230"/>
      <point x="407" y="219"/>
      <point x="407" y="208" type="curve" smooth="yes"/>
      <point x="407" y="122"/>
      <point x="338" y="52"/>
      <point x="252" y="52" type="curve" smooth="yes"/>
      <point x="167" y="52"/>
      <point x="96" y="122"/>
      <point x="96" y="208" type="curve" smooth="yes"/>
      <point x="96" y="268"/>
      <point x="131" y="320"/>
      <point x="181" y="346" type="curve" smooth="yes"/>
      <point x="186" y="347"/>
      <point x="200" y="356"/>
      <point x="200" y="372" type="curve" smooth="yes"/>
      <point x="200" y="381"/>
      <point x="195" y="388"/>
      <point x="189" y="393" type="curve" smooth="yes"/>
      <point x="163" y="411"/>
      <point x="146" y="442"/>
      <point x="146" y="475" type="curve" smooth="yes"/>
      <point x="146" y="533"/>
      <point x="192" y="578"/>
      <point x="248" y="578" type="curve" smooth="yes"/>
      <point x="303" y="578"/>
      <point x="349" y="533"/>
      <point x="349" y="475" type="curve" smooth="yes"/>
      <point x="349" y="462"/>
      <point x="361" y="450"/>
      <point x="375" y="450" type="curve" smooth="yes"/>
      <point x="390" y="450"/>
      <point x="401" y="462"/>
      <point x="401" y="475" type="curve" smooth="yes"/>
      <point x="401" y="562"/>
      <point x="332" y="630"/>
      <point x="248" y="630" type="curve" smooth="yes"/>
    </contour>
  </outline>
</glyph>
<glyph name="quotesingle" format="1">
  <advance width="207"/>
  <unicode hex="0027"/>
  <outline>
    <contour>
      <point x="63" y="411" type="line"/>
      <point x="61" y="397"/>
      <point x="68" y="392"/>
      <point x="78" y="392" type="curve" smooth="yes"/>
      <point x="87" y="392"/>
      <point x="92" y="397"/>
      <point x="96" y="410" type="curve" smooth="yes"/>
      <point x="149" y="593" type="line" smooth="yes"/>
      <point x="151" y="601"/>
      <point x="154" y="609"/>
      <point x="154" y="615" type="curve" smooth="yes"/>
      <point x="154" y="626"/>
      <point x="147" y="632"/>
      <point x="137" y="632" type="curve" smooth="yes"/>
      <point x="117" y="632" type="line" smooth="yes"/>
      <point x="101" y="632"/>
      <point x="91" y="623"/>
      <point x="88" y="605" type="curve" smooth="yes"/>
    </contour>
  </outline>
</glyph>
<glyph name="parenleft" format="1">
  <advance width="387"/>
  <unicode hex="0028"/>
  <outline>
    <contour>
      <point x="109" y="633"/>
      <point x="64" y="444"/>
      <point x="64" y="273" type="curve"/>
      <point x="64" y="39"/>
      <point x="139" y="-87"/>
      <point x="266" y="-87" type="curve"/>
      <point x="280" y="-87"/>
      <point x="295" y="-76"/>
      <point x="295" y="-57" type="curve"/>
      <point x="295" y="-41"/>
      <point x="283" y="-27"/>
      <point x="266" y="-27" type="curve"/>
      <point x="155" y="-26"/>
      <point x="123" y="131"/>
      <point x="124" y="273" type="curve"/>
      <point x="124" y="415"/>
      <point x="153" y="572"/>
      <point x="266" y="573" type="curve"/>
      <point x="283" y="573"/>
      <point x="295" y="587"/>
      <point x="295" y="603" type="curve"/>
      <point x="295" y="619"/>
      <point x="283" y="633"/>
      <point x="266" y="633" type="curve"/>
    </contour>
  </outline>
</glyph>
<glyph name="parenright" format="1">
  <advance width="387"/>
  <unicode hex="0029"/>
  <outline>
    <contour>
      <point x="77" y="633"/>
      <point x="64" y="619"/>
      <point x="64" y="603" type="curve"/>
      <point x="64" y="587"/>
      <point x="77" y="573"/>
      <point x="93" y="573" type="curve"/>
      <point x="206" y="572"/>
      <point x="235" y="415"/>
      <point x="235" y="273" type="curve"/>
      <point x="236" y="131"/>
      <point x="204" y="-26"/>
      <point x="93" y="-27" type="curve"/>
      <point x="77" y="-27"/>
      <point x="64" y="-41"/>
      <point x="64" y="-57" type="curve"/>
      <point x="64" y="-76"/>
      <point x="79" y="-87"/>
      <point x="94" y="-87" type="curve"/>
      <point x="221" y="-87"/>
      <point x="295" y="39"/>
      <point x="295" y="273" type="curve"/>
      <point x="295" y="444"/>
      <point x="250" y="633"/>
      <point x="93" y="633" type="curve"/>
    </contour>
  </outline>
</glyph>
<glyph name="asterisk" format="1">
  <advance width="387"/>
  <unicode hex="002A"/>
  <outline>
    <contour>
      <point x="176" y="381" type="line"/>
      <point x="175" y="368"/>
      <point x="184" y="358"/>
      <point x="195" y="358" type="curve" smooth="yes"/>
      <point x="207" y="358"/>
      <point x="216" y="368"/>
      <point x="215" y="381" type="curve" smooth="yes"/>
      <point x="208" y="476" type="line"/>
      <point x="287" y="421" type="line" smooth="yes"/>
      <point x="293" y="417"/>
      <point x="297" y="415"/>
      <point x="302" y="415" type="curve" smooth="yes"/>
      <point x="313" y="415"/>
      <point x="323" y="425"/>
      <point x="323" y="436" type="curve" smooth="yes"/>
      <point x="323" y="446"/>
      <point x="316" y="452"/>
      <point x="309" y="455" type="curve" smooth="yes"/>
      <point x="218" y="497" type="line"/>
      <point x="309" y="540" type="line" smooth="yes"/>
      <point x="316" y="543"/>
      <point x="323" y="548"/>
      <point x="323" y="558" type="curve" smooth="yes"/>
      <point x="323" y="570"/>
      <point x="314" y="579"/>
      <point x="303" y="579" type="curve" smooth="yes"/>
      <point x="297" y="579"/>
      <point x="293" y="577"/>
      <point x="287" y="573" type="curve" smooth="yes"/>
      <point x="208" y="518" type="line"/>
      <point x="215" y="614" type="line" smooth="yes"/>
      <point x="216" y="626"/>
      <point x="207" y="635"/>
      <point x="195" y="635" type="curve" smooth="yes"/>
      <point x="184" y="635"/>
      <point x="175" y="626"/>
      <point x="176" y="614" type="curve" smooth="yes"/>
      <point x="184" y="518" type="line"/>
      <point x="104" y="573" type="line" smooth="yes"/>
      <point x="98" y="577"/>
      <point x="95" y="579"/>
      <point x="88" y="579" type="curve" smooth="yes"/>
      <point x="77" y="578"/>
      <point x="68" y="570"/>
      <point x="68" y="558" type="curve" smooth="yes"/>
      <point x="68" y="550"/>
      <point x="75" y="544"/>
      <point x="82" y="540" type="curve" smooth="yes"/>
      <point x="173" y="497" type="line"/>
      <point x="82" y="455" type="line" smooth="yes"/>
      <point x="76" y="452"/>
      <point x="68" y="445"/>
      <point x="68" y="436" type="curve" smooth="yes"/>
      <point x="68" y="425"/>
      <point x="77" y="415"/>
      <point x="88" y="415" type="curve" smooth="yes"/>
      <point x="94" y="415"/>
      <point x="98" y="417"/>
      <point x="104" y="421" type="curve" smooth="yes"/>
      <point x="184" y="476" type="line"/>
    </contour>
  </outline>
</glyph>
<glyph name="plus" format="1">
  <advance width="558"/>
  <unicode hex="002B"/>
  <outline>
    <contour>
      <point x="265" y="540"/>
      <point x="250" y="526"/>
      <point x="250" y="508" type="curve" smooth="yes"/>
      <point x="250" y="348" type="line"/>
      <point x="91" y="348" type="line" smooth="yes"/>
      <point x="72" y="348"/>
      <point x="58" y="334"/>
      <point x="58" y="315" type="curve" smooth="yes"/>
      <point x="58" y="296"/>
      <point x="72" y="283"/>
      <point x="91" y="283" type="curve" smooth="yes"/>
      <point x="250" y="283" type="line"/>
      <point x="250" y="124" type="line"/>
      <point x="250" y="105"/>
      <point x="265" y="90"/>
      <point x="284" y="90" type="curve" smooth="yes"/>
      <point x="302" y="90"/>
      <point x="317" y="105"/>
      <point x="317" y="124" type="curve" smooth="yes"/>
      <point x="317" y="283" type="line"/>
      <point x="476" y="283" type="line" smooth="yes"/>
      <point x="494" y="283"/>
      <point x="509" y="296"/>
      <point x="509" y="315" type="curve" smooth="yes"/>
      <point x="509" y="334"/>
      <point x="494" y="348"/>
      <point x="476" y="348" type="curve" smooth="yes"/>
      <point x="317" y="348" type="line"/>
      <point x="317" y="508" type="line" smooth="yes"/>
      <point x="317" y="526"/>
      <point x="302" y="540"/>
      <point x="284" y="540" type="curve" smooth="yes"/>
    </contour>
  </outline>
</glyph>
<glyph name="comma" format="1">
  <advance width="207"/>
  <unicode hex="002C"/>
  <outline>
    <contour>
      <point x="49" y="-95"/>
      <point x="56" y="-100"/>
      <point x="64" y="-100" type="curve" smooth="yes"/>
      <point x="75" y="-100"/>
      <point x="99" y="-87"/>
      <point x="117" y="-69" type="curve" smooth="yes"/>
      <point x="135" y="-51"/>
      <point x="144" y="-23"/>
      <point x="144" y="30" type="curve" smooth="yes"/>
      <point x="144" y="50" type="line" smooth="yes"/>
      <point x="144" y="72"/>
      <point x="130" y="87"/>
      <point x="109" y="87" type="curve" smooth="yes"/>
      <point x="89" y="87"/>
      <point x="75" y="73"/>
      <point x="75" y="53" type="curve" smooth="yes"/>
      <point x="75" y="36" type="line" smooth="yes"/>
      <point x="75" y="16"/>
      <point x="87" y="5"/>
      <point x="103" y="0" type="curve"/>
      <point x="105" y="-32"/>
      <point x="92" y="-54"/>
      <point x="58" y="-71" type="curve" smooth="yes"/>
      <point x="52" y="-74"/>
      <point x="49" y="-79"/>
      <point x="49" y="-85" type="curve" smooth="yes"/>
    </contour>
  </outline>
</glyph>
<glyph name="hyphen" format="1">
  <advance width="367"/>
  <unicode hex="002D"/>
  <outline>
    <contour>
      <point x="82" y="329" type="line"/>
      <point x="69" y="329"/>
      <point x="59" y="320"/>
      <point x="59" y="308" type="curve"/>
      <point x="59" y="294"/>
      <point x="69" y="284"/>
      <point x="82" y="284" type="curve"/>
      <point x="270" y="284" type="line"/>
      <point x="283" y="284"/>
      <point x="293" y="294"/>
      <point x="293" y="308" type="curve"/>
      <point x="293" y="320"/>
      <point x="283" y="329"/>
      <point x="270" y="329" type="curve"/>
    </contour>
  </outline>
</glyph>
<glyph name="period" format="1">
  <advance width="207"/>
  <unicode hex="002E"/>
  <outline>
    <contour>
      <point x="74" y="21"/>
      <point x="95" y="-1"/>
      <point x="122" y="-1" type="curve" smooth="yes"/>
      <point x="149" y="-1"/>
      <point x="170" y="21"/>
      <point x="170" y="48" type="curve" smooth="yes"/>
      <point x="170" y="75"/>
      <point x="149" y="95"/>
      <point x="122" y="95" type="curve" smooth="yes"/>
      <point x="95" y="95"/>
      <point x="74" y="75"/>
      <point x="74" y="48" type="curve" smooth="yes"/>
    </contour>
  </outline>
</glyph>
<glyph name="slash" format="1">
  <advance width="380"/>
  <unicode hex="002F"/>
  <outline>
    <contour>
      <point x="86" y="1" type="line"/>
      <point x="72" y="7"/>
      <point x="66" y="23"/>
      <point x="71" y="36" type="curve"/>
      <point x="71" y="36" type="line"/>
      <point x="313" y="611" type="line"/>
      <point x="320" y="624"/>
      <point x="334" y="630"/>
      <point x="347" y="625" type="curve"/>
      <point x="347" y="625" type="line"/>
      <point x="361" y="619"/>
      <point x="367" y="604"/>
      <point x="361" y="590" type="curve"/>
      <point x="361" y="590" type="line"/>
      <point x="119" y="16" type="line"/>
      <point x="115" y="5"/>
      <point x="105" y="0"/>
      <point x="95" y="0" type="curve"/>
      <point x="95" y="0" type="line"/>
      <point x="92" y="0"/>
      <point x="88" y="0"/>
      <point x="86" y="1" type="curve"/>
      <point x="86" y="1" type="line"/>
    </contour>
  </outline>
</glyph>
<glyph name="zero" format="1">
  <advance width="639"/>
  <unicode hex="0030"/>
  <outline>
    <contour>
      <point x="138" y="630"/>
      <point x="59" y="467"/>
      <point x="59" y="315" type="curve"/>
      <point x="59" y="161"/>
      <point x="136" y="0"/>
      <point x="278" y="0" type="curve"/>
      <point x="416" y="0"/>
      <point x="498" y="164"/>
      <point x="498" y="315" type="curve"/>
      <point x="498" y="467"/>
      <point x="418" y="630"/>
      <point x="278" y="630" type="curve"/>
    </contour>
    <contour>
      <point x="368" y="578"/>
      <point x="446" y="466"/>
      <point x="446" y="315" type="curve"/>
      <point x="446" y="187"/>
      <point x="377" y="52"/>
      <point x="278" y="52" type="curve"/>
      <point x="175" y="52"/>
      <point x="111" y="189"/>
      <point x="111" y="315" type="curve"/>
      <point x="111" y="445"/>
      <point x="176" y="578"/>
      <point x="278" y="578" type="curve"/>
    </contour>
  </outline>
</glyph>
<glyph name="one" format="1">
  <advance width="302"/>
  <unicode hex="0031"/>
  <outline>
    <contour>
      <point x="173" y="627"/>
      <point x="168" y="626"/>
      <point x="164" y="625" type="curve" smooth="yes"/>
      <point x="44" y="552" type="line"/>
      <point x="36" y="547"/>
      <point x="32" y="539"/>
      <point x="32" y="530" type="curve" smooth="yes"/>
      <point x="32" y="517"/>
      <point x="41" y="503"/>
      <point x="58" y="503" type="curve" smooth="yes"/>
      <point x="62" y="503"/>
      <point x="67" y="505"/>
      <point x="70" y="508" type="curve" smooth="yes"/>
      <point x="151" y="555" type="line"/>
      <point x="151" y="26" type="line"/>
      <point x="151" y="12"/>
      <point x="163" y="0"/>
      <point x="177" y="0" type="curve" smooth="yes"/>
      <point x="192" y="0"/>
      <point x="203" y="12"/>
      <point x="203" y="26" type="curve"/>
      <point x="203" y="601" type="line"/>
      <point x="203" y="617"/>
      <point x="193" y="627"/>
      <point x="176" y="627" type="curve" smooth="yes"/>
    </contour>
  </outline>
</glyph>
<glyph name="two" format="1">
  <advance width="531"/>
  <unicode hex="0032"/>
  <outline>
    <contour>
      <point x="176" y="630"/>
      <point x="145" y="619"/>
      <point x="67" y="548" type="curve"/>
      <point x="61" y="544"/>
      <point x="59" y="536"/>
      <point x="59" y="530" type="curve" smooth="yes"/>
      <point x="59" y="515"/>
      <point x="69" y="503"/>
      <point x="85" y="503" type="curve" smooth="yes"/>
      <point x="91" y="503"/>
      <point x="97" y="505"/>
      <point x="103" y="510" type="curve" smooth="yes"/>
      <point x="167" y="568"/>
      <point x="188" y="578"/>
      <point x="238" y="578" type="curve" smooth="yes"/>
      <point x="325" y="578"/>
      <point x="392" y="507"/>
      <point x="392" y="423" type="curve" smooth="yes"/>
      <point x="392" y="380"/>
      <point x="374" y="338"/>
      <point x="341" y="308" type="curve" smooth="yes"/>
      <point x="50" y="46" type="line" smooth="yes"/>
      <point x="45" y="41"/>
      <point x="42" y="33"/>
      <point x="42" y="27" type="curve" smooth="yes"/>
      <point x="42" y="10"/>
      <point x="51" y="0"/>
      <point x="72" y="0" type="curve"/>
      <point x="419" y="0" type="line" smooth="yes"/>
      <point x="433" y="0"/>
      <point x="445" y="12"/>
      <point x="445" y="26" type="curve" smooth="yes"/>
      <point x="445" y="41"/>
      <point x="433" y="52"/>
      <point x="419" y="52" type="curve" smooth="yes"/>
      <point x="137" y="52" type="line"/>
      <point x="376" y="269" type="line" smooth="yes"/>
      <point x="421" y="311"/>
      <point x="445" y="367"/>
      <point x="445" y="423" type="curve" smooth="yes"/>
      <point x="445" y="536"/>
      <point x="354" y="630"/>
      <point x="238" y="630" type="curve" smooth="yes"/>
    </contour>
  </outline>
</glyph>
<glyph name="three" format="1">
  <advance width="549"/>
  <unicode hex="0033"/>
  <outline>
    <contour>
      <point x="124" y="630" type="line"/>
      <point x="110" y="630"/>
      <point x="98" y="618"/>
      <point x="98" y="604" type="curve" smooth="yes"/>
      <point x="98" y="589"/>
      <point x="110" y="577"/>
      <point x="124" y="577" type="curve"/>
      <point x="351" y="577" type="line"/>
      <point x="204" y="426" type="line"/>
      <point x="199" y="420"/>
      <point x="197" y="414"/>
      <point x="197" y="407" type="curve" smooth="yes"/>
      <point x="197" y="392"/>
      <point x="209" y="377"/>
      <point x="226" y="377" type="curve" smooth="yes"/>
      <point x="316" y="377"/>
      <point x="388" y="306"/>
      <point x="388" y="216" type="curve" smooth="yes"/>
      <point x="388" y="126"/>
      <point x="315" y="55"/>
      <point x="226" y="55" type="curve" smooth="yes"/>
      <point x="185" y="55"/>
      <point x="143" y="70"/>
      <point x="112" y="101" type="curve" smooth="yes"/>
      <point x="106" y="106"/>
      <point x="100" y="110"/>
      <point x="93" y="110" type="curve" smooth="yes"/>
      <point x="77" y="110"/>
      <point x="67" y="98"/>
      <point x="67" y="82" type="curve" smooth="yes"/>
      <point x="67" y="76"/>
      <point x="68" y="69"/>
      <point x="74" y="64" type="curve"/>
      <point x="116" y="19"/>
      <point x="173" y="0"/>
      <point x="226" y="0" type="curve" smooth="yes"/>
      <point x="345" y="0"/>
      <point x="441" y="96"/>
      <point x="441" y="216" type="curve" smooth="yes"/>
      <point x="441" y="320"/>
      <point x="370" y="402"/>
      <point x="277" y="424" type="curve"/>
      <point x="430" y="581" type="line" smooth="yes"/>
      <point x="437" y="587"/>
      <point x="441" y="593"/>
      <point x="441" y="604" type="curve"/>
      <point x="441" y="618"/>
      <point x="429" y="630"/>
      <point x="414" y="630" type="curve"/>
    </contour>
  </outline>
</glyph>
<glyph name="four" format="1">
  <advance width="598"/>
  <unicode hex="0034"/>
  <outline>
    <contour>
      <point x="426" y="630"/>
      <point x="419" y="626"/>
      <point x="412" y="618" type="curve" smooth="yes"/>
      <point x="52" y="170" type="line"/>
      <point x="48" y="166"/>
      <point x="46" y="159"/>
      <point x="46" y="153" type="curve" smooth="yes"/>
      <point x="46" y="137"/>
      <point x="57" y="128"/>
      <point x="72" y="128" type="curve" smooth="yes"/>
      <point x="407" y="128" type="line"/>
      <point x="407" y="26" type="line"/>
      <point x="407" y="12"/>
      <point x="419" y="0"/>
      <point x="432" y="0" type="curve" smooth="yes"/>
      <point x="447" y="0"/>
      <point x="459" y="12"/>
      <point x="459" y="26" type="curve" smooth="yes"/>
      <point x="459" y="128" type="line"/>
      <point x="496" y="128" type="line" smooth="yes"/>
      <point x="511" y="128"/>
      <point x="523" y="140"/>
      <point x="523" y="154" type="curve" smooth="yes"/>
      <point x="523" y="167"/>
      <point x="511" y="179"/>
      <point x="496" y="179" type="curve" smooth="yes"/>
      <point x="459" y="179" type="line"/>
      <point x="459" y="601" type="line"/>
      <point x="459" y="617"/>
      <point x="449" y="630"/>
      <point x="435" y="630" type="curve" smooth="yes"/>
    </contour>
    <contour>
      <point x="406" y="179" type="line"/>
      <point x="126" y="179" type="line"/>
      <point x="406" y="527" type="line"/>
    </contour>
  </outline>
</glyph>
<glyph name="five" format="1">
  <advance width="545"/>
  <unicode hex="0035"/>
  <outline>
    <contour>
      <point x="115" y="630" type="line" smooth="yes"/>
      <point x="104" y="630"/>
      <point x="88" y="621"/>
      <point x="88" y="605" type="curve"/>
      <point x="58" y="355" type="line" smooth="yes"/>
      <point x="58" y="350"/>
      <point x="57" y="346"/>
      <point x="57" y="345" type="curve" smooth="yes"/>
      <point x="57" y="333"/>
      <point x="67" y="321"/>
      <point x="84" y="321" type="curve" smooth="yes"/>
      <point x="91" y="321"/>
      <point x="97" y="323"/>
      <point x="103" y="329" type="curve" smooth="yes"/>
      <point x="135" y="361"/>
      <point x="176" y="376"/>
      <point x="218" y="376" type="curve" smooth="yes"/>
      <point x="308" y="376"/>
      <point x="378" y="305"/>
      <point x="378" y="215" type="curve" smooth="yes"/>
      <point x="378" y="126"/>
      <point x="307" y="53"/>
      <point x="217" y="53" type="curve" smooth="yes"/>
      <point x="176" y="53"/>
      <point x="135" y="69"/>
      <point x="103" y="100" type="curve" smooth="yes"/>
      <point x="97" y="105"/>
      <point x="91" y="109"/>
      <point x="84" y="109" type="curve" smooth="yes"/>
      <point x="75" y="109"/>
      <point x="66" y="103"/>
      <point x="62" y="95" type="curve" smooth="yes"/>
      <point x="59" y="90"/>
      <point x="58" y="83"/>
      <point x="59" y="77" type="curve" smooth="yes"/>
      <point x="66" y="65"/>
      <point x="76" y="57"/>
      <point x="88" y="53" type="curve" smooth="yes"/>
      <point x="123" y="18"/>
      <point x="170" y="0"/>
      <point x="217" y="0" type="curve" smooth="yes"/>
      <point x="337" y="0"/>
      <point x="432" y="95"/>
      <point x="432" y="215" type="curve" smooth="yes"/>
      <point x="432" y="335"/>
      <point x="338" y="429"/>
      <point x="218" y="429" type="curve" smooth="yes"/>
      <point x="183" y="429"/>
      <point x="148" y="421"/>
      <point x="118" y="404" type="curve"/>
      <point x="139" y="577" type="line"/>
      <point x="405" y="577" type="line" smooth="yes"/>
      <point x="419" y="577"/>
      <point x="432" y="588"/>
      <point x="432" y="603" type="curve" smooth="yes"/>
      <point x="432" y="618"/>
      <point x="419" y="630"/>
      <point x="405" y="630" type="curve" smooth="yes"/>
    </contour>
  </outline>
</glyph>
<glyph name="six" format="1">
  <advance width="578"/>
  <unicode hex="0036"/>
  <outline>
    <contour>
      <point x="145" y="622"/>
      <point x="59" y="432"/>
      <point x="58" y="243" type="curve" smooth="yes"/>
      <point x="58" y="138"/>
      <point x="104" y="0"/>
      <point x="269" y="0" type="curve" smooth="yes"/>
      <point x="385" y="0"/>
      <point x="479" y="94"/>
      <point x="479" y="210" type="curve" smooth="yes"/>
      <point x="479" y="325"/>
      <point x="385" y="419"/>
      <point x="269" y="419" type="curve" smooth="yes"/>
      <point x="212" y="419"/>
      <point x="159" y="394"/>
      <point x="123" y="356" type="curve"/>
      <point x="147" y="461"/>
      <point x="204" y="571"/>
      <point x="341" y="577" type="curve" smooth="yes"/>
      <point x="355" y="578"/>
      <point x="366" y="590"/>
      <point x="366" y="605" type="curve"/>
      <point x="365" y="618"/>
      <point x="354" y="630"/>
      <point x="339" y="629" type="curve" smooth="yes"/>
    </contour>
    <contour>
      <point x="356" y="366"/>
      <point x="428" y="295"/>
      <point x="428" y="210" type="curve" smooth="yes"/>
      <point x="428" y="123"/>
      <point x="356" y="52"/>
      <point x="268" y="52" type="curve" smooth="yes"/>
      <point x="149" y="52"/>
      <point x="112" y="164"/>
      <point x="112" y="210" type="curve"/>
      <point x="112" y="295"/>
      <point x="182" y="366"/>
      <point x="268" y="366" type="curve" smooth="yes"/>
    </contour>
  </outline>
</glyph>
<glyph name="seven" format="1">
  <advance width="528"/>
  <unicode hex="0037"/>
  <outline>
    <contour>
      <point x="84" y="627" type="line" smooth="yes"/>
      <point x="69" y="627"/>
      <point x="58" y="616"/>
      <point x="58" y="601" type="curve" smooth="yes"/>
      <point x="58" y="587"/>
      <point x="69" y="575"/>
      <point x="84" y="575" type="curve" smooth="yes"/>
      <point x="377" y="575" type="line"/>
      <point x="149" y="36" type="line"/>
      <point x="149" y="33"/>
      <point x="149" y="30"/>
      <point x="149" y="27" type="curve" smooth="yes"/>
      <point x="149" y="12"/>
      <point x="163" y="0"/>
      <point x="175" y="0" type="curve" smooth="yes"/>
      <point x="185" y="0"/>
      <point x="194" y="6"/>
      <point x="198" y="16" type="curve" smooth="yes"/>
      <point x="439" y="589" type="line"/>
      <point x="443" y="593"/>
      <point x="444" y="598"/>
      <point x="444" y="602" type="curve" smooth="yes"/>
      <point x="444" y="617"/>
      <point x="433" y="627"/>
      <point x="413" y="627" type="curve"/>
    </contour>
  </outline>
</glyph>
<glyph name="eight" format="1">
  <advance width="567"/>
  <unicode hex="0038"/>
  <outline>
    <contour>
      <point x="181" y="630"/>
      <point x="122" y="571"/>
      <point x="122" y="497" type="curve" smooth="yes"/>
      <point x="122" y="455"/>
      <point x="141" y="418"/>
      <point x="171" y="393" type="curve"/>
      <point x="100" y="362"/>
      <point x="50" y="289"/>
      <point x="50" y="206" type="curve" smooth="yes"/>
      <point x="50" y="92"/>
      <point x="142" y="0"/>
      <point x="256" y="0" type="curve" smooth="yes"/>
      <point x="370" y="0"/>
      <point x="462" y="92"/>
      <point x="462" y="206" type="curve" smooth="yes"/>
      <point x="462" y="289"/>
      <point x="411" y="362"/>
      <point x="339" y="393" type="curve"/>
      <point x="369" y="418"/>
      <point x="390" y="455"/>
      <point x="390" y="497" type="curve" smooth="yes"/>
      <point x="390" y="571"/>
      <point x="329" y="630"/>
      <point x="256" y="630" type="curve" smooth="yes"/>
    </contour>
    <contour>
      <point x="341" y="360"/>
      <point x="410" y="291"/>
      <point x="410" y="206" type="curve" smooth="yes"/>
      <point x="410" y="121"/>
      <point x="341" y="51"/>
      <point x="256" y="51" type="curve" smooth="yes"/>
      <point x="170" y="51"/>
      <point x="101" y="121"/>
      <point x="101" y="206" type="curve" smooth="yes"/>
      <point x="101" y="291"/>
      <point x="170" y="360"/>
      <point x="256" y="360" type="curve" smooth="yes"/>
    </contour>
    <contour>
      <point x="301" y="579"/>
      <point x="338" y="543"/>
      <point x="338" y="497" type="curve" smooth="yes"/>
      <point x="338" y="452"/>
      <point x="301" y="414"/>
      <point x="256" y="413" type="curve"/>
      <point x="210" y="414"/>
      <point x="174" y="452"/>
      <point x="174" y="497" type="curve" smooth="yes"/>
      <point x="174" y="543"/>
      <point x="210" y="579"/>
      <point x="256" y="579" type="curve" smooth="yes"/>
    </contour>
  </outline>
</glyph>
<glyph name="nine" format="1">
  <advance width="578"/>
  <unicode hex="0039"/>
  <outline>
    <contour>
      <point x="154" y="630"/>
      <point x="59" y="536"/>
      <point x="59" y="421" type="curve" smooth="yes"/>
      <point x="59" y="304"/>
      <point x="154" y="212"/>
      <point x="269" y="212" type="curve" smooth="yes"/>
      <point x="327" y="212"/>
      <point x="379" y="235"/>
      <point x="415" y="274" type="curve"/>
      <point x="394" y="170"/>
      <point x="332" y="59"/>
      <point x="198" y="52" type="curve" smooth="yes"/>
      <point x="183" y="51"/>
      <point x="172" y="40"/>
      <point x="172" y="25" type="curve" smooth="yes"/>
      <point x="172" y="11"/>
      <point x="185" y="0"/>
      <point x="200" y="0" type="curve"/>
      <point x="395" y="7"/>
      <point x="481" y="198"/>
      <point x="481" y="387" type="curve" smooth="yes"/>
      <point x="481" y="453"/>
      <point x="450" y="630"/>
      <point x="269" y="630" type="curve" smooth="yes"/>
    </contour>
    <contour>
      <point x="356" y="578"/>
      <point x="427" y="508"/>
      <point x="427" y="421" type="curve" smooth="yes"/>
      <point x="427" y="334"/>
      <point x="356" y="265"/>
      <point x="269" y="265" type="curve" smooth="yes"/>
      <point x="183" y="265"/>
      <point x="112" y="334"/>
      <point x="112" y="421" type="curve" smooth="yes"/>
      <point x="112" y="508"/>
      <point x="183" y="578"/>
      <point x="269" y="578" type="curve" smooth="yes"/>
    </contour>
  </outline>
</glyph>
<glyph name="colon" format="1">
  <advance width="216"/>
  <unicode hex="003A"/>
  <outline>
    <contour>
      <point x="78" y="21"/>
      <point x="100" y="-1"/>
      <point x="127" y="-1" type="curve" smooth="yes"/>
      <point x="154" y="-1"/>
      <point x="175" y="21"/>
      <point x="175" y="48" type="curve" smooth="yes"/>
      <point x="175" y="75"/>
      <point x="154" y="95"/>
      <point x="127" y="95" type="curve" smooth="yes"/>
      <point x="100" y="95"/>
      <point x="78" y="75"/>
      <point x="78" y="48" type="curve" smooth="yes"/>
    </contour>
    <contour>
      <point x="78" y="395"/>
      <point x="100" y="374"/>
      <point x="127" y="374" type="curve" smooth="yes"/>
      <point x="154" y="374"/>
      <point x="175" y="395"/>
      <point x="175" y="422" type="curve" smooth="yes"/>
      <point x="175" y="449"/>
      <point x="154" y="471"/>
      <point x="127" y="471" type="curve" smooth="yes"/>
      <point x="100" y="471"/>
      <point x="78" y="449"/>
      <point x="78" y="422" type="curve" smooth="yes"/>
    </contour>
  </outline>
</glyph>
<glyph name="semicolon" format="1">
  <advance width="229"/>
  <unicode hex="003B"/>
  <outline>
    <contour>
      <point x="95" y="91"/>
      <point x="79" y="75"/>
      <point x="79" y="54" type="curve" smooth="yes"/>
      <point x="79" y="38" type="line" smooth="yes"/>
      <point x="79" y="17"/>
      <point x="94" y="5"/>
      <point x="110" y="0" type="curve"/>
      <point x="113" y="-33"/>
      <point x="98" y="-55"/>
      <point x="63" y="-72" type="curve" smooth="yes"/>
      <point x="57" y="-75"/>
      <point x="53" y="-80"/>
      <point x="53" y="-86" type="curve" smooth="yes"/>
      <point x="53" y="-96"/>
      <point x="60" y="-103"/>
      <point x="69" y="-103" type="curve" smooth="yes"/>
      <point x="82" y="-103"/>
      <point x="107" y="-89"/>
      <point x="124" y="-71" type="curve" smooth="yes"/>
      <point x="143" y="-52"/>
      <point x="153" y="-23"/>
      <point x="153" y="31" type="curve" smooth="yes"/>
      <point x="153" y="50" type="line" smooth="yes"/>
      <point x="153" y="74"/>
      <point x="138" y="91"/>
      <point x="116" y="91" type="curve" smooth="yes"/>
    </contour>
    <contour>
      <point x="86" y="470"/>
      <point x="65" y="448"/>
      <point x="65" y="420" type="curve" smooth="yes"/>
      <point x="65" y="392"/>
      <point x="86" y="371"/>
      <point x="115" y="371" type="curve" smooth="yes"/>
      <point x="143" y="371"/>
      <point x="165" y="392"/>
      <point x="165" y="420" type="curve" smooth="yes"/>
      <point x="165" y="448"/>
      <point x="143" y="470"/>
      <point x="115" y="470" type="curve" smooth="yes"/>
    </contour>
  </outline>
</glyph>
<glyph name="less" format="1">
  <advance width="558"/>
  <unicode hex="003C"/>
  <outline>
    <contour>
      <point x="358" y="627"/>
      <point x="351" y="624"/>
      <point x="345" y="618" type="curve"/>
      <point x="64" y="334" type="line" smooth="yes"/>
      <point x="59" y="329"/>
      <point x="55" y="320"/>
      <point x="55" y="313" type="curve" smooth="yes"/>
      <point x="55" y="305"/>
      <point x="57" y="300"/>
      <point x="65" y="291" type="curve"/>
      <point x="345" y="9" type="line" smooth="yes"/>
      <point x="350" y="3"/>
      <point x="358" y="0"/>
      <point x="366" y="0" type="curve" smooth="yes"/>
      <point x="384" y="0"/>
      <point x="396" y="13"/>
      <point x="396" y="31" type="curve" smooth="yes"/>
      <point x="396" y="38"/>
      <point x="393" y="46"/>
      <point x="388" y="51" type="curve" smooth="yes"/>
      <point x="128" y="313" type="line"/>
      <point x="388" y="574" type="line"/>
      <point x="393" y="581"/>
      <point x="396" y="589"/>
      <point x="396" y="596" type="curve" smooth="yes"/>
      <point x="396" y="614"/>
      <point x="384" y="627"/>
      <point x="366" y="627" type="curve" smooth="yes"/>
    </contour>
  </outline>
</glyph>
<glyph name="equal" format="1">
  <advance width="558"/>
  <unicode hex="003D"/>
  <outline>
    <contour>
      <point x="97" y="199" type="line"/>
      <point x="83" y="199"/>
      <point x="71" y="210"/>
      <point x="71" y="225" type="curve"/>
      <point x="71" y="225" type="line"/>
      <point x="71" y="239"/>
      <point x="83" y="250"/>
      <point x="97" y="250" type="curve"/>
      <point x="97" y="250" type="line"/>
      <point x="395" y="250" type="line"/>
      <point x="410" y="250"/>
      <point x="421" y="239"/>
      <point x="421" y="225" type="curve"/>
      <point x="421" y="225" type="line"/>
      <point x="421" y="210"/>
      <point x="410" y="199"/>
      <point x="395" y="199" type="curve"/>
      <point x="395" y="199" type="line"/>
      <point x="97" y="199" type="line"/>
      <point x="97" y="199" type="line"/>
    </contour>
    <contour>
      <point x="97" y="379" type="line"/>
      <point x="83" y="379"/>
      <point x="71" y="391"/>
      <point x="71" y="405" type="curve"/>
      <point x="71" y="405" type="line"/>
      <point x="71" y="419"/>
      <point x="83" y="431"/>
      <point x="97" y="431" type="curve"/>
      <point x="97" y="431" type="line"/>
      <point x="395" y="431" type="line"/>
      <point x="410" y="431"/>
      <point x="421" y="419"/>
      <point x="421" y="405" type="curve"/>
      <point x="421" y="405" type="line"/>
      <point x="421" y="391"/>
      <point x="410" y="379"/>
      <point x="395" y="379" type="curve"/>
      <point x="395" y="379" type="line"/>
      <point x="97" y="379" type="line"/>
      <point x="97" y="379" type="line"/>
    </contour>
  </outline>
</glyph>
<glyph name="greater" format="1">
  <advance width="558"/>
  <unicode hex="003E"/>
  <outline>
    <contour>
      <point x="95" y="627"/>
      <point x="83" y="614"/>
      <point x="83" y="596" type="curve" smooth="yes"/>
      <point x="83" y="589"/>
      <point x="86" y="581"/>
      <point x="91" y="574" type="curve"/>
      <point x="351" y="313" type="line"/>
      <point x="91" y="51" type="line" smooth="yes"/>
      <point x="86" y="46"/>
      <point x="83" y="38"/>
      <point x="83" y="31" type="curve" smooth="yes"/>
      <point x="83" y="13"/>
      <point x="95" y="0"/>
      <point x="113" y="0" type="curve" smooth="yes"/>
      <point x="121" y="0"/>
      <point x="129" y="3"/>
      <point x="134" y="9" type="curve" smooth="yes"/>
      <point x="414" y="291" type="line"/>
      <point x="422" y="300"/>
      <point x="424" y="305"/>
      <point x="424" y="313" type="curve" smooth="yes"/>
      <point x="424" y="320"/>
      <point x="420" y="329"/>
      <point x="415" y="334" type="curve" smooth="yes"/>
      <point x="134" y="618" type="line"/>
      <point x="128" y="624"/>
      <point x="121" y="627"/>
      <point x="113" y="627" type="curve" smooth="yes"/>
    </contour>
  </outline>
</glyph>
<glyph name="question" format="1">
  <advance width="481"/>
  <unicode hex="003F"/>
  <outline>
    <contour>
      <point x="136" y="630"/>
      <point x="74" y="591"/>
      <point x="41" y="534" type="curve" smooth="yes"/>
      <point x="33" y="522"/>
      <point x="37" y="507"/>
      <point x="49" y="500" type="curve" smooth="yes"/>
      <point x="60" y="492"/>
      <point x="77" y="498"/>
      <point x="83" y="509" type="curve" smooth="yes"/>
      <point x="107" y="553"/>
      <point x="154" y="581"/>
      <point x="207" y="581" type="curve" smooth="yes"/>
      <point x="288" y="580"/>
      <point x="352" y="517"/>
      <point x="352" y="436" type="curve" smooth="yes"/>
      <point x="352" y="356"/>
      <point x="288" y="292"/>
      <point x="207" y="292" type="curve" smooth="yes"/>
      <point x="194" y="292"/>
      <point x="183" y="281"/>
      <point x="183" y="266" type="curve"/>
      <point x="183" y="154" type="line"/>
      <point x="183" y="140"/>
      <point x="194" y="130"/>
      <point x="207" y="130" type="curve" smooth="yes"/>
      <point x="221" y="130"/>
      <point x="232" y="140"/>
      <point x="232" y="154" type="curve" smooth="yes"/>
      <point x="232" y="245" type="line"/>
      <point x="328" y="257"/>
      <point x="401" y="338"/>
      <point x="401" y="436" type="curve" smooth="yes"/>
      <point x="401" y="543"/>
      <point x="314" y="630"/>
      <point x="207" y="630" type="curve" smooth="yes"/>
    </contour>
    <contour>
      <point x="194" y="68"/>
      <point x="183" y="57"/>
      <point x="183" y="43" type="curve" smooth="yes"/>
      <point x="183" y="24" type="line"/>
      <point x="183" y="11"/>
      <point x="194" y="0"/>
      <point x="207" y="0" type="curve" smooth="yes"/>
      <point x="221" y="0"/>
      <point x="232" y="11"/>
      <point x="232" y="24" type="curve" smooth="yes"/>
      <point x="232" y="43" type="line" smooth="yes"/>
      <point x="232" y="57"/>
      <point x="221" y="68"/>
      <point x="207" y="68" type="curve" smooth="yes"/>
    </contour>
  </outline>
</glyph>
<glyph name="at" format="1">
  <advance width="882"/>
  <unicode hex="0040"/>
  <outline>
    <contour>
      <point x="188" y="631"/>
      <point x="48" y="491"/>
      <point x="48" y="316" type="curve" smooth="yes"/>
      <point x="48" y="140"/>
      <point x="188" y="0"/>
      <point x="364" y="0" type="curve" smooth="yes"/>
      <point x="391" y="0"/>
      <point x="417" y="4"/>
      <point x="441" y="10" type="curve"/>
      <point x="455" y="13"/>
      <point x="464" y="27"/>
      <point x="459" y="41" type="curve"/>
      <point x="457" y="56"/>
      <point x="443" y="63"/>
      <point x="428" y="59" type="curve" smooth="yes"/>
      <point x="407" y="54"/>
      <point x="386" y="52"/>
      <point x="364" y="52" type="curve" smooth="yes"/>
      <point x="219" y="52"/>
      <point x="100" y="171"/>
      <point x="100" y="316" type="curve" smooth="yes"/>
      <point x="100" y="460"/>
      <point x="219" y="579"/>
      <point x="364" y="579" type="curve" smooth="yes"/>
      <point x="508" y="579"/>
      <point x="626" y="460"/>
      <point x="626" y="316" type="curve" smooth="yes"/>
      <point x="626" y="249"/>
      <point x="602" y="164"/>
      <point x="545" y="153" type="curve" smooth="yes"/>
      <point x="530" y="153"/>
      <point x="524" y="163"/>
      <point x="525" y="176" type="curve"/>
      <point x="525" y="316" type="line" smooth="yes"/>
      <point x="525" y="409"/>
      <point x="454" y="486"/>
      <point x="364" y="486" type="curve" smooth="yes"/>
      <point x="273" y="486"/>
      <point x="201" y="409"/>
      <point x="201" y="316" type="curve" smooth="yes"/>
      <point x="201" y="221"/>
      <point x="273" y="144"/>
      <point x="364" y="144" type="curve" smooth="yes"/>
      <point x="408" y="144"/>
      <point x="445" y="163"/>
      <point x="474" y="193" type="curve"/>
      <point x="476" y="163" type="line" smooth="yes"/>
      <point x="478" y="131"/>
      <point x="503" y="100"/>
      <point x="543" y="101" type="curve" smooth="yes"/>
      <point x="609" y="101"/>
      <point x="679" y="183"/>
      <point x="679" y="316" type="curve" smooth="yes"/>
      <point x="679" y="491"/>
      <point x="538" y="631"/>
      <point x="364" y="631" type="curve" smooth="yes"/>
    </contour>
    <contour>
      <point x="422" y="434"/>
      <point x="473" y="381"/>
      <point x="473" y="316" type="curve" smooth="yes"/>
      <point x="473" y="250"/>
      <point x="422" y="199"/>
      <point x="363" y="199" type="curve" smooth="yes"/>
      <point x="303" y="199"/>
      <point x="255" y="250"/>
      <point x="255" y="316" type="curve" smooth="yes"/>
      <point x="255" y="381"/>
      <point x="303" y="434"/>
      <point x="363" y="434" type="curve" smooth="yes"/>
    </contour>
  </outline>
</glyph>
<glyph name="A" format="1">
  <advance width="581"/>
  <unicode hex="0041"/>
  <outline>
    <contour>
      <point x="285" y="627"/>
      <point x="275" y="621"/>
      <point x="270" y="611" type="curve" smooth="yes"/>
      <point x="55" y="35" type="line" smooth="yes"/>
      <point x="50" y="23"/>
      <point x="57" y="6"/>
      <point x="70" y="1" type="curve"/>
      <point x="73" y="1"/>
      <point x="77" y="0"/>
      <point x="79" y="0" type="curve" smooth="yes"/>
      <point x="90" y="0"/>
      <point x="100" y="6"/>
      <point x="104" y="17" type="curve" smooth="yes"/>
      <point x="158" y="161" type="line"/>
      <point x="435" y="161" type="line"/>
      <point x="489" y="17" type="line"/>
      <point x="493" y="6"/>
      <point x="503" y="0"/>
      <point x="513" y="0" type="curve" smooth="yes"/>
      <point x="517" y="0"/>
      <point x="519" y="1"/>
      <point x="523" y="1" type="curve"/>
      <point x="536" y="6"/>
      <point x="543" y="23"/>
      <point x="537" y="35" type="curve" smooth="yes"/>
      <point x="321" y="611" type="line" smooth="yes"/>
      <point x="318" y="621"/>
      <point x="308" y="627"/>
      <point x="296" y="627" type="curve" smooth="yes"/>
    </contour>
    <contour>
      <point x="416" y="213" type="line"/>
      <point x="177" y="213" type="line"/>
      <point x="297" y="530" type="line"/>
    </contour>
  </outline>
</glyph>
<glyph name="B" format="1">
  <advance width="535"/>
  <unicode hex="0042"/>
  <outline>
    <contour>
      <point x="120" y="630" type="line" smooth="yes"/>
      <point x="106" y="630"/>
      <point x="94" y="620"/>
      <point x="94" y="604" type="curve" smooth="yes"/>
      <point x="94" y="26" type="line"/>
      <point x="94" y="12"/>
      <point x="104" y="0"/>
      <point x="119" y="0" type="curve"/>
      <point x="297" y="0" type="line" smooth="yes"/>
      <point x="397" y="0"/>
      <point x="479" y="81"/>
      <point x="479" y="182" type="curve" smooth="yes"/>
      <point x="479" y="259"/>
      <point x="428" y="325"/>
      <point x="360" y="351" type="curve"/>
      <point x="394" y="380"/>
      <point x="417" y="423"/>
      <point x="417" y="471" type="curve" smooth="yes"/>
      <point x="417" y="559"/>
      <point x="346" y="630"/>
      <point x="258" y="630" type="curve" smooth="yes"/>
    </contour>
    <contour>
      <point x="368" y="311"/>
      <point x="425" y="253"/>
      <point x="426" y="182" type="curve"/>
      <point x="425" y="110"/>
      <point x="368" y="52"/>
      <point x="297" y="52" type="curve"/>
      <point x="146" y="52" type="line"/>
      <point x="146" y="311" type="line"/>
      <point x="297" y="311" type="line" smooth="yes"/>
    </contour>
    <contour>
      <point x="317" y="578"/>
      <point x="364" y="530"/>
      <point x="364" y="471" type="curve" smooth="yes"/>
      <point x="364" y="412"/>
      <point x="317" y="365"/>
      <point x="257" y="365" type="curve"/>
      <point x="146" y="365" type="line"/>
      <point x="146" y="578" type="line"/>
      <point x="257" y="578" type="line" smooth="yes"/>
    </contour>
  </outline>
</glyph>
<glyph name="C" format="1">
  <advance width="694"/>
  <unicode hex="0043"/>
  <outline>
    <contour>
      <point x="213" y="640"/>
      <point x="66" y="498"/>
      <point x="66" y="319" type="curve"/>
      <point x="66" y="142"/>
      <point x="213" y="0"/>
      <point x="393" y="0" type="curve"/>
      <point x="472" y="0"/>
      <point x="543" y="26"/>
      <point x="598" y="68" type="curve"/>
      <point x="609" y="77"/>
      <point x="611" y="96"/>
      <point x="601" y="106" type="curve"/>
      <point x="593" y="119"/>
      <point x="576" y="121"/>
      <point x="564" y="113" type="curve"/>
      <point x="518" y="74"/>
      <point x="459" y="53"/>
      <point x="393" y="53" type="curve"/>
      <point x="241" y="53"/>
      <point x="119" y="172"/>
      <point x="119" y="319" type="curve"/>
      <point x="119" y="468"/>
      <point x="241" y="588"/>
      <point x="393" y="588" type="curve"/>
      <point x="459" y="588"/>
      <point x="518" y="565"/>
      <point x="565" y="528" type="curve"/>
      <point x="576" y="519"/>
      <point x="593" y="521"/>
      <point x="602" y="534" type="curve"/>
      <point x="611" y="544"/>
      <point x="609" y="562"/>
      <point x="598" y="571" type="curve"/>
      <point x="543" y="614"/>
      <point x="472" y="641"/>
      <point x="393" y="641" type="curve"/>
    </contour>
  </outline>
</glyph>
<glyph name="D" format="1">
  <advance width="647"/>
  <unicode hex="0044"/>
  <outline>
    <contour>
      <point x="120" y="630" type="line" smooth="yes"/>
      <point x="104" y="630"/>
      <point x="94" y="619"/>
      <point x="94" y="604" type="curve" smooth="yes"/>
      <point x="94" y="26" type="line" smooth="yes"/>
      <point x="94" y="12"/>
      <point x="102" y="0"/>
      <point x="118" y="0" type="curve" smooth="yes"/>
      <point x="236" y="0" type="line" smooth="yes"/>
      <point x="410" y="0"/>
      <point x="551" y="140"/>
      <point x="551" y="314" type="curve" smooth="yes"/>
      <point x="551" y="488"/>
      <point x="410" y="630"/>
      <point x="236" y="630" type="curve" smooth="yes"/>
    </contour>
    <contour>
      <point x="380" y="577"/>
      <point x="498" y="460"/>
      <point x="498" y="314" type="curve" smooth="yes"/>
      <point x="498" y="169"/>
      <point x="380" y="52"/>
      <point x="235" y="52" type="curve"/>
      <point x="146" y="52" type="line"/>
      <point x="146" y="578" type="line"/>
      <point x="235" y="578" type="line" smooth="yes"/>
    </contour>
  </outline>
</glyph>
<glyph name="E" format="1">
  <advance width="534"/>
  <unicode hex="0045"/>
  <outline>
    <contour>
      <point x="120" y="630" type="line" smooth="yes"/>
      <point x="105" y="630"/>
      <point x="94" y="618"/>
      <point x="94" y="604" type="curve" smooth="yes"/>
      <point x="94" y="26" type="line" smooth="yes"/>
      <point x="94" y="12"/>
      <point x="104" y="1"/>
      <point x="118" y="0" type="curve"/>
      <point x="439" y="0" type="line" smooth="yes"/>
      <point x="454" y="0"/>
      <point x="464" y="12"/>
      <point x="464" y="26" type="curve" smooth="yes"/>
      <point x="464" y="41"/>
      <point x="454" y="52"/>
      <point x="439" y="52" type="curve" smooth="yes"/>
      <point x="146" y="52" type="line"/>
      <point x="146" y="289" type="line"/>
      <point x="401" y="289" type="line" smooth="yes"/>
      <point x="416" y="289"/>
      <point x="428" y="301"/>
      <point x="428" y="314" type="curve" smooth="yes"/>
      <point x="428" y="329"/>
      <point x="416" y="341"/>
      <point x="401" y="341" type="curve" smooth="yes"/>
      <point x="146" y="341" type="line"/>
      <point x="146" y="578" type="line"/>
      <point x="439" y="578" type="line" smooth="yes"/>
      <point x="454" y="578"/>
      <point x="464" y="590"/>
      <point x="464" y="604" type="curve" smooth="yes"/>
      <point x="464" y="618"/>
      <point x="454" y="630"/>
      <point x="439" y="630" type="curve" smooth="yes"/>
    </contour>
  </outline>
</glyph>
<glyph name="F" format="1">
  <advance width="545"/>
  <unicode hex="0046"/>
  <outline>
    <contour>
      <point x="119" y="630" type="line" smooth="yes"/>
      <point x="104" y="629"/>
      <point x="94" y="618"/>
      <point x="94" y="604" type="curve" smooth="yes"/>
      <point x="94" y="26" type="line"/>
      <point x="94" y="12"/>
      <point x="105" y="0"/>
      <point x="120" y="0" type="curve" smooth="yes"/>
      <point x="134" y="0"/>
      <point x="146" y="12"/>
      <point x="146" y="26" type="curve" smooth="yes"/>
      <point x="146" y="289" type="line"/>
      <point x="402" y="289" type="line" smooth="yes"/>
      <point x="418" y="289"/>
      <point x="429" y="301"/>
      <point x="429" y="314" type="curve" smooth="yes"/>
      <point x="429" y="329"/>
      <point x="418" y="341"/>
      <point x="402" y="341" type="curve" smooth="yes"/>
      <point x="146" y="341" type="line"/>
      <point x="146" y="578" type="line"/>
      <point x="440" y="578" type="line" smooth="yes"/>
      <point x="454" y="578"/>
      <point x="465" y="590"/>
      <point x="465" y="604" type="curve" smooth="yes"/>
      <point x="465" y="618"/>
      <point x="454" y="630"/>
      <point x="440" y="630" type="curve" smooth="yes"/>
    </contour>
  </outline>
</glyph>
<glyph name="G" format="1">
  <advance width="733"/>
  <unicode hex="0047"/>
  <outline>
    <contour>
      <point x="212" y="640"/>
      <point x="66" y="497"/>
      <point x="66" y="320" type="curve" smooth="yes"/>
      <point x="66" y="142"/>
      <point x="212" y="1"/>
      <point x="394" y="0" type="curve" smooth="yes"/>
      <point x="472" y="0"/>
      <point x="542" y="25"/>
      <point x="598" y="69" type="curve" smooth="yes"/>
      <point x="605" y="76"/>
      <point x="608" y="83"/>
      <point x="608" y="93" type="curve" smooth="yes"/>
      <point x="608" y="306" type="line" smooth="yes"/>
      <point x="608" y="320"/>
      <point x="597" y="332"/>
      <point x="583" y="333" type="curve" smooth="yes"/>
      <point x="389" y="333" type="line" smooth="yes"/>
      <point x="374" y="333"/>
      <point x="362" y="321"/>
      <point x="362" y="306" type="curve" smooth="yes"/>
      <point x="362" y="292"/>
      <point x="374" y="280"/>
      <point x="389" y="280" type="curve"/>
      <point x="554" y="280" type="line"/>
      <point x="554" y="104" type="line"/>
      <point x="509" y="72"/>
      <point x="453" y="53"/>
      <point x="394" y="53" type="curve" smooth="yes"/>
      <point x="241" y="53"/>
      <point x="119" y="173"/>
      <point x="119" y="320" type="curve" smooth="yes"/>
      <point x="119" y="467"/>
      <point x="241" y="588"/>
      <point x="394" y="588" type="curve" smooth="yes"/>
      <point x="460" y="588"/>
      <point x="519" y="565"/>
      <point x="564" y="528" type="curve" smooth="yes"/>
      <point x="577" y="519"/>
      <point x="593" y="522"/>
      <point x="602" y="533" type="curve" smooth="yes"/>
      <point x="612" y="544"/>
      <point x="608" y="562"/>
      <point x="599" y="570" type="curve" smooth="yes"/>
      <point x="542" y="614"/>
      <point x="472" y="640"/>
      <point x="394" y="640" type="curve" smooth="yes"/>
    </contour>
  </outline>
</glyph>
<glyph name="H" format="1">
  <advance width="638"/>
  <unicode hex="0048"/>
  <outline>
    <contour>
      <point x="468" y="630"/>
      <point x="456" y="618"/>
      <point x="456" y="604" type="curve" smooth="yes"/>
      <point x="456" y="341" type="line"/>
      <point x="146" y="341" type="line"/>
      <point x="146" y="604" type="line" smooth="yes"/>
      <point x="146" y="618"/>
      <point x="134" y="630"/>
      <point x="120" y="630" type="curve" smooth="yes"/>
      <point x="105" y="630"/>
      <point x="94" y="618"/>
      <point x="94" y="604" type="curve" smooth="yes"/>
      <point x="94" y="26" type="line" smooth="yes"/>
      <point x="94" y="12"/>
      <point x="105" y="0"/>
      <point x="120" y="0" type="curve" smooth="yes"/>
      <point x="134" y="0"/>
      <point x="146" y="12"/>
      <point x="146" y="26" type="curve" smooth="yes"/>
      <point x="146" y="289" type="line"/>
      <point x="456" y="289" type="line"/>
      <point x="456" y="26" type="line"/>
      <point x="456" y="12"/>
      <point x="468" y="0"/>
      <point x="482" y="0" type="curve" smooth="yes"/>
      <point x="497" y="0"/>
      <point x="509" y="12"/>
      <point x="509" y="26" type="curve" smooth="yes"/>
      <point x="509" y="604" type="line" smooth="yes"/>
      <point x="509" y="618"/>
      <point x="497" y="630"/>
      <point x="482" y="630" type="curve" smooth="yes"/>
    </contour>
  </outline>
</glyph>
<glyph name="I" format="1">
  <advance width="275"/>
  <unicode hex="0049"/>
  <outline>
    <contour>
      <point x="100" y="26" type="line"/>
      <point x="100" y="604" type="line"/>
      <point x="100" y="618"/>
      <point x="112" y="630"/>
      <point x="126" y="630" type="curve"/>
      <point x="126" y="630" type="line"/>
      <point x="140" y="630"/>
      <point x="152" y="618"/>
      <point x="152" y="604" type="curve"/>
      <point x="152" y="604" type="line"/>
      <point x="152" y="26" type="line"/>
      <point x="152" y="12"/>
      <point x="140" y="0"/>
      <point x="126" y="0" type="curve"/>
      <point x="126" y="0" type="line"/>
      <point x="112" y="0"/>
      <point x="100" y="12"/>
      <point x="100" y="26" type="curve"/>
      <point x="100" y="26" type="line"/>
    </contour>
  </outline>
</glyph>
<glyph name="J" format="1">
  <advance width="535"/>
  <unicode hex="004A"/>
  <outline>
    <contour>
      <point x="422" y="630"/>
      <point x="410" y="618"/>
      <point x="410" y="604" type="curve"/>
      <point x="410" y="215" type="line"/>
      <point x="410" y="125"/>
      <point x="337" y="52"/>
      <point x="248" y="52" type="curve"/>
      <point x="175" y="51"/>
      <point x="113" y="99"/>
      <point x="92" y="166" type="curve"/>
      <point x="88" y="178"/>
      <point x="73" y="186"/>
      <point x="59" y="182" type="curve"/>
      <point x="46" y="177"/>
      <point x="38" y="163"/>
      <point x="42" y="149" type="curve"/>
      <point x="69" y="62"/>
      <point x="152" y="0"/>
      <point x="247" y="0" type="curve"/>
      <point x="365" y="0"/>
      <point x="462" y="95"/>
      <point x="462" y="215" type="curve"/>
      <point x="462" y="604" type="line"/>
      <point x="462" y="618"/>
      <point x="450" y="630"/>
      <point x="437" y="630" type="curve"/>
    </contour>
  </outline>
</glyph>
<glyph name="K" format="1">
  <advance width="644"/>
  <unicode hex="004B"/>
  <outline>
    <contour>
      <point x="105" y="628"/>
      <point x="94" y="616"/>
      <point x="94" y="601" type="curve" smooth="yes"/>
      <point x="94" y="26" type="line"/>
      <point x="94" y="12"/>
      <point x="105" y="0"/>
      <point x="120" y="0" type="curve" smooth="yes"/>
      <point x="134" y="0"/>
      <point x="146" y="12"/>
      <point x="146" y="26" type="curve" smooth="yes"/>
      <point x="146" y="179" type="line"/>
      <point x="278" y="311" type="line"/>
      <point x="514" y="10" type="line" smooth="yes"/>
      <point x="519" y="3"/>
      <point x="527" y="0"/>
      <point x="534" y="0" type="curve" smooth="yes"/>
      <point x="540" y="0"/>
      <point x="545" y="1"/>
      <point x="551" y="5" type="curve" smooth="yes"/>
      <point x="562" y="16"/>
      <point x="563" y="32"/>
      <point x="554" y="43" type="curve"/>
      <point x="315" y="348" type="line"/>
      <point x="550" y="583" type="line" smooth="yes"/>
      <point x="561" y="593"/>
      <point x="561" y="610"/>
      <point x="550" y="620" type="curve"/>
      <point x="541" y="630"/>
      <point x="524" y="630"/>
      <point x="513" y="620" type="curve" smooth="yes"/>
      <point x="146" y="253" type="line"/>
      <point x="146" y="601" type="line" smooth="yes"/>
      <point x="146" y="616"/>
      <point x="134" y="628"/>
      <point x="120" y="628" type="curve" smooth="yes"/>
    </contour>
  </outline>
</glyph>
<glyph name="L" format="1">
  <advance width="507"/>
  <unicode hex="004C"/>
  <outline>
    <contour>
      <point x="105" y="630"/>
      <point x="94" y="618"/>
      <point x="94" y="604" type="curve" smooth="yes"/>
      <point x="94" y="26" type="line" smooth="yes"/>
      <point x="94" y="12"/>
      <point x="105" y="0"/>
      <point x="120" y="0" type="curve" smooth="yes"/>
      <point x="439" y="0" type="line" smooth="yes"/>
      <point x="454" y="0"/>
      <point x="465" y="12"/>
      <point x="465" y="26" type="curve" smooth="yes"/>
      <point x="465" y="41"/>
      <point x="454" y="52"/>
      <point x="439" y="52" type="curve" smooth="yes"/>
      <point x="146" y="52" type="line"/>
      <point x="146" y="604" type="line" smooth="yes"/>
      <point x="146" y="618"/>
      <point x="134" y="630"/>
      <point x="120" y="630" type="curve" smooth="yes"/>
    </contour>
  </outline>
</glyph>
<glyph name="M" format="1">
  <advance width="760"/>
  <unicode hex="004D"/>
  <outline>
    <contour>
      <point x="590" y="627"/>
      <point x="581" y="625"/>
      <point x="577" y="617" type="curve" smooth="yes"/>
      <point x="360" y="316" type="line"/>
      <point x="142" y="617" type="line" smooth="yes"/>
      <point x="138" y="625"/>
      <point x="130" y="627"/>
      <point x="122" y="627" type="curve"/>
      <point x="107" y="627"/>
      <point x="94" y="621"/>
      <point x="94" y="601" type="curve" smooth="yes"/>
      <point x="94" y="26" type="line" smooth="yes"/>
      <point x="94" y="12"/>
      <point x="105" y="0"/>
      <point x="121" y="0" type="curve" smooth="yes"/>
      <point x="134" y="0"/>
      <point x="146" y="12"/>
      <point x="146" y="26" type="curve" smooth="yes"/>
      <point x="146" y="523" type="line"/>
      <point x="337" y="258" type="line" smooth="yes"/>
      <point x="341" y="251"/>
      <point x="351" y="246"/>
      <point x="360" y="246" type="curve" smooth="yes"/>
      <point x="368" y="246"/>
      <point x="377" y="250"/>
      <point x="383" y="258" type="curve" smooth="yes"/>
      <point x="573" y="523" type="line"/>
      <point x="573" y="26" type="line"/>
      <point x="573" y="12"/>
      <point x="584" y="0"/>
      <point x="599" y="0" type="curve" smooth="yes"/>
      <point x="613" y="0"/>
      <point x="625" y="12"/>
      <point x="625" y="26" type="curve" smooth="yes"/>
      <point x="625" y="601" type="line" smooth="yes"/>
      <point x="625" y="618"/>
      <point x="613" y="627"/>
      <point x="598" y="627" type="curve" smooth="yes"/>
    </contour>
  </outline>
</glyph>
<glyph name="N" format="1">
  <advance width="694"/>
  <unicode hex="004E"/>
  <outline>
    <contour>
      <point x="522" y="628"/>
      <point x="510" y="617"/>
      <point x="510" y="602" type="curve" smooth="yes"/>
      <point x="510" y="106" type="line"/>
      <point x="142" y="617" type="line"/>
      <point x="137" y="625"/>
      <point x="130" y="627"/>
      <point x="122" y="627" type="curve" smooth="yes"/>
      <point x="106" y="627"/>
      <point x="92" y="614"/>
      <point x="96" y="596" type="curve"/>
      <point x="96" y="26" type="line" smooth="yes"/>
      <point x="96" y="12"/>
      <point x="107" y="0"/>
      <point x="122" y="0" type="curve" smooth="yes"/>
      <point x="136" y="0"/>
      <point x="148" y="12"/>
      <point x="148" y="26" type="curve" smooth="yes"/>
      <point x="148" y="520" type="line"/>
      <point x="512" y="14" type="line" smooth="yes"/>
      <point x="517" y="7"/>
      <point x="525" y="0"/>
      <point x="536" y="0" type="curve" smooth="yes"/>
      <point x="551" y="0"/>
      <point x="563" y="12"/>
      <point x="563" y="26" type="curve" smooth="yes"/>
      <point x="563" y="602" type="line" smooth="yes"/>
      <point x="563" y="617"/>
      <point x="551" y="628"/>
      <point x="536" y="628" type="curve" smooth="yes"/>
    </contour>
  </outline>
</glyph>
<glyph name="O" format="1">
  <advance width="765"/>
  <unicode hex="004F"/>
  <outline>
    <contour>
      <point x="200" y="641"/>
      <point x="67" y="497"/>
      <point x="66" y="320" type="curve" smooth="yes"/>
      <point x="67" y="144"/>
      <point x="200" y="0"/>
      <point x="371" y="0" type="curve" smooth="yes"/>
      <point x="539" y="0"/>
      <point x="672" y="144"/>
      <point x="673" y="320" type="curve"/>
      <point x="672" y="496"/>
      <point x="539" y="641"/>
      <point x="371" y="641" type="curve" smooth="yes"/>
    </contour>
    <contour>
      <point x="506" y="587"/>
      <point x="618" y="471"/>
      <point x="619" y="320" type="curve" smooth="yes"/>
      <point x="618" y="172"/>
      <point x="506" y="53"/>
      <point x="371" y="53" type="curve" smooth="yes"/>
      <point x="232" y="53"/>
      <point x="119" y="172"/>
      <point x="119" y="320" type="curve" smooth="yes"/>
      <point x="119" y="471"/>
      <point x="232" y="587"/>
      <point x="371" y="587" type="curve" smooth="yes"/>
    </contour>
  </outline>
</glyph>
<glyph name="P" format="1">
  <advance width="525"/>
  <unicode hex="0050"/>
  <outline>
    <contour>
      <point x="120" y="630" type="line" smooth="yes"/>
      <point x="105" y="630"/>
      <point x="94" y="618"/>
      <point x="94" y="604" type="curve" smooth="yes"/>
      <point x="94" y="26" type="line"/>
      <point x="94" y="12"/>
      <point x="105" y="0"/>
      <point x="120" y="0" type="curve" smooth="yes"/>
      <point x="134" y="0"/>
      <point x="146" y="12"/>
      <point x="146" y="26" type="curve" smooth="yes"/>
      <point x="146" y="266" type="line"/>
      <point x="295" y="267" type="line"/>
      <point x="395" y="267"/>
      <point x="476" y="348"/>
      <point x="476" y="448" type="curve" smooth="yes"/>
      <point x="476" y="548"/>
      <point x="395" y="630"/>
      <point x="295" y="630" type="curve" smooth="yes"/>
    </contour>
    <contour>
      <point x="366" y="578"/>
      <point x="424" y="519"/>
      <point x="424" y="448" type="curve" smooth="yes"/>
      <point x="424" y="377"/>
      <point x="366" y="319"/>
      <point x="295" y="318" type="curve"/>
      <point x="146" y="318" type="line"/>
      <point x="146" y="578" type="line"/>
      <point x="295" y="578" type="line" smooth="yes"/>
    </contour>
  </outline>
</glyph>
<glyph name="Q" format="1">
  <advance width="760"/>
  <unicode hex="0051"/>
  <outline>
    <contour>
      <point x="194" y="638"/>
      <point x="59" y="493"/>
      <point x="59" y="317" type="curve" smooth="yes"/>
      <point x="59" y="158"/>
      <point x="167" y="27"/>
      <point x="311" y="1" type="curve"/>
      <point x="238" y="-23"/>
      <point x="227" y="-37"/>
      <point x="225" y="-52" type="curve" smooth="yes"/>
      <point x="224" y="-69"/>
      <point x="236" y="-85"/>
      <point x="252" y="-85" type="curve" smooth="yes"/>
      <point x="257" y="-85"/>
      <point x="261" y="-84"/>
      <point x="266" y="-81" type="curve"/>
      <point x="266" y="-80"/>
      <point x="308" y="-61"/>
      <point x="347" y="-61" type="curve" smooth="yes"/>
      <point x="370" y="-61"/>
      <point x="394" y="-66"/>
      <point x="420" y="-80" type="curve" smooth="yes"/>
      <point x="468" y="-108"/>
      <point x="519" y="-132"/>
      <point x="578" y="-132" type="curve"/>
      <point x="625" y="-132"/>
      <point x="672" y="-116"/>
      <point x="722" y="-78" type="curve" smooth="yes"/>
      <point x="729" y="-73"/>
      <point x="732" y="-65"/>
      <point x="732" y="-58" type="curve" smooth="yes"/>
      <point x="732" y="-41"/>
      <point x="722" y="-30"/>
      <point x="706" y="-30" type="curve" smooth="yes"/>
      <point x="699" y="-30"/>
      <point x="693" y="-32"/>
      <point x="689" y="-35" type="curve" smooth="yes"/>
      <point x="647" y="-67"/>
      <point x="612" y="-78"/>
      <point x="578" y="-78" type="curve" smooth="yes"/>
      <point x="499" y="-78"/>
      <point x="475" y="-34"/>
      <point x="401" y="-17" type="curve"/>
      <point x="604" y="77"/>
      <point x="668" y="162"/>
      <point x="668" y="317" type="curve" smooth="yes"/>
      <point x="668" y="492"/>
      <point x="534" y="638"/>
      <point x="364" y="639" type="curve" smooth="yes"/>
    </contour>
    <contour>
      <point x="501" y="584"/>
      <point x="614" y="466"/>
      <point x="614" y="317" type="curve" smooth="yes"/>
      <point x="614" y="172"/>
      <point x="507" y="49"/>
      <point x="373" y="49" type="curve" smooth="yes"/>
      <point x="231" y="49"/>
      <point x="113" y="165"/>
      <point x="113" y="317" type="curve" smooth="yes"/>
      <point x="113" y="465"/>
      <point x="226" y="584"/>
      <point x="364" y="584" type="curve" smooth="yes"/>
    </contour>
  </outline>
</glyph>
<glyph name="R" format="1">
  <advance width="563"/>
  <unicode hex="0052"/>
  <outline>
    <contour>
      <point x="105" y="630" type="line" smooth="yes"/>
      <point x="92" y="629"/>
      <point x="81" y="617"/>
      <point x="81" y="604" type="curve" smooth="yes"/>
      <point x="81" y="26" type="line" smooth="yes"/>
      <point x="81" y="12"/>
      <point x="93" y="0"/>
      <point x="107" y="0" type="curve" smooth="yes"/>
      <point x="122" y="0"/>
      <point x="133" y="12"/>
      <point x="133" y="26" type="curve" smooth="yes"/>
      <point x="133" y="267" type="line"/>
      <point x="274" y="267" type="line" smooth="yes"/>
      <point x="330" y="266"/>
      <point x="401" y="213"/>
      <point x="402" y="145" type="curve" smooth="yes"/>
      <point x="402" y="68"/>
      <point x="418" y="10"/>
      <point x="464" y="10" type="curve" smooth="yes"/>
      <point x="484" y="10"/>
      <point x="500" y="22"/>
      <point x="494" y="45" type="curve"/>
      <point x="491" y="56"/>
      <point x="480" y="62"/>
      <point x="469" y="62" type="curve"/>
      <point x="458" y="74"/>
      <point x="454" y="98"/>
      <point x="454" y="145" type="curve" smooth="yes"/>
      <point x="454" y="234"/>
      <point x="394" y="270"/>
      <point x="365" y="287" type="curve"/>
      <point x="424" y="317"/>
      <point x="464" y="378"/>
      <point x="464" y="448" type="curve" smooth="yes"/>
      <point x="464" y="549"/>
      <point x="383" y="630"/>
      <point x="283" y="630" type="curve" smooth="yes"/>
    </contour>
    <contour>
      <point x="354" y="578"/>
      <point x="411" y="520"/>
      <point x="411" y="448" type="curve" smooth="yes"/>
      <point x="411" y="378"/>
      <point x="355" y="320"/>
      <point x="285" y="319" type="curve" smooth="yes"/>
      <point x="133" y="319" type="line"/>
      <point x="133" y="578" type="line"/>
      <point x="283" y="578" type="line" smooth="yes"/>
    </contour>
  </outline>
</glyph>
<glyph name="S" format="1">
  <advance width="600"/>
  <unicode hex="0053"/>
  <outline>
    <contour>
      <point x="191" y="641"/>
      <point x="80" y="576"/>
      <point x="80" y="474" type="curve"/>
      <point x="80" y="373"/>
      <point x="188" y="329"/>
      <point x="296" y="309" type="curve"/>
      <point x="392" y="291"/>
      <point x="488" y="257"/>
      <point x="488" y="177" type="curve"/>
      <point x="488" y="99"/>
      <point x="394" y="48"/>
      <point x="302" y="48" type="curve"/>
      <point x="222" y="47"/>
      <point x="146" y="90"/>
      <point x="100" y="127" type="curve"/>
      <point x="90" y="136"/>
      <point x="75" y="134"/>
      <point x="67" y="123" type="curve"/>
      <point x="59" y="114"/>
      <point x="59" y="99"/>
      <point x="69" y="90" type="curve"/>
      <point x="122" y="49"/>
      <point x="205" y="0"/>
      <point x="302" y="-1" type="curve"/>
      <point x="419" y="-1"/>
      <point x="536" y="72"/>
      <point x="536" y="177" type="curve"/>
      <point x="536" y="284"/>
      <point x="423" y="333"/>
      <point x="304" y="356" type="curve"/>
      <point x="212" y="373"/>
      <point x="130" y="405"/>
      <point x="128" y="474" type="curve"/>
      <point x="128" y="548"/>
      <point x="214" y="593"/>
      <point x="300" y="593" type="curve"/>
      <point x="367" y="593"/>
      <point x="419" y="560"/>
      <point x="468" y="527" type="curve"/>
      <point x="479" y="520"/>
      <point x="494" y="524"/>
      <point x="500" y="535" type="curve"/>
      <point x="509" y="545"/>
      <point x="505" y="560"/>
      <point x="494" y="568" type="curve"/>
      <point x="446" y="599"/>
      <point x="383" y="641"/>
      <point x="300" y="641" type="curve"/>
    </contour>
  </outline>
</glyph>
<glyph name="T" format="1">
  <advance width="583"/>
  <unicode hex="0054"/>
  <outline>
    <contour>
      <point x="71" y="630" type="line" smooth="yes"/>
      <point x="57" y="630"/>
      <point x="45" y="618"/>
      <point x="45" y="604" type="curve" smooth="yes"/>
      <point x="45" y="590"/>
      <point x="57" y="578"/>
      <point x="71" y="578" type="curve" smooth="yes"/>
      <point x="254" y="578" type="line"/>
      <point x="254" y="26" type="line"/>
      <point x="254" y="12"/>
      <point x="266" y="0"/>
      <point x="279" y="0" type="curve" smooth="yes"/>
      <point x="293" y="0"/>
      <point x="305" y="12"/>
      <point x="305" y="26" type="curve" smooth="yes"/>
      <point x="305" y="578" type="line"/>
      <point x="488" y="578" type="line" smooth="yes"/>
      <point x="502" y="578"/>
      <point x="514" y="590"/>
      <point x="514" y="604" type="curve" smooth="yes"/>
      <point x="514" y="618"/>
      <point x="502" y="630"/>
      <point x="488" y="630" type="curve" smooth="yes"/>
    </contour>
  </outline>
</glyph>
<glyph name="U" format="1">
  <advance width="485"/>
  <unicode hex="0055"/>
  <outline>
    <contour>
      <point x="55" y="205" type="line" smooth="yes" name="hr00"/>
      <point x="55" y="106.666"/>
      <point x="88.169" y="40.9155"/>
      <point x="154" y="8" type="curve" smooth="yes"/>
      <point x="180" y="-5"/>
      <point x="210" y="-10"/>
      <point x="241" y="-10" type="curve" smooth="yes"/>
      <point x="322.907" y="-10"/>
      <point x="382.113" y="31.9314"/>
      <point x="407" y="90" type="curve" smooth="yes"/>
      <point x="421" y="122"/>
      <point x="427" y="158"/>
      <point x="427" y="205" type="curve" smooth="yes"/>
      <point x="427" y="546" type="line"/>
      <point x="375" y="546" type="line"/>
      <point x="375" y="205" type="line" smooth="yes"/>
      <point x="375" y="121.339"/>
      <point x="348.07" y="72.9554"/>
      <point x="294" y="48" type="curve" smooth="yes"/>
      <point x="279" y="41"/>
      <point x="262" y="37"/>
      <point x="241" y="37" type="curve" smooth="yes"/>
      <point x="183.381" y="37"/>
      <point x="149.104" y="66.2129"/>
      <point x="127" y="106" type="curve" smooth="yes"/>
      <point x="115" y="128"/>
      <point x="109" y="161"/>
      <point x="109" y="205" type="curve" smooth="yes"/>
      <point x="109" y="546" type="line"/>
      <point x="55" y="546" type="line"/>
    </contour>
  </outline>
</glyph>
<glyph name="V" format="1">
  <advance width="675"/>
  <unicode hex="0056"/>
  <outline>
    <contour>
      <point x="561" y="630"/>
      <point x="545" y="624"/>
      <point x="540" y="611" type="curve"/>
      <point x="321" y="93" type="line"/>
      <point x="104" y="611" type="line" smooth="yes"/>
      <point x="98" y="624"/>
      <point x="83" y="630"/>
      <point x="70" y="624" type="curve" smooth="yes"/>
      <point x="57" y="618"/>
      <point x="50" y="603"/>
      <point x="56" y="590" type="curve" smooth="yes"/>
      <point x="296" y="17" type="line" smooth="yes"/>
      <point x="307" y="-5"/>
      <point x="335" y="-7"/>
      <point x="347" y="22" type="curve" smooth="yes"/>
      <point x="588" y="590" type="line" smooth="yes"/>
      <point x="592" y="603"/>
      <point x="586" y="618"/>
      <point x="573" y="624" type="curve" smooth="yes"/>
    </contour>
  </outline>
</glyph>
<glyph name="W" format="1">
  <advance width="992"/>
  <unicode hex="0057"/>
  <outline>
    <contour>
      <point x="921" y="630"/>
      <point x="906" y="624"/>
      <point x="900" y="611" type="curve"/>
      <point x="682" y="93" type="line"/>
      <point x="529" y="456" type="line"/>
      <point x="525" y="466"/>
      <point x="515" y="473"/>
      <point x="503" y="473" type="curve" smooth="yes"/>
      <point x="493" y="473"/>
      <point x="483" y="466"/>
      <point x="479" y="456" type="curve"/>
      <point x="325" y="93" type="line"/>
      <point x="107" y="611" type="line" smooth="yes"/>
      <point x="102" y="624"/>
      <point x="86" y="630"/>
      <point x="73" y="624" type="curve" smooth="yes"/>
      <point x="60" y="618"/>
      <point x="54" y="603"/>
      <point x="60" y="590" type="curve"/>
      <point x="300" y="20" type="line" smooth="yes"/>
      <point x="311" y="-8"/>
      <point x="338" y="-10"/>
      <point x="349" y="18" type="curve" smooth="yes"/>
      <point x="504" y="383" type="line"/>
      <point x="658" y="18" type="line" smooth="yes"/>
      <point x="671" y="-13"/>
      <point x="698" y="-3"/>
      <point x="707" y="17" type="curve" smooth="yes"/>
      <point x="948" y="590" type="line"/>
      <point x="954" y="603"/>
      <point x="948" y="618"/>
      <point x="935" y="624" type="curve" smooth="yes"/>
    </contour>
  </outline>
</glyph>
<glyph name="X" format="1">
  <advance width="650"/>
  <unicode hex="0058"/>
  <outline>
    <contour>
      <point x="518" y="630"/>
      <point x="503" y="628"/>
      <point x="493" y="616" type="curve"/>
      <point x="305" y="357" type="line"/>
      <point x="116" y="616" type="line"/>
      <point x="108" y="628"/>
      <point x="92" y="630"/>
      <point x="80" y="621" type="curve"/>
      <point x="68" y="613"/>
      <point x="66" y="596"/>
      <point x="75" y="584" type="curve"/>
      <point x="273" y="313" type="line"/>
      <point x="75" y="41" type="line"/>
      <point x="66" y="30"/>
      <point x="68" y="14"/>
      <point x="80" y="5" type="curve" smooth="yes"/>
      <point x="85" y="2"/>
      <point x="90" y="0"/>
      <point x="95" y="0" type="curve" smooth="yes"/>
      <point x="104" y="0"/>
      <point x="112" y="5"/>
      <point x="116" y="12" type="curve"/>
      <point x="305" y="270" type="line"/>
      <point x="493" y="12" type="line" smooth="yes"/>
      <point x="499" y="5"/>
      <point x="507" y="0"/>
      <point x="515" y="0" type="curve" smooth="yes"/>
      <point x="520" y="0"/>
      <point x="525" y="2"/>
      <point x="530" y="5" type="curve" smooth="yes"/>
      <point x="542" y="14"/>
      <point x="545" y="30"/>
      <point x="536" y="41" type="curve"/>
      <point x="337" y="313" type="line"/>
      <point x="536" y="584" type="line"/>
      <point x="545" y="596"/>
      <point x="542" y="613"/>
      <point x="530" y="621" type="curve"/>
    </contour>
  </outline>
</glyph>
<glyph name="Y" format="1">
  <advance width="544"/>
  <unicode hex="0059"/>
  <outline>
    <contour>
      <point x="505" y="630"/>
      <point x="488" y="628"/>
      <point x="480" y="616" type="curve"/>
      <point x="289" y="354" type="line"/>
      <point x="98" y="616" type="line"/>
      <point x="91" y="628"/>
      <point x="74" y="630"/>
      <point x="62" y="621" type="curve" smooth="yes"/>
      <point x="50" y="613"/>
      <point x="49" y="596"/>
      <point x="57" y="584" type="curve"/>
      <point x="264" y="301" type="line"/>
      <point x="264" y="26" type="line"/>
      <point x="264" y="12"/>
      <point x="275" y="0"/>
      <point x="290" y="0" type="curve" smooth="yes"/>
      <point x="304" y="0"/>
      <point x="315" y="12"/>
      <point x="315" y="26" type="curve" smooth="yes"/>
      <point x="315" y="302" type="line"/>
      <point x="522" y="584" type="line" smooth="yes"/>
      <point x="530" y="596"/>
      <point x="528" y="613"/>
      <point x="517" y="621" type="curve"/>
    </contour>
  </outline>
</glyph>
<glyph name="Z" format="1">
  <advance width="600"/>
  <unicode hex="005A"/>
  <outline>
    <contour>
      <point x="92" y="627" type="line" smooth="yes"/>
      <point x="77" y="627"/>
      <point x="66" y="616"/>
      <point x="66" y="601" type="curve" smooth="yes"/>
      <point x="66" y="587"/>
      <point x="77" y="575"/>
      <point x="92" y="575" type="curve" smooth="yes"/>
      <point x="460" y="575" type="line"/>
      <point x="73" y="45" type="line" smooth="yes"/>
      <point x="58" y="23"/>
      <point x="67" y="0"/>
      <point x="92" y="0" type="curve" smooth="yes"/>
      <point x="512" y="0" type="line" smooth="yes"/>
      <point x="526" y="0"/>
      <point x="537" y="12"/>
      <point x="537" y="26" type="curve" smooth="yes"/>
      <point x="537" y="41"/>
      <point x="526" y="52"/>
      <point x="512" y="52" type="curve" smooth="yes"/>
      <point x="142" y="52" type="line"/>
      <point x="533" y="585" type="line" smooth="yes"/>
      <point x="544" y="599"/>
      <point x="537" y="627"/>
      <point x="506" y="627" type="curve"/>
    </contour>
  </outline>
</glyph>
<glyph name="bracketleft" format="1">
  <advance width="387"/>
  <unicode hex="005B"/>
  <outline>
    <contour>
      <point x="88" y="-89" type="line"/>
      <point x="88" y="-104"/>
      <point x="101" y="-117"/>
      <point x="116" y="-117" type="curve" smooth="yes"/>
      <point x="321" y="-117" type="line" smooth="yes"/>
      <point x="332" y="-117"/>
      <point x="342" y="-107"/>
      <point x="342" y="-96" type="curve" smooth="yes"/>
      <point x="342" y="-85"/>
      <point x="332" y="-75"/>
      <point x="321" y="-75" type="curve" smooth="yes"/>
      <point x="140" y="-75" type="line"/>
      <point x="140" y="588" type="line"/>
      <point x="321" y="588" type="line" smooth="yes"/>
      <point x="332" y="588"/>
      <point x="342" y="598"/>
      <point x="342" y="609" type="curve" smooth="yes"/>
      <point x="342" y="620"/>
      <point x="332" y="630"/>
      <point x="321" y="630" type="curve" smooth="yes"/>
      <point x="116" y="630" type="line" smooth="yes"/>
      <point x="101" y="630"/>
      <point x="88" y="617"/>
      <point x="88" y="602" type="curve" smooth="yes"/>
    </contour>
  </outline>
</glyph>
<glyph name="backslash" format="1">
  <advance width="403"/>
  <unicode hex="005C"/>
  <outline>
    <contour>
      <point x="338" y="3" type="line"/>
      <point x="350" y="9"/>
      <point x="356" y="24"/>
      <point x="351" y="38" type="curve"/>
      <point x="351" y="38" type="line"/>
      <point x="109" y="612" type="line"/>
      <point x="103" y="626"/>
      <point x="89" y="632"/>
      <point x="75" y="626" type="curve"/>
      <point x="75" y="626" type="line"/>
      <point x="61" y="621"/>
      <point x="55" y="606"/>
      <point x="61" y="592" type="curve"/>
      <point x="61" y="592" type="line"/>
      <point x="303" y="17" type="line"/>
      <point x="307" y="7"/>
      <point x="317" y="2"/>
      <point x="327" y="2" type="curve"/>
      <point x="327" y="2" type="line"/>
      <point x="330" y="2"/>
      <point x="334" y="2"/>
      <point x="338" y="3" type="curve"/>
      <point x="338" y="3" type="line"/>
    </contour>
  </outline>
</glyph>
<glyph name="bracketright" format="1">
  <advance width="387"/>
  <unicode hex="005D"/>
  <outline>
    <contour>
      <point x="303" y="602" type="line"/>
      <point x="303" y="617"/>
      <point x="291" y="630"/>
      <point x="275" y="630" type="curve" smooth="yes"/>
      <point x="70" y="630" type="line" smooth="yes"/>
      <point x="59" y="630"/>
      <point x="50" y="620"/>
      <point x="50" y="609" type="curve" smooth="yes"/>
      <point x="50" y="598"/>
      <point x="59" y="588"/>
      <point x="70" y="588" type="curve" smooth="yes"/>
      <point x="253" y="588" type="line"/>
      <point x="253" y="-75" type="line"/>
      <point x="70" y="-75" type="line" smooth="yes"/>
      <point x="59" y="-75"/>
      <point x="50" y="-85"/>
      <point x="50" y="-96" type="curve" smooth="yes"/>
      <point x="50" y="-107"/>
      <point x="59" y="-117"/>
      <point x="70" y="-117" type="curve" smooth="yes"/>
      <point x="275" y="-117" type="line" smooth="yes"/>
      <point x="291" y="-117"/>
      <point x="303" y="-104"/>
      <point x="303" y="-89" type="curve" smooth="yes"/>
    </contour>
  </outline>
</glyph>
<glyph name="asciicircum" format="1">
  <advance width="450"/>
  <unicode hex="005E"/>
  <outline>
    <contour>
      <point x="224" y="590" type="line"/>
      <point x="326" y="456" type="line" smooth="yes"/>
      <point x="336" y="444"/>
      <point x="347" y="440"/>
      <point x="364" y="440" type="curve" smooth="yes"/>
      <point x="374" y="440"/>
      <point x="379" y="446"/>
      <point x="379" y="451" type="curve" smooth="yes"/>
      <point x="379" y="455"/>
      <point x="377" y="459"/>
      <point x="374" y="465" type="curve" smooth="yes"/>
      <point x="259" y="617" type="line" smooth="yes"/>
      <point x="249" y="629"/>
      <point x="242" y="636"/>
      <point x="229" y="636" type="curve" smooth="yes"/>
      <point x="221" y="636" type="line" smooth="yes"/>
      <point x="209" y="636"/>
      <point x="201" y="629"/>
      <point x="192" y="617" type="curve" smooth="yes"/>
      <point x="77" y="465" type="line" smooth="yes"/>
      <point x="73" y="459"/>
      <point x="72" y="455"/>
      <point x="72" y="451" type="curve" smooth="yes"/>
      <point x="72" y="446"/>
      <point x="77" y="440"/>
      <point x="86" y="440" type="curve" smooth="yes"/>
      <point x="102" y="440"/>
      <point x="113" y="444"/>
      <point x="123" y="456" type="curve" smooth="yes"/>
    </contour>
  </outline>
</glyph>
<glyph name="underscore" format="1">
  <advance width="540"/>
  <unicode hex="005F"/>
  <outline>
    <contour>
      <point x="545" y="-144" type="line" smooth="yes"/>
      <point x="558" y="-144"/>
      <point x="569" y="-133"/>
      <point x="569" y="-121" type="curve" smooth="yes"/>
      <point x="569" y="-108"/>
      <point x="558" y="-98"/>
      <point x="545" y="-98" type="curve" smooth="yes"/>
      <point x="2" y="-98" type="line" smooth="yes"/>
      <point x="-11" y="-98"/>
      <point x="-22" y="-108"/>
      <point x="-22" y="-121" type="curve" smooth="yes"/>
      <point x="-22" y="-133"/>
      <point x="-11" y="-144"/>
      <point x="2" y="-144" type="curve"/>
    </contour>
  </outline>
</glyph>
<glyph name="grave" format="1">
  <advance width="450"/>
  <unicode hex="0060"/>
  <outline>
    <contour>
      <point x="269" y="533"/>
      <point x="276" y="536"/>
      <point x="276" y="543" type="curve" smooth="yes"/>
      <point x="276" y="546"/>
      <point x="274" y="551"/>
      <point x="272" y="554" type="curve" smooth="yes"/>
      <point x="217" y="636" type="line" smooth="yes"/>
      <point x="209" y="648"/>
      <point x="201" y="654"/>
      <point x="189" y="654" type="curve" smooth="yes"/>
      <point x="170" y="654"/>
      <point x="147" y="642"/>
      <point x="147" y="632" type="curve" smooth="yes"/>
      <point x="147" y="626"/>
      <point x="151" y="619"/>
      <point x="158" y="614" type="curve" smooth="yes"/>
      <point x="228" y="546" type="line" smooth="yes"/>
      <point x="240" y="535"/>
      <point x="248" y="533"/>
      <point x="262" y="533" type="curve" smooth="yes"/>
    </contour>
  </outline>
</glyph>
<glyph name="a" format="1">
  <advance width="557"/>
  <unicode hex="0061"/>
  <outline>
    <contour>
      <point x="417" y="443"/>
      <point x="406" y="433"/>
      <point x="405" y="420" type="curve"/>
      <point x="404" y="363" type="line"/>
      <point x="367" y="411"/>
      <point x="310" y="443"/>
      <point x="246" y="443" type="curve" smooth="yes"/>
      <point x="129" y="443"/>
      <point x="36" y="342"/>
      <point x="36" y="221" type="curve" smooth="yes"/>
      <point x="36" y="100"/>
      <point x="129" y="0"/>
      <point x="246" y="0" type="curve" smooth="yes"/>
      <point x="310" y="0"/>
      <point x="367" y="32"/>
      <point x="404" y="80" type="curve"/>
      <point x="405" y="23" type="line"/>
      <point x="406" y="10"/>
      <point x="417" y="0"/>
      <point x="429" y="0" type="curve" smooth="yes"/>
      <point x="444" y="0"/>
      <point x="455" y="12"/>
      <point x="455" y="25" type="curve"/>
      <point x="455" y="417" type="line"/>
      <point x="455" y="431"/>
      <point x="445" y="443"/>
      <point x="429" y="443" type="curve" smooth="yes"/>
    </contour>
    <contour>
      <point x="333" y="392"/>
      <point x="404" y="316"/>
      <point x="404" y="221" type="curve" smooth="yes"/>
      <point x="404" y="126"/>
      <point x="333" y="51"/>
      <point x="246" y="51" type="curve" smooth="yes"/>
      <point x="159" y="51"/>
      <point x="87" y="126"/>
      <point x="87" y="221" type="curve" smooth="yes"/>
      <point x="87" y="316"/>
      <point x="159" y="392"/>
      <point x="246" y="392" type="curve" smooth="yes"/>
    </contour>
  </outline>
</glyph>
<glyph name="b" format="1">
  <advance width="594"/>
  <unicode hex="0062"/>
  <outline>
    <contour>
      <point x="95" y="630"/>
      <point x="84" y="618"/>
      <point x="84" y="605" type="curve"/>
      <point x="84" y="26" type="line"/>
      <point x="84" y="12"/>
      <point x="95" y="0"/>
      <point x="110" y="0" type="curve" smooth="yes"/>
      <point x="123" y="0"/>
      <point x="135" y="11"/>
      <point x="136" y="23" type="curve" smooth="yes"/>
      <point x="136" y="78" type="line"/>
      <point x="174" y="31"/>
      <point x="232" y="0"/>
      <point x="298" y="0" type="curve" smooth="yes"/>
      <point x="417" y="0"/>
      <point x="512" y="100"/>
      <point x="512" y="221" type="curve" smooth="yes"/>
      <point x="512" y="343"/>
      <point x="417" y="443"/>
      <point x="298" y="443" type="curve" smooth="yes"/>
      <point x="232" y="443"/>
      <point x="174" y="411"/>
      <point x="136" y="364" type="curve"/>
      <point x="136" y="605" type="line" smooth="yes"/>
      <point x="136" y="618"/>
      <point x="124" y="630"/>
      <point x="110" y="630" type="curve" smooth="yes"/>
    </contour>
    <contour>
      <point x="388" y="390"/>
      <point x="460" y="314"/>
      <point x="460" y="221" type="curve" smooth="yes"/>
      <point x="460" y="128"/>
      <point x="388" y="52"/>
      <point x="298" y="52" type="curve" smooth="yes"/>
      <point x="207" y="52"/>
      <point x="136" y="126"/>
      <point x="136" y="227" type="curve" smooth="yes"/>
      <point x="139" y="317"/>
      <point x="211" y="390"/>
      <point x="298" y="390" type="curve" smooth="yes"/>
    </contour>
  </outline>
</glyph>
<glyph name="c" format="1">
  <advance width="514"/>
  <unicode hex="0063"/>
  <outline>
    <contour>
      <point x="154" y="442"/>
      <point x="52" y="345"/>
      <point x="52" y="221" type="curve"/>
      <point x="52" y="81"/>
      <point x="182" y="0"/>
      <point x="279" y="0" type="curve"/>
      <point x="332" y="0"/>
      <point x="382" y="18"/>
      <point x="419" y="47" type="curve"/>
      <point x="431" y="57"/>
      <point x="433" y="72"/>
      <point x="424" y="84" type="curve"/>
      <point x="415" y="94"/>
      <point x="400" y="96"/>
      <point x="389" y="88" type="curve"/>
      <point x="358" y="65"/>
      <point x="320" y="51"/>
      <point x="279" y="51" type="curve"/>
      <point x="181" y="51"/>
      <point x="104" y="127"/>
      <point x="104" y="221" type="curve"/>
      <point x="104" y="315"/>
      <point x="181" y="392"/>
      <point x="279" y="392" type="curve"/>
      <point x="320" y="392"/>
      <point x="358" y="378"/>
      <point x="389" y="354" type="curve"/>
      <point x="400" y="346"/>
      <point x="415" y="348"/>
      <point x="424" y="358" type="curve"/>
      <point x="433" y="370"/>
      <point x="431" y="386"/>
      <point x="420" y="393" type="curve"/>
      <point x="382" y="424"/>
      <point x="332" y="443"/>
      <point x="279" y="443" type="curve"/>
    </contour>
  </outline>
</glyph>
<glyph name="d" format="1">
  <advance width="594"/>
  <unicode hex="0064"/>
  <outline>
    <contour>
      <point x="442" y="630"/>
      <point x="430" y="618"/>
      <point x="430" y="605" type="curve" smooth="yes"/>
      <point x="430" y="364" type="line"/>
      <point x="392" y="411"/>
      <point x="334" y="443"/>
      <point x="268" y="443" type="curve" smooth="yes"/>
      <point x="149" y="443"/>
      <point x="54" y="343"/>
      <point x="54" y="221" type="curve" smooth="yes"/>
      <point x="54" y="100"/>
      <point x="149" y="0"/>
      <point x="268" y="0" type="curve" smooth="yes"/>
      <point x="333" y="0"/>
      <point x="392" y="31"/>
      <point x="429" y="77" type="curve"/>
      <point x="430" y="24" type="line"/>
      <point x="431" y="11"/>
      <point x="442" y="0"/>
      <point x="456" y="0" type="curve" smooth="yes"/>
      <point x="471" y="0"/>
      <point x="482" y="12"/>
      <point x="482" y="26" type="curve"/>
      <point x="482" y="605" type="line"/>
      <point x="482" y="618"/>
      <point x="471" y="630"/>
      <point x="456" y="630" type="curve" smooth="yes"/>
    </contour>
    <contour>
      <point x="355" y="390"/>
      <point x="427" y="318"/>
      <point x="430" y="227" type="curve"/>
      <point x="427" y="122"/>
      <point x="358" y="52"/>
      <point x="268" y="52" type="curve" smooth="yes"/>
      <point x="179" y="52"/>
      <point x="106" y="128"/>
      <point x="106" y="221" type="curve" smooth="yes"/>
      <point x="106" y="314"/>
      <point x="179" y="390"/>
      <point x="268" y="390" type="curve" smooth="yes"/>
    </contour>
  </outline>
</glyph>
<glyph name="e" format="1">
  <advance width="480"/>
  <unicode hex="0065"/>
  <outline>
    <contour>
      <point x="79" y="238" type="line" name="hr00"/>
      <point x="90.7487" y="313.527"/>
      <point x="152.312" y="377"/>
      <point x="237" y="377" type="curve" smooth="yes"/>
      <point x="323.734" y="377"/>
      <point x="384.988" y="315.217"/>
      <point x="397" y="238" type="curve"/>
    </contour>
    <contour>
      <point x="383" y="140" type="line"/>
      <point x="363.034" y="84.0964"/>
      <point x="308.8" y="44"/>
      <point x="237" y="44" type="curve" smooth="yes"/>
      <point x="198" y="44"/>
      <point x="162" y="59"/>
      <point x="129" y="88" type="curve" smooth="yes"/>
      <point x="96" y="118"/>
      <point x="80" y="153"/>
      <point x="80" y="192" type="curve"/>
      <point x="449" y="192" type="line"/>
      <point x="450" y="206" type="line" smooth="yes"/>
      <point x="453" y="242"/>
      <point x="439" y="285"/>
      <point x="418" y="320" type="curve" smooth="yes"/>
      <point x="401" y="348"/>
      <point x="379" y="372"/>
      <point x="350" y="391" type="curve" smooth="yes"/>
      <point x="316" y="412"/>
      <point x="278" y="423"/>
      <point x="237" y="423" type="curve" smooth="yes"/>
      <point x="179" y="423"/>
      <point x="129" y="402"/>
      <point x="88" y="360" type="curve" smooth="yes"/>
      <point x="47" y="318"/>
      <point x="27" y="268"/>
      <point x="27" y="210" type="curve" smooth="yes"/>
      <point x="27" y="151"/>
      <point x="48" y="101"/>
      <point x="89" y="60" type="curve" smooth="yes"/>
      <point x="130" y="19"/>
      <point x="180" y="-1"/>
      <point x="237" y="-1" type="curve" smooth="yes"/>
      <point x="335.866" y="-1"/>
      <point x="411.856" y="63.8532"/>
      <point x="436" y="140" type="curve"/>
    </contour>
  </outline>
</glyph>
<glyph name="f" format="1">
  <advance width="326"/>
  <unicode hex="0066"/>
  <outline>
    <contour>
      <point x="221" y="629"/>
      <point x="186" y="620"/>
      <point x="165" y="593" type="curve" smooth="yes"/>
      <point x="145" y="569"/>
      <point x="139" y="536"/>
      <point x="138" y="492" type="curve"/>
      <point x="138" y="451" type="line"/>
      <point x="85" y="451" type="line"/>
      <point x="70" y="451"/>
      <point x="59" y="439"/>
      <point x="59" y="426" type="curve" smooth="yes"/>
      <point x="59" y="410"/>
      <point x="70" y="399"/>
      <point x="85" y="399" type="curve"/>
      <point x="138" y="399" type="line"/>
      <point x="138" y="25" type="line"/>
      <point x="138" y="11"/>
      <point x="149" y="-1"/>
      <point x="164" y="-1" type="curve" smooth="yes"/>
      <point x="178" y="-1"/>
      <point x="190" y="11"/>
      <point x="190" y="25" type="curve"/>
      <point x="190" y="399" type="line"/>
      <point x="247" y="399" type="line"/>
      <point x="262" y="399"/>
      <point x="274" y="410"/>
      <point x="274" y="426" type="curve" smooth="yes"/>
      <point x="274" y="439"/>
      <point x="262" y="451"/>
      <point x="247" y="451" type="curve"/>
      <point x="190" y="451" type="line"/>
      <point x="190" y="492" type="line"/>
      <point x="190" y="533"/>
      <point x="198" y="553"/>
      <point x="207" y="562" type="curve" smooth="yes"/>
      <point x="215" y="572"/>
      <point x="230" y="577"/>
      <point x="258" y="577" type="curve" smooth="yes"/>
      <point x="273" y="577"/>
      <point x="284" y="589"/>
      <point x="284" y="603" type="curve" smooth="yes"/>
      <point x="284" y="617"/>
      <point x="273" y="629"/>
      <point x="258" y="629" type="curve" smooth="yes"/>
    </contour>
  </outline>
</glyph>
<glyph name="g" format="1">
  <advance width="594"/>
  <unicode hex="0067"/>
  <outline>
    <contour>
      <point x="433" y="443"/>
      <point x="421" y="432"/>
      <point x="420" y="419" type="curve"/>
      <point x="420" y="364" type="line"/>
      <point x="384" y="411"/>
      <point x="327" y="443"/>
      <point x="263" y="443" type="curve" smooth="yes"/>
      <point x="146" y="443"/>
      <point x="54" y="342"/>
      <point x="54" y="222" type="curve" smooth="yes"/>
      <point x="54" y="102"/>
      <point x="146" y="2"/>
      <point x="263" y="2" type="curve" smooth="yes"/>
      <point x="329" y="2"/>
      <point x="386" y="33"/>
      <point x="423" y="83" type="curve"/>
      <point x="420" y="39" type="line"/>
      <point x="420" y="-49"/>
      <point x="351" y="-119"/>
      <point x="263" y="-119" type="curve" smooth="yes"/>
      <point x="237" y="-119"/>
      <point x="215" y="-113"/>
      <point x="194" y="-104" type="curve" smooth="yes"/>
      <point x="181" y="-96"/>
      <point x="166" y="-102"/>
      <point x="159" y="-115" type="curve" smooth="yes"/>
      <point x="153" y="-127"/>
      <point x="159" y="-142"/>
      <point x="170" y="-149" type="curve" smooth="yes"/>
      <point x="199" y="-162"/>
      <point x="230" y="-170"/>
      <point x="263" y="-170" type="curve" smooth="yes"/>
      <point x="378" y="-170"/>
      <point x="472" y="-77"/>
      <point x="472" y="38" type="curve"/>
      <point x="472" y="417" type="line"/>
      <point x="472" y="431"/>
      <point x="460" y="443"/>
      <point x="446" y="443" type="curve" smooth="yes"/>
    </contour>
    <contour>
      <point x="350" y="392"/>
      <point x="420" y="317"/>
      <point x="420" y="222" type="curve" smooth="yes"/>
      <point x="420" y="128"/>
      <point x="350" y="52"/>
      <point x="263" y="52" type="curve" smooth="yes"/>
      <point x="176" y="52"/>
      <point x="105" y="128"/>
      <point x="105" y="222" type="curve" smooth="yes"/>
      <point x="105" y="316"/>
      <point x="176" y="392"/>
      <point x="263" y="392" type="curve" smooth="yes"/>
    </contour>
  </outline>
</glyph>
<glyph name="h" format="1">
  <advance width="552"/>
  <unicode hex="0068"/>
  <outline>
    <contour>
      <point x="95" y="630"/>
      <point x="84" y="618"/>
      <point x="84" y="604" type="curve"/>
      <point x="84" y="26" type="line"/>
      <point x="84" y="12"/>
      <point x="96" y="-1"/>
      <point x="111" y="-1" type="curve" smooth="yes"/>
      <point x="124" y="-1"/>
      <point x="136" y="9"/>
      <point x="136" y="26" type="curve"/>
      <point x="136" y="266" type="line" smooth="yes"/>
      <point x="136" y="339"/>
      <point x="196" y="390"/>
      <point x="269" y="390" type="curve" smooth="yes"/>
      <point x="343" y="390"/>
      <point x="403" y="339"/>
      <point x="403" y="266" type="curve" smooth="yes"/>
      <point x="403" y="26" type="line"/>
      <point x="403" y="12"/>
      <point x="415" y="0"/>
      <point x="429" y="0" type="curve" smooth="yes"/>
      <point x="444" y="0"/>
      <point x="455" y="12"/>
      <point x="455" y="26" type="curve" smooth="yes"/>
      <point x="455" y="266" type="line" smooth="yes"/>
      <point x="455" y="368"/>
      <point x="372" y="443"/>
      <point x="269" y="443" type="curve" smooth="yes"/>
      <point x="217" y="443"/>
      <point x="169" y="419"/>
      <point x="136" y="383" type="curve"/>
      <point x="136" y="604" type="line" smooth="yes"/>
      <point x="136" y="618"/>
      <point x="124" y="630"/>
      <point x="110" y="630" type="curve" smooth="yes"/>
    </contour>
  </outline>
</glyph>
<glyph name="i" format="1">
  <advance width="253"/>
  <unicode hex="0069"/>
  <outline>
    <contour>
      <point x="96" y="442"/>
      <point x="85" y="431"/>
      <point x="85" y="417" type="curve"/>
      <point x="85" y="26" type="line"/>
      <point x="85" y="12"/>
      <point x="96" y="0"/>
      <point x="111" y="0" type="curve"/>
      <point x="125" y="0"/>
      <point x="137" y="12"/>
      <point x="137" y="26" type="curve"/>
      <point x="137" y="417" type="line"/>
      <point x="137" y="431"/>
      <point x="125" y="442"/>
      <point x="111" y="442" type="curve"/>
    </contour>
    <contour>
      <point x="96" y="592"/>
      <point x="85" y="581"/>
      <point x="85" y="566" type="curve"/>
      <point x="85" y="545" type="line"/>
      <point x="85" y="531"/>
      <point x="96" y="518"/>
      <point x="111" y="518" type="curve"/>
      <point x="125" y="518"/>
      <point x="137" y="531"/>
      <point x="137" y="545" type="curve"/>
      <point x="137" y="566" type="line"/>
      <point x="137" y="581"/>
      <point x="125" y="592"/>
      <point x="111" y="592" type="curve"/>
    </contour>
  </outline>
</glyph>
<glyph name="j" format="1">
  <advance width="224"/>
  <unicode hex="006A"/>
  <outline>
    <contour>
      <point x="61" y="443"/>
      <point x="49" y="431"/>
      <point x="49" y="416" type="curve"/>
      <point x="49" y="-90" type="line"/>
      <point x="49" y="-105"/>
      <point x="36" y="-119"/>
      <point x="22" y="-119" type="curve"/>
      <point x="6" y="-119"/>
      <point x="-5" y="-131"/>
      <point x="-5" y="-145" type="curve"/>
      <point x="-5" y="-159"/>
      <point x="6" y="-170"/>
      <point x="22" y="-170" type="curve"/>
      <point x="66" y="-170"/>
      <point x="101" y="-135"/>
      <point x="101" y="-90" type="curve"/>
      <point x="101" y="416" type="line"/>
      <point x="101" y="431"/>
      <point x="89" y="443"/>
      <point x="76" y="443" type="curve"/>
    </contour>
    <contour>
      <point x="64" y="591"/>
      <point x="50" y="581"/>
      <point x="50" y="566" type="curve"/>
      <point x="50" y="545" type="line"/>
      <point x="50" y="532"/>
      <point x="64" y="519"/>
      <point x="77" y="519" type="curve"/>
      <point x="91" y="519"/>
      <point x="103" y="532"/>
      <point x="103" y="545" type="curve"/>
      <point x="103" y="566" type="line"/>
      <point x="103" y="581"/>
      <point x="91" y="591"/>
      <point x="77" y="591" type="curve"/>
    </contour>
  </outline>
</glyph>
<glyph name="k" format="1">
  <advance width="504"/>
  <unicode hex="006B"/>
  <outline>
    <contour>
      <point x="95" y="630"/>
      <point x="84" y="618"/>
      <point x="84" y="604" type="curve" smooth="yes"/>
      <point x="84" y="26" type="line"/>
      <point x="84" y="12"/>
      <point x="95" y="0"/>
      <point x="110" y="0" type="curve" smooth="yes"/>
      <point x="124" y="0"/>
      <point x="136" y="12"/>
      <point x="136" y="26" type="curve" smooth="yes"/>
      <point x="136" y="123" type="line"/>
      <point x="221" y="207" type="line"/>
      <point x="383" y="10" type="line"/>
      <point x="388" y="3"/>
      <point x="397" y="0"/>
      <point x="404" y="0" type="curve" smooth="yes"/>
      <point x="410" y="0"/>
      <point x="416" y="1"/>
      <point x="421" y="5" type="curve" smooth="yes"/>
      <point x="432" y="16"/>
      <point x="433" y="32"/>
      <point x="424" y="43" type="curve" smooth="yes"/>
      <point x="257" y="245" type="line"/>
      <point x="422" y="410" type="line" smooth="yes"/>
      <point x="433" y="420"/>
      <point x="433" y="437"/>
      <point x="422" y="446" type="curve" smooth="yes"/>
      <point x="411" y="456"/>
      <point x="396" y="456"/>
      <point x="386" y="446" type="curve" smooth="yes"/>
      <point x="136" y="197" type="line"/>
      <point x="136" y="604" type="line" smooth="yes"/>
      <point x="136" y="618"/>
      <point x="124" y="630"/>
      <point x="110" y="630" type="curve" smooth="yes"/>
    </contour>
  </outline>
</glyph>
<glyph name="l" format="1">
  <advance width="224"/>
  <unicode hex="006C"/>
  <outline>
    <contour>
      <point x="102" y="630"/>
      <point x="90" y="618"/>
      <point x="90" y="604" type="curve"/>
      <point x="90" y="26" type="line"/>
      <point x="90" y="12"/>
      <point x="102" y="0"/>
      <point x="116" y="0" type="curve"/>
      <point x="131" y="0"/>
      <point x="142" y="12"/>
      <point x="142" y="26" type="curve"/>
      <point x="142" y="604" type="line"/>
      <point x="142" y="618"/>
      <point x="131" y="630"/>
      <point x="116" y="630" type="curve"/>
    </contour>
  </outline>
</glyph>
<glyph name="m" format="1">
  <advance width="856"/>
  <unicode hex="006D"/>
  <outline>
    <contour>
      <point x="509" y="442"/>
      <point x="450" y="406"/>
      <point x="419" y="353" type="curve"/>
      <point x="387" y="406"/>
      <point x="330" y="442"/>
      <point x="264" y="442" type="curve" smooth="yes"/>
      <point x="212" y="442"/>
      <point x="166" y="419"/>
      <point x="133" y="384" type="curve"/>
      <point x="133" y="420" type="line" smooth="yes"/>
      <point x="131" y="433"/>
      <point x="122" y="442"/>
      <point x="109" y="442" type="curve" smooth="yes"/>
      <point x="95" y="442"/>
      <point x="84" y="431"/>
      <point x="84" y="417" type="curve"/>
      <point x="84" y="25" type="line"/>
      <point x="84" y="11"/>
      <point x="92" y="1"/>
      <point x="109" y="0" type="curve"/>
      <point x="126" y="0"/>
      <point x="134" y="13"/>
      <point x="134" y="25" type="curve" smooth="yes"/>
      <point x="134" y="261" type="line" smooth="yes"/>
      <point x="134" y="332"/>
      <point x="192" y="392"/>
      <point x="264" y="392" type="curve" smooth="yes"/>
      <point x="335" y="392"/>
      <point x="392" y="332"/>
      <point x="392" y="261" type="curve" smooth="yes"/>
      <point x="392" y="25" type="line"/>
      <point x="392" y="9"/>
      <point x="401" y="0"/>
      <point x="419" y="0" type="curve"/>
      <point x="436" y="0"/>
      <point x="445" y="10"/>
      <point x="445" y="25" type="curve"/>
      <point x="445" y="261" type="line" smooth="yes"/>
      <point x="445" y="332"/>
      <point x="503" y="392"/>
      <point x="574" y="392" type="curve" smooth="yes"/>
      <point x="646" y="392"/>
      <point x="703" y="332"/>
      <point x="704" y="261" type="curve"/>
      <point x="704" y="25" type="line"/>
      <point x="704" y="12"/>
      <point x="716" y="0"/>
      <point x="729" y="0" type="curve" smooth="yes"/>
      <point x="743" y="0"/>
      <point x="754" y="12"/>
      <point x="754" y="25" type="curve" smooth="yes"/>
      <point x="754" y="261" type="line" smooth="yes"/>
      <point x="754" y="361"/>
      <point x="674" y="442"/>
      <point x="574" y="442" type="curve" smooth="yes"/>
    </contour>
  </outline>
</glyph>
<glyph name="n" format="1">
  <advance width="552"/>
  <unicode hex="006E"/>
  <outline>
    <contour>
      <point x="212" y="442"/>
      <point x="165" y="419"/>
      <point x="133" y="383" type="curve"/>
      <point x="133" y="420" type="line" smooth="yes"/>
      <point x="131" y="432"/>
      <point x="122" y="442"/>
      <point x="109" y="442" type="curve" smooth="yes"/>
      <point x="95" y="442"/>
      <point x="84" y="430"/>
      <point x="84" y="416" type="curve"/>
      <point x="84" y="25" type="line"/>
      <point x="84" y="13"/>
      <point x="92" y="2"/>
      <point x="109" y="0" type="curve" smooth="yes"/>
      <point x="126" y="0"/>
      <point x="134" y="12"/>
      <point x="134" y="25" type="curve"/>
      <point x="134" y="261" type="line"/>
      <point x="136" y="332"/>
      <point x="193" y="391"/>
      <point x="264" y="391" type="curve" smooth="yes"/>
      <point x="336" y="391"/>
      <point x="393" y="332"/>
      <point x="393" y="261" type="curve" smooth="yes"/>
      <point x="393" y="25" type="line"/>
      <point x="393" y="11"/>
      <point x="405" y="0"/>
      <point x="419" y="0" type="curve" smooth="yes"/>
      <point x="433" y="0"/>
      <point x="445" y="11"/>
      <point x="445" y="25" type="curve" smooth="yes"/>
      <point x="445" y="261" type="line" smooth="yes"/>
      <point x="445" y="360"/>
      <point x="364" y="442"/>
      <point x="264" y="442" type="curve" smooth="yes"/>
    </contour>
  </outline>
</glyph>
<glyph name="o" format="1">
  <advance width="563"/>
  <unicode hex="006F"/>
  <outline>
    <contour>
      <point x="158" y="443"/>
      <point x="63" y="341"/>
      <point x="63" y="221" type="curve"/>
      <point x="63" y="101"/>
      <point x="158" y="0"/>
      <point x="273" y="0" type="curve"/>
      <point x="391" y="0"/>
      <point x="482" y="99"/>
      <point x="482" y="221" type="curve"/>
      <point x="482" y="340"/>
      <point x="390" y="443"/>
      <point x="273" y="443" type="curve"/>
    </contour>
    <contour>
      <point x="360" y="392"/>
      <point x="431" y="315"/>
      <point x="431" y="221" type="curve"/>
      <point x="431" y="127"/>
      <point x="360" y="51"/>
      <point x="273" y="51" type="curve"/>
      <point x="185" y="51"/>
      <point x="114" y="126"/>
      <point x="114" y="221" type="curve"/>
      <point x="114" y="316"/>
      <point x="185" y="392"/>
      <point x="273" y="392" type="curve"/>
    </contour>
  </outline>
</glyph>
<glyph name="p" format="1">
  <advance width="594"/>
  <unicode hex="0070"/>
  <outline>
    <contour>
      <point x="231" y="443"/>
      <point x="173" y="411"/>
      <point x="136" y="365" type="curve"/>
      <point x="136" y="419" type="line" smooth="yes"/>
      <point x="135" y="432"/>
      <point x="123" y="443"/>
      <point x="109" y="443" type="curve" smooth="yes"/>
      <point x="95" y="443"/>
      <point x="84" y="431"/>
      <point x="84" y="417" type="curve"/>
      <point x="84" y="-157" type="line"/>
      <point x="84" y="-170"/>
      <point x="95" y="-182"/>
      <point x="109" y="-182" type="curve" smooth="yes"/>
      <point x="124" y="-182"/>
      <point x="136" y="-170"/>
      <point x="136" y="-157" type="curve" smooth="yes"/>
      <point x="136" y="81" type="line"/>
      <point x="173" y="33"/>
      <point x="231" y="3"/>
      <point x="296" y="3" type="curve" smooth="yes"/>
      <point x="416" y="3"/>
      <point x="510" y="103"/>
      <point x="510" y="222" type="curve" smooth="yes"/>
      <point x="510" y="344"/>
      <point x="416" y="443"/>
      <point x="296" y="443" type="curve" smooth="yes"/>
    </contour>
    <contour>
      <point x="386" y="390"/>
      <point x="458" y="316"/>
      <point x="458" y="222" type="curve" smooth="yes"/>
      <point x="458" y="130"/>
      <point x="386" y="54"/>
      <point x="296" y="53" type="curve"/>
      <point x="209" y="54"/>
      <point x="136" y="130"/>
      <point x="136" y="222" type="curve"/>
      <point x="139" y="320"/>
      <point x="209" y="390"/>
      <point x="296" y="390" type="curve" smooth="yes"/>
    </contour>
  </outline>
</glyph>
<glyph name="q" format="1">
  <advance width="504"/>
  <unicode hex="0071"/>
  <outline>
    <contour>
      <point x="244" y="44" type="curve" smooth="yes"/>
      <point x="147.158" y="44"/>
      <point x="77" y="113.471"/>
      <point x="77" y="209" type="curve" smooth="yes" name="hr00"/>
      <point x="77" y="259"/>
      <point x="93" y="299"/>
      <point x="125" y="330" type="curve" smooth="yes"/>
      <point x="158" y="361"/>
      <point x="197" y="377"/>
      <point x="244" y="377" type="curve" smooth="yes"/>
      <point x="333.405" y="377"/>
      <point x="406" y="299.281"/>
      <point x="406" y="210" type="curve" smooth="yes"/>
      <point x="406" y="118.762"/>
      <point x="335.459" y="44"/>
    </contour>
    <contour>
      <point x="244" y="-1" type="curve" smooth="yes"/>
      <point x="317.551" y="-1"/>
      <point x="370.453" y="31.9544"/>
      <point x="403" y="80" type="curve"/>
      <point x="403" y="-134" type="line"/>
      <point x="455" y="-134" type="line"/>
      <point x="455" y="413" type="line"/>
      <point x="403" y="413" type="line"/>
      <point x="402" y="340" type="line"/>
      <point x="370.088" y="389.463"/>
      <point x="319.103" y="423"/>
      <point x="244" y="423" type="curve" smooth="yes"/>
      <point x="179" y="423"/>
      <point x="128" y="400"/>
      <point x="86" y="357" type="curve" smooth="yes"/>
      <point x="47" y="316"/>
      <point x="26" y="268"/>
      <point x="26" y="211" type="curve" smooth="yes"/>
      <point x="26" y="152"/>
      <point x="46" y="102"/>
      <point x="87" y="61" type="curve" smooth="yes"/>
      <point x="128" y="20"/>
      <point x="181" y="-1"/>
    </contour>
  </outline>
</glyph>
<glyph name="r" format="1">
  <advance width="395"/>
  <unicode hex="0072"/>
  <outline>
    <contour>
      <point x="231" y="442"/>
      <point x="176" y="392"/>
      <point x="143" y="345" type="curve" smooth="yes"/>
      <point x="140" y="341"/>
      <point x="138" y="337"/>
      <point x="135" y="332" type="curve"/>
      <point x="135" y="416" type="line" smooth="yes"/>
      <point x="135" y="431"/>
      <point x="123" y="442"/>
      <point x="110" y="442" type="curve" smooth="yes"/>
      <point x="95" y="442"/>
      <point x="84" y="431"/>
      <point x="84" y="416" type="curve" smooth="yes"/>
      <point x="84" y="25" type="line"/>
      <point x="84" y="11"/>
      <point x="95" y="0"/>
      <point x="110" y="0" type="curve" smooth="yes"/>
      <point x="123" y="0"/>
      <point x="135" y="11"/>
      <point x="135" y="25" type="curve" smooth="yes"/>
      <point x="135" y="216" type="line" smooth="yes"/>
      <point x="136" y="219"/>
      <point x="138" y="226"/>
      <point x="142" y="233" type="curve" smooth="yes"/>
      <point x="149" y="251"/>
      <point x="166" y="292"/>
      <point x="194" y="327" type="curve" smooth="yes"/>
      <point x="221" y="362"/>
      <point x="258" y="391"/>
      <point x="311" y="391" type="curve" smooth="yes"/>
      <point x="324" y="391"/>
      <point x="336" y="402"/>
      <point x="336" y="416" type="curve" smooth="yes"/>
      <point x="336" y="431"/>
      <point x="324" y="442"/>
      <point x="311" y="442" type="curve" smooth="yes"/>
    </contour>
  </outline>
</glyph>
<glyph name="s" format="1">
  <advance width="443"/>
  <unicode hex="0073"/>
  <outline>
    <contour>
      <point x="138" y="443"/>
      <point x="61" y="400"/>
      <point x="61" y="324" type="curve"/>
      <point x="61" y="252"/>
      <point x="126" y="223"/>
      <point x="212" y="207" type="curve"/>
      <point x="278" y="195"/>
      <point x="329" y="175"/>
      <point x="331" y="127" type="curve"/>
      <point x="331" y="85"/>
      <point x="277" y="51"/>
      <point x="221" y="51" type="curve"/>
      <point x="167" y="51"/>
      <point x="120" y="78"/>
      <point x="91" y="101" type="curve"/>
      <point x="79" y="110"/>
      <point x="63" y="108"/>
      <point x="55" y="97" type="curve"/>
      <point x="46" y="86"/>
      <point x="47" y="72"/>
      <point x="58" y="63" type="curve"/>
      <point x="94" y="34"/>
      <point x="149" y="1"/>
      <point x="221" y="0" type="curve"/>
      <point x="302" y="0"/>
      <point x="383" y="52"/>
      <point x="383" y="127" type="curve"/>
      <point x="383" y="208"/>
      <point x="305" y="242"/>
      <point x="223" y="255" type="curve"/>
      <point x="164" y="265"/>
      <point x="113" y="284"/>
      <point x="113" y="324" type="curve"/>
      <point x="113" y="366"/>
      <point x="163" y="393"/>
      <point x="219" y="393" type="curve"/>
      <point x="259" y="393"/>
      <point x="291" y="373"/>
      <point x="322" y="351" type="curve"/>
      <point x="335" y="344"/>
      <point x="350" y="347"/>
      <point x="358" y="358" type="curve"/>
      <point x="365" y="370"/>
      <point x="362" y="386"/>
      <point x="350" y="394" type="curve"/>
      <point x="317" y="416"/>
      <point x="276" y="443"/>
      <point x="219" y="443" type="curve"/>
    </contour>
  </outline>
</glyph>
<glyph name="t" format="1">
  <advance width="360"/>
  <unicode hex="0074"/>
  <outline>
    <contour>
      <point x="127" y="627"/>
      <point x="114" y="615"/>
      <point x="114" y="601" type="curve"/>
      <point x="114" y="443" type="line"/>
      <point x="64" y="443" type="line"/>
      <point x="41" y="443"/>
      <point x="38" y="430"/>
      <point x="38" y="417" type="curve" smooth="yes"/>
      <point x="38" y="403"/>
      <point x="41" y="391"/>
      <point x="64" y="391" type="curve"/>
      <point x="114" y="391" type="line"/>
      <point x="114" y="80" type="line"/>
      <point x="114" y="34"/>
      <point x="149" y="0"/>
      <point x="195" y="0" type="curve" smooth="yes"/>
      <point x="208" y="0"/>
      <point x="221" y="13"/>
      <point x="221" y="26" type="curve" smooth="yes"/>
      <point x="221" y="40"/>
      <point x="210" y="52"/>
      <point x="196" y="52" type="curve" smooth="yes"/>
      <point x="186" y="52"/>
      <point x="167" y="62"/>
      <point x="167" y="82" type="curve"/>
      <point x="167" y="391" type="line"/>
      <point x="219" y="391" type="line"/>
      <point x="232" y="391"/>
      <point x="245" y="403"/>
      <point x="245" y="417" type="curve" smooth="yes"/>
      <point x="245" y="430"/>
      <point x="232" y="443"/>
      <point x="219" y="443" type="curve"/>
      <point x="167" y="443" type="line"/>
      <point x="167" y="601" type="line"/>
      <point x="167" y="615"/>
      <point x="154" y="627"/>
      <point x="140" y="627" type="curve" smooth="yes"/>
    </contour>
  </outline>
</glyph>
<glyph name="u" format="1">
  <advance width="552"/>
  <unicode hex="0075"/>
  <outline>
    <contour>
      <point x="397" y="443"/>
      <point x="384" y="432"/>
      <point x="384" y="418" type="curve"/>
      <point x="384" y="181" type="line"/>
      <point x="384" y="109"/>
      <point x="327" y="52"/>
      <point x="255" y="51" type="curve"/>
      <point x="183" y="52"/>
      <point x="126" y="109"/>
      <point x="126" y="181" type="curve"/>
      <point x="126" y="418" type="line"/>
      <point x="126" y="432"/>
      <point x="114" y="443"/>
      <point x="100" y="443" type="curve"/>
      <point x="86" y="443"/>
      <point x="75" y="432"/>
      <point x="75" y="418" type="curve"/>
      <point x="75" y="181" type="line"/>
      <point x="75" y="82"/>
      <point x="155" y="0"/>
      <point x="255" y="0" type="curve"/>
      <point x="356" y="0"/>
      <point x="437" y="82"/>
      <point x="437" y="181" type="curve"/>
      <point x="437" y="418" type="line"/>
      <point x="437" y="432"/>
      <point x="425" y="443"/>
      <point x="410" y="443" type="curve"/>
    </contour>
  </outline>
</glyph>
<glyph name="v" format="1">
  <advance width="524"/>
  <unicode hex="0076"/>
  <outline>
    <contour>
      <point x="400" y="442"/>
      <point x="384" y="436"/>
      <point x="379" y="422" type="curve"/>
      <point x="239" y="90" type="line"/>
      <point x="99" y="422" type="line"/>
      <point x="94" y="436"/>
      <point x="78" y="442"/>
      <point x="66" y="437" type="curve" smooth="yes"/>
      <point x="53" y="430"/>
      <point x="48" y="416"/>
      <point x="53" y="403" type="curve" smooth="yes"/>
      <point x="215" y="16" type="line" smooth="yes"/>
      <point x="219" y="8"/>
      <point x="226" y="0"/>
      <point x="239" y="0" type="curve" smooth="yes"/>
      <point x="253" y="0"/>
      <point x="258" y="7"/>
      <point x="263" y="19" type="curve" smooth="yes"/>
      <point x="425" y="403" type="line" smooth="yes"/>
      <point x="430" y="416"/>
      <point x="426" y="430"/>
      <point x="412" y="437" type="curve" smooth="yes"/>
    </contour>
  </outline>
</glyph>
<glyph name="w" format="1">
  <advance width="775"/>
  <unicode hex="0077"/>
  <outline>
    <contour>
      <point x="646" y="442"/>
      <point x="630" y="436"/>
      <point x="625" y="422" type="curve" smooth="yes"/>
      <point x="485" y="91" type="line"/>
      <point x="389" y="319" type="line" smooth="yes"/>
      <point x="385" y="329"/>
      <point x="374" y="335"/>
      <point x="365" y="335" type="curve" smooth="yes"/>
      <point x="355" y="335"/>
      <point x="344" y="329"/>
      <point x="340" y="319" type="curve" smooth="yes"/>
      <point x="244" y="91" type="line"/>
      <point x="104" y="422" type="line"/>
      <point x="99" y="436"/>
      <point x="83" y="442"/>
      <point x="71" y="437" type="curve" smooth="yes"/>
      <point x="59" y="431"/>
      <point x="52" y="416"/>
      <point x="58" y="403" type="curve" smooth="yes"/>
      <point x="221" y="16" type="line" smooth="yes"/>
      <point x="226" y="5"/>
      <point x="235" y="0"/>
      <point x="245" y="0" type="curve" smooth="yes"/>
      <point x="252" y="0"/>
      <point x="263" y="5"/>
      <point x="268" y="17" type="curve" smooth="yes"/>
      <point x="365" y="248" type="line"/>
      <point x="461" y="16" type="line"/>
      <point x="466" y="4"/>
      <point x="478" y="0"/>
      <point x="487" y="0" type="curve" smooth="yes"/>
      <point x="497" y="0"/>
      <point x="505" y="7"/>
      <point x="509" y="17" type="curve" smooth="yes"/>
      <point x="671" y="403" type="line" smooth="yes"/>
      <point x="677" y="416"/>
      <point x="671" y="431"/>
      <point x="658" y="437" type="curve" smooth="yes"/>
    </contour>
  </outline>
</glyph>
<glyph name="x" format="1">
  <advance width="513"/>
  <unicode hex="0078"/>
  <outline>
    <contour>
      <point x="376" y="443"/>
      <point x="361" y="440"/>
      <point x="352" y="428" type="curve" smooth="yes"/>
      <point x="230" y="263" type="line"/>
      <point x="108" y="428" type="line"/>
      <point x="101" y="440"/>
      <point x="84" y="443"/>
      <point x="73" y="435" type="curve" smooth="yes"/>
      <point x="62" y="427"/>
      <point x="60" y="411"/>
      <point x="68" y="399" type="curve"/>
      <point x="199" y="220" type="line"/>
      <point x="68" y="41" type="line"/>
      <point x="60" y="29"/>
      <point x="62" y="14"/>
      <point x="73" y="5" type="curve" smooth="yes"/>
      <point x="78" y="2"/>
      <point x="84" y="0"/>
      <point x="88" y="0" type="curve" smooth="yes"/>
      <point x="95" y="0"/>
      <point x="104" y="4"/>
      <point x="108" y="11" type="curve"/>
      <point x="230" y="176" type="line"/>
      <point x="352" y="11" type="line"/>
      <point x="356" y="4"/>
      <point x="365" y="0"/>
      <point x="374" y="0" type="curve" smooth="yes"/>
      <point x="378" y="0"/>
      <point x="383" y="2"/>
      <point x="387" y="5" type="curve" smooth="yes"/>
      <point x="399" y="14"/>
      <point x="401" y="29"/>
      <point x="393" y="41" type="curve"/>
      <point x="262" y="220" type="line"/>
      <point x="393" y="399" type="line"/>
      <point x="401" y="411"/>
      <point x="399" y="427"/>
      <point x="387" y="435" type="curve" smooth="yes"/>
    </contour>
  </outline>
</glyph>
<glyph name="y" format="1">
  <advance width="529"/>
  <unicode hex="0079"/>
  <outline>
    <contour>
      <point x="366" y="443"/>
      <point x="356" y="433"/>
      <point x="356" y="418" type="curve" smooth="yes"/>
      <point x="356" y="183" type="line"/>
      <point x="356" y="110"/>
      <point x="299" y="53"/>
      <point x="227" y="53" type="curve" smooth="yes"/>
      <point x="156" y="53"/>
      <point x="98" y="110"/>
      <point x="98" y="183" type="curve" smooth="yes"/>
      <point x="98" y="418" type="line" smooth="yes"/>
      <point x="98" y="432"/>
      <point x="86" y="443"/>
      <point x="71" y="443" type="curve" smooth="yes"/>
      <point x="59" y="443"/>
      <point x="47" y="432"/>
      <point x="47" y="418" type="curve" smooth="yes"/>
      <point x="47" y="183" type="line"/>
      <point x="47" y="83"/>
      <point x="128" y="2"/>
      <point x="227" y="1" type="curve" smooth="yes"/>
      <point x="277" y="1"/>
      <point x="324" y="24"/>
      <point x="356" y="59" type="curve"/>
      <point x="356" y="33" type="line" smooth="yes"/>
      <point x="353" y="-51"/>
      <point x="284" y="-118"/>
      <point x="197" y="-118" type="curve" smooth="yes"/>
      <point x="173" y="-118"/>
      <point x="149" y="-113"/>
      <point x="128" y="-102" type="curve"/>
      <point x="116" y="-98"/>
      <point x="101" y="-102"/>
      <point x="95" y="-114" type="curve" smooth="yes"/>
      <point x="89" y="-126"/>
      <point x="94" y="-141"/>
      <point x="106" y="-149" type="curve"/>
      <point x="134" y="-161"/>
      <point x="165" y="-169"/>
      <point x="197" y="-169" type="curve" smooth="yes"/>
      <point x="314" y="-169"/>
      <point x="408" y="-77"/>
      <point x="408" y="40" type="curve"/>
      <point x="408" y="418" type="line"/>
      <point x="408" y="432"/>
      <point x="395" y="443"/>
      <point x="383" y="443" type="curve"/>
    </contour>
  </outline>
</glyph>
<glyph name="z" format="1">
  <advance width="499"/>
  <unicode hex="007A"/>
  <outline>
    <contour>
      <point x="80" y="439" type="line" smooth="yes"/>
      <point x="67" y="439"/>
      <point x="55" y="428"/>
      <point x="55" y="414" type="curve" smooth="yes"/>
      <point x="55" y="400"/>
      <point x="67" y="388"/>
      <point x="80" y="388" type="curve"/>
      <point x="314" y="388" type="line"/>
      <point x="62" y="43" type="line"/>
      <point x="58" y="40"/>
      <point x="55" y="32"/>
      <point x="55" y="24" type="curve"/>
      <point x="55" y="14"/>
      <point x="64" y="0"/>
      <point x="80" y="0" type="curve" smooth="yes"/>
      <point x="365" y="0" type="line" smooth="yes"/>
      <point x="378" y="0"/>
      <point x="390" y="11"/>
      <point x="390" y="25" type="curve" smooth="yes"/>
      <point x="390" y="41"/>
      <point x="378" y="51"/>
      <point x="365" y="51" type="curve" smooth="yes"/>
      <point x="130" y="51" type="line"/>
      <point x="381" y="395" type="line"/>
      <point x="385" y="401"/>
      <point x="387" y="407"/>
      <point x="387" y="413" type="curve" smooth="yes"/>
      <point x="387" y="427"/>
      <point x="379" y="439"/>
      <point x="362" y="439" type="curve"/>
    </contour>
  </outline>
</glyph>
<glyph name="braceleft" format="1">
  <advance width="432"/>
  <unicode hex="007B"/>
  <outline>
    <contour>
      <point x="213" y="610"/>
      <point x="184" y="554"/>
      <point x="184" y="462" type="curve" smooth="yes"/>
      <point x="184" y="392" type="line" smooth="yes"/>
      <point x="184" y="321"/>
      <point x="163" y="280"/>
      <point x="75" y="279" type="curve" smooth="yes"/>
      <point x="59" y="279"/>
      <point x="50" y="270"/>
      <point x="50" y="258" type="curve" smooth="yes"/>
      <point x="50" y="247"/>
      <point x="59" y="238"/>
      <point x="75" y="238" type="curve" smooth="yes"/>
      <point x="163" y="237"/>
      <point x="184" y="195"/>
      <point x="184" y="126" type="curve" smooth="yes"/>
      <point x="184" y="56" type="line" smooth="yes"/>
      <point x="184" y="-37"/>
      <point x="213" y="-94"/>
      <point x="364" y="-124" type="curve" smooth="yes"/>
      <point x="376" y="-127"/>
      <point x="387" y="-120"/>
      <point x="387" y="-107" type="curve" smooth="yes"/>
      <point x="387" y="-97"/>
      <point x="381" y="-91"/>
      <point x="374" y="-89" type="curve" smooth="yes"/>
      <point x="250" y="-56"/>
      <point x="236" y="-23"/>
      <point x="236" y="62" type="curve" smooth="yes"/>
      <point x="237" y="130" type="line" smooth="yes"/>
      <point x="237" y="208"/>
      <point x="203" y="239"/>
      <point x="143" y="258" type="curve"/>
      <point x="200" y="275"/>
      <point x="237" y="309"/>
      <point x="237" y="387" type="curve" smooth="yes"/>
      <point x="236" y="455" type="line" smooth="yes"/>
      <point x="236" y="539"/>
      <point x="250" y="572"/>
      <point x="374" y="606" type="curve" smooth="yes"/>
      <point x="381" y="608"/>
      <point x="387" y="614"/>
      <point x="387" y="624" type="curve" smooth="yes"/>
      <point x="387" y="636"/>
      <point x="376" y="644"/>
      <point x="364" y="641" type="curve" smooth="yes"/>
    </contour>
  </outline>
</glyph>
<glyph name="bar" format="1">
  <advance width="257"/>
  <unicode hex="007C"/>
  <outline>
    <contour>
      <point x="109" y="-95" type="line"/>
      <point x="109" y="-109"/>
      <point x="120" y="-119"/>
      <point x="132" y="-119" type="curve" smooth="yes"/>
      <point x="145" y="-119"/>
      <point x="156" y="-109"/>
      <point x="156" y="-95" type="curve" smooth="yes"/>
      <point x="156" y="698" type="line" smooth="yes"/>
      <point x="156" y="711"/>
      <point x="145" y="722"/>
      <point x="132" y="722" type="curve" smooth="yes"/>
      <point x="120" y="722"/>
      <point x="109" y="711"/>
      <point x="109" y="698" type="curve" smooth="yes"/>
    </contour>
  </outline>
</glyph>
<glyph name="braceright" format="1">
  <advance width="382"/>
  <unicode hex="007D"/>
  <outline>
    <contour>
      <point x="259" y="230" type="line"/>
      <point x="192.257" y="200.633"/>
      <point x="176" y="154.277"/>
      <point x="176" y="48" type="curve" smooth="yes"/>
      <point x="176" y="-63" type="line" smooth="yes"/>
      <point x="176" y="-144"/>
      <point x="154" y="-171"/>
      <point x="83" y="-166" type="curve"/>
      <point x="83" y="-202" type="line" name="hr00"/>
      <point x="187.018" y="-202"/>
      <point x="215" y="-169.565"/>
      <point x="215" y="-63" type="curve" smooth="yes"/>
      <point x="215" y="48" type="line" smooth="yes"/>
      <point x="215" y="148"/>
      <point x="236" y="186"/>
      <point x="300" y="201" type="curve"/>
      <point x="300" y="255" type="line"/>
      <point x="236" y="271"/>
      <point x="215" y="308"/>
      <point x="215" y="408" type="curve" smooth="yes"/>
      <point x="215" y="520" type="line" smooth="yes"/>
      <point x="215" y="625.067"/>
      <point x="186.081" y="659"/>
      <point x="83" y="659" type="curve"/>
      <point x="83" y="622" type="line"/>
      <point x="154" y="627"/>
      <point x="176" y="600"/>
      <point x="176" y="520" type="curve" smooth="yes"/>
      <point x="176" y="408" type="line" smooth="yes"/>
      <point x="176" y="301.712"/>
      <point x="191.877" y="257.534"/>
      <point x="259" y="228" type="curve"/>
    </contour>
  </outline>
</glyph>
<glyph name="asciitilde" format="1">
  <advance width="414"/>
  <unicode hex="007E"/>
  <outline>
    <contour>
      <point x="124" y="251"/>
      <point x="134" y="261"/>
      <point x="154" y="261" type="curve" smooth="yes"/>
      <point x="185" y="261"/>
      <point x="235" y="224"/>
      <point x="272" y="224" type="curve" smooth="yes"/>
      <point x="306" y="224"/>
      <point x="329" y="242"/>
      <point x="346" y="294" type="curve" smooth="yes"/>
      <point x="347" y="297"/>
      <point x="347" y="303"/>
      <point x="347" y="306" type="curve" smooth="yes"/>
      <point x="347" y="316"/>
      <point x="339" y="324"/>
      <point x="329" y="324" type="curve" smooth="yes"/>
      <point x="320" y="324"/>
      <point x="314" y="317"/>
      <point x="311" y="311" type="curve" smooth="yes"/>
      <point x="300" y="287"/>
      <point x="290" y="277"/>
      <point x="270" y="277" type="curve" smooth="yes"/>
      <point x="239" y="277"/>
      <point x="189" y="314"/>
      <point x="153" y="314" type="curve" smooth="yes"/>
      <point x="118" y="314"/>
      <point x="96" y="296"/>
      <point x="78" y="244" type="curve" smooth="yes"/>
      <point x="77" y="241"/>
      <point x="77" y="235"/>
      <point x="77" y="232" type="curve" smooth="yes"/>
      <point x="77" y="221"/>
      <point x="85" y="214"/>
      <point x="95" y="214" type="curve" smooth="yes"/>
      <point x="105" y="214"/>
      <point x="111" y="221"/>
      <point x="113" y="228" type="curve" smooth="yes"/>
    </contour>
  </outline>
</glyph>
<glyph name="cent" format="1">
  <advance width="523"/>
  <unicode hex="00A2"/>
  <outline>
    <contour>
      <point x="329" y="633"/>
      <point x="319" y="624"/>
      <point x="316" y="613" type="curve" smooth="yes"/>
      <point x="302" y="551" type="line"/>
      <point x="156" y="550"/>
      <point x="56" y="444"/>
      <point x="56" y="311" type="curve" smooth="yes"/>
      <point x="56" y="213"/>
      <point x="114" y="128"/>
      <point x="200" y="95" type="curve"/>
      <point x="183" y="23" type="line"/>
      <point x="182" y="20"/>
      <point x="181" y="16"/>
      <point x="181" y="14" type="curve" smooth="yes"/>
      <point x="181" y="-1"/>
      <point x="194" y="-12"/>
      <point x="208" y="-12" type="curve" smooth="yes"/>
      <point x="221" y="-12"/>
      <point x="230" y="-3"/>
      <point x="233" y="8" type="curve" smooth="yes"/>
      <point x="248" y="77" type="line"/>
      <point x="262" y="74"/>
      <point x="275" y="73"/>
      <point x="290" y="73" type="curve" smooth="yes"/>
      <point x="365" y="73"/>
      <point x="419" y="104"/>
      <point x="463" y="149" type="curve" smooth="yes"/>
      <point x="467" y="153"/>
      <point x="471" y="159"/>
      <point x="471" y="167" type="curve" smooth="yes"/>
      <point x="471" y="180"/>
      <point x="460" y="192"/>
      <point x="446" y="192" type="curve" smooth="yes"/>
      <point x="438" y="192"/>
      <point x="433" y="188"/>
      <point x="428" y="183" type="curve" smooth="yes"/>
      <point x="391" y="147"/>
      <point x="346" y="123"/>
      <point x="293" y="123" type="curve" smooth="yes"/>
      <point x="281" y="123"/>
      <point x="270" y="124"/>
      <point x="259" y="126" type="curve"/>
      <point x="338" y="493" type="line"/>
      <point x="373" y="483"/>
      <point x="401" y="463"/>
      <point x="426" y="439" type="curve" smooth="yes"/>
      <point x="430" y="436"/>
      <point x="435" y="433"/>
      <point x="443" y="433" type="curve" smooth="yes"/>
      <point x="458" y="433"/>
      <point x="468" y="445"/>
      <point x="468" y="459" type="curve" smooth="yes"/>
      <point x="468" y="467"/>
      <point x="465" y="474"/>
      <point x="459" y="481" type="curve" smooth="yes"/>
      <point x="430" y="507"/>
      <point x="398" y="531"/>
      <point x="353" y="542" type="curve"/>
      <point x="366" y="599" type="line" smooth="yes"/>
      <point x="372" y="617"/>
      <point x="360" y="633"/>
      <point x="341" y="633" type="curve" smooth="yes"/>
    </contour>
    <contour>
      <point x="215" y="145" type="line"/>
      <point x="154" y="172"/>
      <point x="111" y="237"/>
      <point x="111" y="313" type="curve" smooth="yes"/>
      <point x="111" y="417"/>
      <point x="185" y="497"/>
      <point x="290" y="500" type="curve"/>
    </contour>
  </outline>
</glyph>
<glyph name="sterling" format="1">
  <advance width="580"/>
  <unicode hex="00A3"/>
  <outline>
    <contour>
      <point x="59" y="7"/>
      <point x="67" y="0"/>
      <point x="76" y="0" type="curve" smooth="yes"/>
      <point x="504" y="0" type="line" smooth="yes"/>
      <point x="518" y="0"/>
      <point x="529" y="11"/>
      <point x="529" y="25" type="curve" smooth="yes"/>
      <point x="529" y="39"/>
      <point x="518" y="50"/>
      <point x="504" y="50" type="curve" smooth="yes"/>
      <point x="195" y="50" type="line"/>
      <point x="195" y="271" type="line"/>
      <point x="436" y="271" type="line" smooth="yes"/>
      <point x="449" y="271"/>
      <point x="461" y="283"/>
      <point x="461" y="296" type="curve" smooth="yes"/>
      <point x="461" y="310"/>
      <point x="449" y="321"/>
      <point x="436" y="321" type="curve" smooth="yes"/>
      <point x="195" y="321" type="line"/>
      <point x="195" y="425" type="line" smooth="yes"/>
      <point x="195" y="480"/>
      <point x="210" y="523"/>
      <point x="239" y="551" type="curve" smooth="yes"/>
      <point x="262" y="575"/>
      <point x="293" y="588"/>
      <point x="335" y="588" type="curve" smooth="yes"/>
      <point x="401" y="588"/>
      <point x="439" y="559"/>
      <point x="473" y="519" type="curve" smooth="yes"/>
      <point x="479" y="515"/>
      <point x="485" y="510"/>
      <point x="495" y="510" type="curve" smooth="yes"/>
      <point x="510" y="510"/>
      <point x="522" y="521"/>
      <point x="522" y="536" type="curve" smooth="yes"/>
      <point x="522" y="545"/>
      <point x="519" y="552"/>
      <point x="515" y="557" type="curve" smooth="yes"/>
      <point x="475" y="603"/>
      <point x="422" y="639"/>
      <point x="335" y="639" type="curve" smooth="yes"/>
      <point x="279" y="639"/>
      <point x="231" y="620"/>
      <point x="198" y="586" type="curve" smooth="yes"/>
      <point x="160" y="549"/>
      <point x="140" y="491"/>
      <point x="140" y="424" type="curve" smooth="yes"/>
      <point x="140" y="321" type="line"/>
      <point x="85" y="321" type="line" smooth="yes"/>
      <point x="71" y="321"/>
      <point x="59" y="310"/>
      <point x="59" y="296" type="curve" smooth="yes"/>
      <point x="59" y="283"/>
      <point x="71" y="271"/>
      <point x="85" y="271" type="curve" smooth="yes"/>
      <point x="140" y="271" type="line"/>
      <point x="140" y="49" type="line"/>
      <point x="73" y="32" type="line" smooth="yes"/>
      <point x="64" y="30"/>
      <point x="59" y="23"/>
      <point x="59" y="16" type="curve" smooth="yes"/>
    </contour>
  </outline>
</glyph>
<glyph name="yen" format="1">
  <advance width="617"/>
  <unicode hex="00A5"/>
  <outline>
    <contour>
      <point x="495" y="628"/>
      <point x="488" y="623"/>
      <point x="482" y="616" type="curve"/>
      <point x="291" y="351" type="line"/>
      <point x="99" y="617" type="line"/>
      <point x="95" y="624"/>
      <point x="86" y="628"/>
      <point x="77" y="628" type="curve" smooth="yes"/>
      <point x="62" y="628"/>
      <point x="50" y="617"/>
      <point x="50" y="601" type="curve" smooth="yes"/>
      <point x="50" y="596"/>
      <point x="52" y="590"/>
      <point x="56" y="584" type="curve"/>
      <point x="238" y="336" type="line"/>
      <point x="126" y="336" type="line" smooth="yes"/>
      <point x="111" y="336"/>
      <point x="99" y="324"/>
      <point x="99" y="309" type="curve" smooth="yes"/>
      <point x="99" y="294"/>
      <point x="111" y="282"/>
      <point x="126" y="282" type="curve" smooth="yes"/>
      <point x="265" y="282" type="line"/>
      <point x="265" y="195" type="line"/>
      <point x="126" y="195" type="line" smooth="yes"/>
      <point x="111" y="195"/>
      <point x="99" y="183"/>
      <point x="99" y="169" type="curve" smooth="yes"/>
      <point x="99" y="153"/>
      <point x="111" y="141"/>
      <point x="126" y="141" type="curve" smooth="yes"/>
      <point x="265" y="141" type="line"/>
      <point x="265" y="26" type="line"/>
      <point x="265" y="12"/>
      <point x="276" y="-1"/>
      <point x="291" y="-1" type="curve" smooth="yes"/>
      <point x="306" y="-1"/>
      <point x="318" y="12"/>
      <point x="318" y="26" type="curve" smooth="yes"/>
      <point x="318" y="141" type="line"/>
      <point x="456" y="141" type="line" smooth="yes"/>
      <point x="472" y="141"/>
      <point x="483" y="153"/>
      <point x="483" y="169" type="curve" smooth="yes"/>
      <point x="483" y="183"/>
      <point x="472" y="195"/>
      <point x="456" y="195" type="curve" smooth="yes"/>
      <point x="318" y="195" type="line"/>
      <point x="318" y="282" type="line"/>
      <point x="456" y="282" type="line" smooth="yes"/>
      <point x="472" y="282"/>
      <point x="483" y="294"/>
      <point x="483" y="309" type="curve" smooth="yes"/>
      <point x="483" y="324"/>
      <point x="472" y="336"/>
      <point x="456" y="336" type="curve" smooth="yes"/>
      <point x="343" y="336" type="line"/>
      <point x="527" y="584" type="line" smooth="yes"/>
      <point x="529" y="589"/>
      <point x="532" y="596"/>
      <point x="532" y="601" type="curve" smooth="yes"/>
      <point x="532" y="618"/>
      <point x="519" y="628"/>
      <point x="504" y="628" type="curve" smooth="yes"/>
    </contour>
  </outline>
</glyph>
<glyph name="dieresis" format="1">
  <advance width="450"/>
  <unicode hex="00A8"/>
  <outline>
    <contour>
      <point x="120" y="550"/>
      <point x="138" y="532"/>
      <point x="161" y="532" type="curve" smooth="yes"/>
      <point x="185" y="532"/>
      <point x="203" y="550"/>
      <point x="203" y="573" type="curve" smooth="yes"/>
      <point x="203" y="597"/>
      <point x="185" y="615"/>
      <point x="161" y="615" type="curve" smooth="yes"/>
      <point x="138" y="615"/>
      <point x="120" y="597"/>
      <point x="120" y="573" type="curve" smooth="yes"/>
    </contour>
    <contour>
      <point x="273" y="550"/>
      <point x="291" y="532"/>
      <point x="314" y="532" type="curve" smooth="yes"/>
      <point x="338" y="532"/>
      <point x="356" y="550"/>
      <point x="356" y="573" type="curve" smooth="yes"/>
      <point x="356" y="597"/>
      <point x="338" y="615"/>
      <point x="314" y="615" type="curve" smooth="yes"/>
      <point x="291" y="615"/>
      <point x="273" y="597"/>
      <point x="273" y="573" type="curve" smooth="yes"/>
    </contour>
  </outline>
</glyph>
<glyph name="copyright" format="1">
  <advance width="747"/>
  <unicode hex="00A9"/>
  <outline>
    <contour>
      <point x="555" y="-11"/>
      <point x="699" y="138"/>
      <point x="699" y="315" type="curve" smooth="yes"/>
      <point x="699" y="317" type="line" smooth="yes"/>
      <point x="699" y="494"/>
      <point x="557" y="641"/>
      <point x="374" y="641" type="curve" smooth="yes"/>
      <point x="192" y="641"/>
      <point x="48" y="492"/>
      <point x="48" y="315" type="curve" smooth="yes"/>
      <point x="48" y="313" type="line" smooth="yes"/>
      <point x="48" y="136"/>
      <point x="190" y="-11"/>
      <point x="373" y="-11" type="curve" smooth="yes"/>
    </contour>
    <contour>
      <point x="203" y="15"/>
      <point x="76" y="149"/>
      <point x="76" y="313" type="curve" smooth="yes"/>
      <point x="76" y="315" type="line" smooth="yes"/>
      <point x="76" y="479"/>
      <point x="204" y="615"/>
      <point x="374" y="615" type="curve" smooth="yes"/>
      <point x="544" y="615"/>
      <point x="671" y="481"/>
      <point x="671" y="317" type="curve" smooth="yes"/>
      <point x="671" y="315" type="line" smooth="yes"/>
      <point x="671" y="151"/>
      <point x="543" y="15"/>
      <point x="373" y="15" type="curve" smooth="yes"/>
    </contour>
    <contour>
      <point x="431" y="149"/>
      <point x="464" y="168"/>
      <point x="498" y="197" type="curve" smooth="yes"/>
      <point x="502" y="200"/>
      <point x="505" y="206"/>
      <point x="505" y="212" type="curve" smooth="yes"/>
      <point x="505" y="223"/>
      <point x="496" y="232"/>
      <point x="485" y="232" type="curve" smooth="yes"/>
      <point x="479" y="232"/>
      <point x="474" y="229"/>
      <point x="472" y="227" type="curve" smooth="yes"/>
      <point x="444" y="203"/>
      <point x="418" y="188"/>
      <point x="378" y="188" type="curve" smooth="yes"/>
      <point x="310" y="188"/>
      <point x="256" y="248"/>
      <point x="256" y="320" type="curve" smooth="yes"/>
      <point x="256" y="321" type="line" smooth="yes"/>
      <point x="256" y="392"/>
      <point x="307" y="452"/>
      <point x="377" y="452" type="curve" smooth="yes"/>
      <point x="414" y="452"/>
      <point x="442" y="435"/>
      <point x="466" y="415" type="curve" smooth="yes"/>
      <point x="471" y="411"/>
      <point x="475" y="409"/>
      <point x="482" y="409" type="curve" smooth="yes"/>
      <point x="493" y="409"/>
      <point x="503" y="418"/>
      <point x="503" y="429" type="curve" smooth="yes"/>
      <point x="503" y="437"/>
      <point x="499" y="444"/>
      <point x="494" y="447" type="curve" smooth="yes"/>
      <point x="465" y="473"/>
      <point x="431" y="491"/>
      <point x="378" y="491" type="curve" smooth="yes"/>
      <point x="284" y="491"/>
      <point x="212" y="413"/>
      <point x="212" y="320" type="curve" smooth="yes"/>
      <point x="212" y="319" type="line" smooth="yes"/>
      <point x="212" y="225"/>
      <point x="283" y="149"/>
      <point x="377" y="149" type="curve" smooth="yes"/>
    </contour>
  </outline>
</glyph>
<glyph name="ordfeminine" format="1">
  <advance width="351"/>
  <unicode hex="00AA"/>
  <outline>
    <contour>
      <point x="293" y="624"/>
      <point x="285" y="617"/>
      <point x="284" y="608" type="curve"/>
      <point x="284" y="573" type="line"/>
      <point x="261" y="604"/>
      <point x="225" y="624"/>
      <point x="185" y="624" type="curve" smooth="yes"/>
      <point x="110" y="624"/>
      <point x="52" y="561"/>
      <point x="52" y="484" type="curve" smooth="yes"/>
      <point x="52" y="409"/>
      <point x="109" y="345"/>
      <point x="185" y="345" type="curve" smooth="yes"/>
      <point x="225" y="345"/>
      <point x="260" y="365"/>
      <point x="284" y="395" type="curve"/>
      <point x="284" y="360" type="line"/>
      <point x="285" y="351"/>
      <point x="292" y="345"/>
      <point x="301" y="345" type="curve" smooth="yes"/>
      <point x="309" y="345"/>
      <point x="317" y="352"/>
      <point x="317" y="360" type="curve"/>
      <point x="317" y="608" type="line"/>
      <point x="317" y="616"/>
      <point x="309" y="624"/>
      <point x="301" y="624" type="curve" smooth="yes"/>
    </contour>
    <contour>
      <point x="95" y="304" type="line" smooth="yes"/>
      <point x="84" y="304"/>
      <point x="75" y="295"/>
      <point x="75" y="284" type="curve" smooth="yes"/>
      <point x="75" y="273"/>
      <point x="84" y="264"/>
      <point x="95" y="264" type="curve"/>
      <point x="293" y="264" type="line" smooth="yes"/>
      <point x="303" y="264"/>
      <point x="312" y="273"/>
      <point x="312" y="284" type="curve" smooth="yes"/>
      <point x="312" y="295"/>
      <point x="303" y="304"/>
      <point x="293" y="304" type="curve" smooth="yes"/>
    </contour>
    <contour>
      <point x="240" y="591"/>
      <point x="284" y="544"/>
      <point x="284" y="484" type="curve" smooth="yes"/>
      <point x="284" y="423"/>
      <point x="240" y="377"/>
      <point x="184" y="377" type="curve" smooth="yes"/>
      <point x="130" y="377"/>
      <point x="85" y="423"/>
      <point x="85" y="484" type="curve" smooth="yes"/>
      <point x="85" y="544"/>
      <point x="130" y="591"/>
      <point x="184" y="591" type="curve" smooth="yes"/>
    </contour>
  </outline>
</glyph>
<glyph name="guillemotleft" format="1">
  <advance width="464"/>
  <unicode hex="00AB"/>
  <outline>
    <contour>
      <point x="404" y="39"/>
      <point x="414" y="49"/>
      <point x="415" y="61" type="curve" smooth="yes"/>
      <point x="415" y="68"/>
      <point x="413" y="73"/>
      <point x="409" y="79" type="curve" smooth="yes"/>
      <point x="298" y="231" type="line"/>
      <point x="409" y="383" type="line" smooth="yes"/>
      <point x="412" y="388"/>
      <point x="415" y="393"/>
      <point x="415" y="400" type="curve" smooth="yes"/>
      <point x="415" y="413"/>
      <point x="404" y="423"/>
      <point x="392" y="423" type="curve" smooth="yes"/>
      <point x="383" y="423"/>
      <point x="376" y="419"/>
      <point x="371" y="411" type="curve" smooth="yes"/>
      <point x="249" y="252" type="line" smooth="yes"/>
      <point x="242" y="244"/>
      <point x="239" y="238"/>
      <point x="239" y="230" type="curve" smooth="yes"/>
      <point x="239" y="223"/>
      <point x="242" y="218"/>
      <point x="249" y="209" type="curve" smooth="yes"/>
      <point x="372" y="50" type="line" smooth="yes"/>
      <point x="376" y="43"/>
      <point x="382" y="39"/>
      <point x="392" y="39" type="curve" smooth="yes"/>
    </contour>
    <contour>
      <point x="214" y="39"/>
      <point x="225" y="49"/>
      <point x="225" y="61" type="curve" smooth="yes"/>
      <point x="225" y="68"/>
      <point x="223" y="74"/>
      <point x="219" y="79" type="curve" smooth="yes"/>
      <point x="108" y="231" type="line"/>
      <point x="219" y="383" type="line" smooth="yes"/>
      <point x="222" y="388"/>
      <point x="225" y="393"/>
      <point x="225" y="400" type="curve" smooth="yes"/>
      <point x="225" y="413"/>
      <point x="214" y="423"/>
      <point x="202" y="423" type="curve" smooth="yes"/>
      <point x="193" y="423"/>
      <point x="186" y="419"/>
      <point x="181" y="411" type="curve" smooth="yes"/>
      <point x="59" y="252" type="line" smooth="yes"/>
      <point x="52" y="244"/>
      <point x="50" y="238"/>
      <point x="50" y="230" type="curve" smooth="yes"/>
      <point x="50" y="223"/>
      <point x="52" y="218"/>
      <point x="59" y="209" type="curve" smooth="yes"/>
      <point x="181" y="50" type="line" smooth="yes"/>
      <point x="186" y="43"/>
      <point x="193" y="39"/>
      <point x="202" y="39" type="curve" smooth="yes"/>
    </contour>
  </outline>
</glyph>
<glyph name="registered" format="1">
  <advance width="374"/>
  <unicode hex="00AE"/>
  <outline>
    <contour>
      <point x="100" y="639"/>
      <point x="31" y="567"/>
      <point x="31" y="482" type="curve"/>
      <point x="31" y="481" type="line"/>
      <point x="31" y="395"/>
      <point x="99" y="324"/>
      <point x="187" y="324" type="curve" smooth="yes"/>
      <point x="275" y="324"/>
      <point x="344" y="396"/>
      <point x="344" y="482" type="curve"/>
      <point x="344" y="482" type="line"/>
      <point x="344" y="568"/>
      <point x="275" y="639"/>
      <point x="187" y="639" type="curve" smooth="yes"/>
    </contour>
    <contour>
      <point x="266" y="622"/>
      <point x="326" y="559"/>
      <point x="326" y="482" type="curve"/>
      <point x="326" y="482" type="line"/>
      <point x="326" y="405"/>
      <point x="266" y="341"/>
      <point x="187" y="341" type="curve" smooth="yes"/>
      <point x="108" y="341"/>
      <point x="49" y="404"/>
      <point x="49" y="481" type="curve"/>
      <point x="49" y="482" type="line"/>
      <point x="49" y="558"/>
      <point x="109" y="622"/>
      <point x="187" y="622" type="curve" smooth="yes"/>
    </contour>
    <contour>
      <point x="139" y="577" type="line"/>
      <point x="133" y="577"/>
      <point x="130" y="572"/>
      <point x="130" y="569" type="curve" smooth="yes"/>
      <point x="130" y="389" type="line" smooth="yes"/>
      <point x="130" y="384"/>
      <point x="133" y="381"/>
      <point x="138" y="381" type="curve" smooth="yes"/>
      <point x="142" y="381"/>
      <point x="147" y="384"/>
      <point x="147" y="389" type="curve" smooth="yes"/>
      <point x="147" y="464" type="line"/>
      <point x="192" y="464" type="line"/>
      <point x="210" y="464"/>
      <point x="230" y="451"/>
      <point x="230" y="425" type="curve" smooth="yes"/>
      <point x="230" y="401"/>
      <point x="235" y="383"/>
      <point x="249" y="383" type="curve" smooth="yes"/>
      <point x="251" y="383"/>
      <point x="253" y="384"/>
      <point x="254" y="384" type="curve"/>
      <point x="257" y="385"/>
      <point x="259" y="390"/>
      <point x="258" y="395" type="curve"/>
      <point x="257" y="398"/>
      <point x="254" y="400"/>
      <point x="250" y="400" type="curve"/>
      <point x="250" y="401"/>
      <point x="248" y="402"/>
      <point x="248" y="406" type="curve" smooth="yes"/>
      <point x="247" y="411"/>
      <point x="245" y="419"/>
      <point x="245" y="429" type="curve" smooth="yes"/>
      <point x="244" y="460"/>
      <point x="226" y="467"/>
      <point x="218" y="470" type="curve"/>
      <point x="236" y="479"/>
      <point x="248" y="499"/>
      <point x="248" y="520" type="curve" smooth="yes"/>
      <point x="248" y="552"/>
      <point x="223" y="577"/>
      <point x="193" y="577" type="curve" smooth="yes"/>
    </contour>
    <contour>
      <point x="215" y="560"/>
      <point x="233" y="542"/>
      <point x="233" y="520" type="curve" smooth="yes"/>
      <point x="233" y="499"/>
      <point x="215" y="480"/>
      <point x="194" y="480" type="curve" smooth="yes"/>
      <point x="147" y="480" type="line"/>
      <point x="147" y="560" type="line"/>
      <point x="193" y="560" type="line" smooth="yes"/>
    </contour>
  </outline>
</glyph>
<glyph name="degree" format="1">
  <advance width="405"/>
  <unicode hex="00B0"/>
  <outline>
    <contour>
      <point x="277" y="366"/>
      <point x="343" y="428"/>
      <point x="343" y="500" type="curve" smooth="yes"/>
      <point x="343" y="502" type="line" smooth="yes"/>
      <point x="343" y="573"/>
      <point x="277" y="635"/>
      <point x="204" y="635" type="curve" smooth="yes"/>
      <point x="132" y="635"/>
      <point x="67" y="573"/>
      <point x="67" y="502" type="curve" smooth="yes"/>
      <point x="67" y="500" type="line" smooth="yes"/>
      <point x="67" y="428"/>
      <point x="132" y="366"/>
      <point x="204" y="366" type="curve" smooth="yes"/>
    </contour>
    <contour>
      <point x="153" y="410"/>
      <point x="114" y="453"/>
      <point x="114" y="500" type="curve" smooth="yes"/>
      <point x="114" y="502" type="line" smooth="yes"/>
      <point x="114" y="549"/>
      <point x="153" y="593"/>
      <point x="204" y="593" type="curve" smooth="yes"/>
      <point x="257" y="593"/>
      <point x="294" y="549"/>
      <point x="294" y="502" type="curve" smooth="yes"/>
      <point x="294" y="500" type="line" smooth="yes"/>
      <point x="294" y="453"/>
      <point x="257" y="410"/>
      <point x="204" y="410" type="curve" smooth="yes"/>
    </contour>
  </outline>
</glyph>
<glyph name="acute" format="1">
  <advance width="450"/>
  <unicode hex="00B4"/>
  <outline>
    <contour>
      <point x="209" y="533"/>
      <point x="217" y="535"/>
      <point x="229" y="546" type="curve" smooth="yes"/>
      <point x="299" y="614" type="line" smooth="yes"/>
      <point x="305" y="619"/>
      <point x="310" y="626"/>
      <point x="310" y="632" type="curve" smooth="yes"/>
      <point x="310" y="642"/>
      <point x="287" y="654"/>
      <point x="268" y="654" type="curve" smooth="yes"/>
      <point x="257" y="654"/>
      <point x="248" y="648"/>
      <point x="240" y="636" type="curve" smooth="yes"/>
      <point x="185" y="554" type="line" smooth="yes"/>
      <point x="183" y="551"/>
      <point x="181" y="546"/>
      <point x="181" y="543" type="curve" smooth="yes"/>
      <point x="181" y="536"/>
      <point x="187" y="533"/>
      <point x="195" y="533" type="curve" smooth="yes"/>
    </contour>
  </outline>
</glyph>
<glyph name="paragraph" format="1">
  <advance width="448"/>
  <unicode hex="00B6"/>
  <outline>
    <contour>
      <point x="279" y="630" type="line" smooth="yes"/>
      <point x="143" y="630"/>
      <point x="46" y="559"/>
      <point x="46" y="441" type="curve" smooth="yes"/>
      <point x="46" y="439" type="line" smooth="yes"/>
      <point x="46" y="318"/>
      <point x="154" y="249"/>
      <point x="293" y="249" type="curve" smooth="yes"/>
      <point x="298" y="249" type="line"/>
      <point x="297" y="24" type="line"/>
      <point x="297" y="9"/>
      <point x="310" y="-3"/>
      <point x="325" y="-3" type="curve" smooth="yes"/>
      <point x="341" y="-3"/>
      <point x="353" y="9"/>
      <point x="353" y="24" type="curve" smooth="yes"/>
      <point x="353" y="602" type="line" smooth="yes"/>
      <point x="353" y="617"/>
      <point x="340" y="630"/>
      <point x="325" y="630" type="curve" smooth="yes"/>
    </contour>
  </outline>
</glyph>
<glyph name="periodcentered" format="1">
  <advance width="209"/>
  <unicode hex="00B7"/>
  <outline>
    <contour>
      <point x="86" y="314"/>
      <point x="71" y="301"/>
      <point x="71" y="281" type="curve"/>
      <point x="71" y="255" type="line" smooth="yes"/>
      <point x="71" y="235"/>
      <point x="86" y="221"/>
      <point x="104" y="221" type="curve" smooth="yes"/>
      <point x="123" y="221"/>
      <point x="138" y="235"/>
      <point x="138" y="255" type="curve" smooth="yes"/>
      <point x="138" y="281" type="line" smooth="yes"/>
      <point x="138" y="301"/>
      <point x="123" y="314"/>
      <point x="104" y="314" type="curve" smooth="yes"/>
    </contour>
  </outline>
</glyph>
<glyph name="cedilla" format="1">
  <advance width="450"/>
  <unicode hex="00B8"/>
  <outline>
    <contour>
      <point x="272" y="9" type="line"/>
      <point x="227" y="9" type="line"/>
      <point x="158" y="-92" type="line" smooth="yes"/>
      <point x="154" y="-98"/>
      <point x="153" y="-102"/>
      <point x="153" y="-106" type="curve" smooth="yes"/>
      <point x="153" y="-117"/>
      <point x="173" y="-131"/>
      <point x="188" y="-131" type="curve" smooth="yes"/>
      <point x="203" y="-131"/>
      <point x="208" y="-122"/>
      <point x="213" y="-111" type="curve" smooth="yes"/>
    </contour>
  </outline>
</glyph>
<glyph name="ordmasculine" format="1">
  <advance width="380"/>
  <unicode hex="00BA"/>
  <outline>
    <contour>
      <point x="101" y="635"/>
      <point x="46" y="573"/>
      <point x="46" y="502" type="curve" smooth="yes"/>
      <point x="46" y="500" type="line" smooth="yes"/>
      <point x="46" y="430"/>
      <point x="100" y="370"/>
      <point x="175" y="370" type="curve" smooth="yes"/>
      <point x="250" y="370"/>
      <point x="305" y="431"/>
      <point x="305" y="502" type="curve" smooth="yes"/>
      <point x="305" y="504" type="line" smooth="yes"/>
      <point x="305" y="574"/>
      <point x="251" y="635"/>
      <point x="176" y="635" type="curve" smooth="yes"/>
    </contour>
    <contour>
      <point x="65" y="304" type="line" smooth="yes"/>
      <point x="54" y="304"/>
      <point x="45" y="295"/>
      <point x="45" y="284" type="curve" smooth="yes"/>
      <point x="45" y="273"/>
      <point x="54" y="264"/>
      <point x="65" y="264" type="curve"/>
      <point x="290" y="264" type="line" smooth="yes"/>
      <point x="301" y="264"/>
      <point x="310" y="273"/>
      <point x="310" y="284" type="curve" smooth="yes"/>
      <point x="310" y="295"/>
      <point x="301" y="304"/>
      <point x="290" y="304" type="curve" smooth="yes"/>
    </contour>
    <contour>
      <point x="225" y="597"/>
      <point x="263" y="554"/>
      <point x="263" y="502" type="curve" smooth="yes"/>
      <point x="263" y="500" type="line" smooth="yes"/>
      <point x="263" y="450"/>
      <point x="228" y="408"/>
      <point x="176" y="408" type="curve" smooth="yes"/>
      <point x="126" y="408"/>
      <point x="87" y="450"/>
      <point x="87" y="502" type="curve" smooth="yes"/>
      <point x="87" y="504" type="line" smooth="yes"/>
      <point x="87" y="554"/>
      <point x="123" y="597"/>
      <point x="175" y="597" type="curve" smooth="yes"/>
    </contour>
  </outline>
</glyph>
<glyph name="guillemotright" format="1">
  <advance width="465"/>
  <unicode hex="00BB"/>
  <outline>
    <contour>
      <point x="83" y="39"/>
      <point x="89" y="43"/>
      <point x="93" y="50" type="curve" smooth="yes"/>
      <point x="216" y="209" type="line" smooth="yes"/>
      <point x="223" y="218"/>
      <point x="226" y="223"/>
      <point x="226" y="230" type="curve" smooth="yes"/>
      <point x="226" y="238"/>
      <point x="223" y="244"/>
      <point x="216" y="252" type="curve" smooth="yes"/>
      <point x="94" y="411" type="line" smooth="yes"/>
      <point x="89" y="419"/>
      <point x="82" y="423"/>
      <point x="73" y="423" type="curve" smooth="yes"/>
      <point x="61" y="423"/>
      <point x="50" y="413"/>
      <point x="50" y="400" type="curve" smooth="yes"/>
      <point x="50" y="393"/>
      <point x="53" y="388"/>
      <point x="56" y="383" type="curve" smooth="yes"/>
      <point x="167" y="231" type="line"/>
      <point x="56" y="79" type="line" smooth="yes"/>
      <point x="52" y="73"/>
      <point x="50" y="68"/>
      <point x="50" y="61" type="curve" smooth="yes"/>
      <point x="51" y="49"/>
      <point x="61" y="39"/>
      <point x="73" y="39" type="curve" smooth="yes"/>
    </contour>
    <contour>
      <point x="272" y="39"/>
      <point x="279" y="43"/>
      <point x="284" y="50" type="curve" smooth="yes"/>
      <point x="406" y="209" type="line" smooth="yes"/>
      <point x="413" y="218"/>
      <point x="415" y="223"/>
      <point x="415" y="230" type="curve" smooth="yes"/>
      <point x="415" y="238"/>
      <point x="413" y="244"/>
      <point x="406" y="252" type="curve" smooth="yes"/>
      <point x="284" y="411" type="line" smooth="yes"/>
      <point x="279" y="419"/>
      <point x="272" y="423"/>
      <point x="263" y="423" type="curve" smooth="yes"/>
      <point x="251" y="423"/>
      <point x="240" y="413"/>
      <point x="240" y="400" type="curve" smooth="yes"/>
      <point x="240" y="393"/>
      <point x="243" y="388"/>
      <point x="246" y="383" type="curve" smooth="yes"/>
      <point x="357" y="231" type="line"/>
      <point x="246" y="79" type="line" smooth="yes"/>
      <point x="242" y="74"/>
      <point x="240" y="68"/>
      <point x="240" y="61" type="curve" smooth="yes"/>
      <point x="240" y="49"/>
      <point x="251" y="39"/>
      <point x="263" y="39" type="curve" smooth="yes"/>
    </contour>
  </outline>
</glyph>
<glyph name="questiondown" format="1">
  <advance width="481"/>
  <unicode hex="00BF"/>
  <outline>
    <contour>
      <point x="208" y="500"/>
      <point x="196" y="490"/>
      <point x="196" y="476" type="curve"/>
      <point x="197" y="364" type="line"/>
      <point x="196" y="349"/>
      <point x="208" y="338"/>
      <point x="221" y="338" type="curve" smooth="yes"/>
      <point x="302" y="338"/>
      <point x="365" y="274"/>
      <point x="365" y="194" type="curve" smooth="yes"/>
      <point x="365" y="113"/>
      <point x="302" y="50"/>
      <point x="221" y="50" type="curve" smooth="yes"/>
      <point x="167" y="50"/>
      <point x="121" y="77"/>
      <point x="96" y="122" type="curve" smooth="yes"/>
      <point x="90" y="132"/>
      <point x="74" y="138"/>
      <point x="62" y="131" type="curve" smooth="yes"/>
      <point x="50" y="123"/>
      <point x="47" y="108"/>
      <point x="54" y="96" type="curve" smooth="yes"/>
      <point x="87" y="39"/>
      <point x="149" y="0"/>
      <point x="221" y="0" type="curve" smooth="yes"/>
      <point x="328" y="0"/>
      <point x="415" y="87"/>
      <point x="415" y="194" type="curve" smooth="yes"/>
      <point x="415" y="292"/>
      <point x="341" y="374"/>
      <point x="246" y="385" type="curve"/>
      <point x="246" y="476" type="line" smooth="yes"/>
      <point x="246" y="490"/>
      <point x="235" y="500"/>
      <point x="221" y="500" type="curve" smooth="yes"/>
    </contour>
    <contour>
      <point x="208" y="630"/>
      <point x="196" y="619"/>
      <point x="196" y="606" type="curve"/>
      <point x="196" y="587" type="line" smooth="yes"/>
      <point x="196" y="573"/>
      <point x="208" y="562"/>
      <point x="221" y="562" type="curve" smooth="yes"/>
      <point x="234" y="562"/>
      <point x="246" y="573"/>
      <point x="246" y="587" type="curve" smooth="yes"/>
      <point x="246" y="606" type="line" smooth="yes"/>
      <point x="246" y="619"/>
      <point x="234" y="630"/>
      <point x="221" y="630" type="curve" smooth="yes"/>
    </contour>
  </outline>
</glyph>
<glyph name="Aring" format="1">
  <advance width="581"/>
  <unicode hex="00C5"/>
  <outline>
    <contour>
      <point x="242" y="725"/>
      <point x="201" y="687"/>
      <point x="201" y="641" type="curve"/>
      <point x="201" y="640" type="line"/>
      <point x="201" y="611"/>
      <point x="220" y="583"/>
      <point x="244" y="569" type="curve"/>
      <point x="44" y="35" type="line"/>
      <point x="39" y="23"/>
      <point x="46" y="6"/>
      <point x="59" y="1" type="curve"/>
      <point x="62" y="1"/>
      <point x="66" y="0"/>
      <point x="68" y="0" type="curve" smooth="yes"/>
      <point x="79" y="0"/>
      <point x="89" y="6"/>
      <point x="93" y="17" type="curve"/>
      <point x="148" y="161" type="line"/>
      <point x="424" y="161" type="line"/>
      <point x="478" y="17" type="line"/>
      <point x="482" y="6"/>
      <point x="492" y="0"/>
      <point x="502" y="0" type="curve" smooth="yes"/>
      <point x="506" y="0"/>
      <point x="509" y="1"/>
      <point x="512" y="1" type="curve"/>
      <point x="525" y="6"/>
      <point x="532" y="23"/>
      <point x="527" y="35" type="curve"/>
      <point x="327" y="567" type="line"/>
      <point x="355" y="581"/>
      <point x="374" y="609"/>
      <point x="374" y="640" type="curve"/>
      <point x="374" y="641" type="line"/>
      <point x="374" y="687"/>
      <point x="333" y="725"/>
      <point x="286" y="725" type="curve" smooth="yes"/>
    </contour>
    <contour>
      <point x="405" y="213" type="line"/>
      <point x="167" y="213" type="line"/>
      <point x="286" y="530" type="line"/>
    </contour>
    <contour>
      <point x="312" y="685"/>
      <point x="330" y="663"/>
      <point x="330" y="641" type="curve"/>
      <point x="330" y="640" type="line"/>
      <point x="330" y="615"/>
      <point x="310" y="599"/>
      <point x="286" y="599" type="curve" smooth="yes"/>
      <point x="264" y="599"/>
      <point x="245" y="616"/>
      <point x="245" y="640" type="curve"/>
      <point x="245" y="641" type="line"/>
      <point x="245" y="663"/>
      <point x="264" y="685"/>
      <point x="286" y="685" type="curve" smooth="yes"/>
    </contour>
  </outline>
</glyph>
<glyph name="AE" format="1">
  <advance width="941"/>
  <unicode hex="00C6"/>
  <outline>
    <contour>
      <point x="32" y="7"/>
      <point x="43" y="-5"/>
      <point x="58" y="-5" type="curve" smooth="yes"/>
      <point x="68" y="-5"/>
      <point x="76" y="1"/>
      <point x="81" y="10" type="curve" smooth="yes"/>
      <point x="179" y="173" type="line"/>
      <point x="444" y="173" type="line"/>
      <point x="444" y="28" type="line" smooth="yes"/>
      <point x="444" y="13"/>
      <point x="456" y="0"/>
      <point x="473" y="0" type="curve" smooth="yes"/>
      <point x="863" y="0" type="line" smooth="yes"/>
      <point x="877" y="0"/>
      <point x="888" y="12"/>
      <point x="888" y="26" type="curve" smooth="yes"/>
      <point x="888" y="40"/>
      <point x="877" y="51"/>
      <point x="863" y="51" type="curve" smooth="yes"/>
      <point x="500" y="51" type="line"/>
      <point x="500" y="292" type="line"/>
      <point x="818" y="292" type="line" smooth="yes"/>
      <point x="832" y="292"/>
      <point x="843" y="303"/>
      <point x="843" y="318" type="curve" smooth="yes"/>
      <point x="843" y="332"/>
      <point x="832" y="344"/>
      <point x="818" y="344" type="curve" smooth="yes"/>
      <point x="500" y="344" type="line"/>
      <point x="500" y="579" type="line"/>
      <point x="859" y="579" type="line" smooth="yes"/>
      <point x="872" y="579"/>
      <point x="884" y="590"/>
      <point x="884" y="604" type="curve" smooth="yes"/>
      <point x="884" y="618"/>
      <point x="872" y="630"/>
      <point x="859" y="630" type="curve" smooth="yes"/>
      <point x="413" y="630" type="line" smooth="yes"/>
      <point x="399" y="630"/>
      <point x="391" y="624"/>
      <point x="383" y="612" type="curve" smooth="yes"/>
      <point x="37" y="36" type="line" smooth="yes"/>
      <point x="33" y="31"/>
      <point x="32" y="25"/>
      <point x="32" y="21" type="curve" smooth="yes"/>
    </contour>
    <contour>
      <point x="209" y="223" type="line"/>
      <point x="421" y="580" type="line"/>
      <point x="444" y="580" type="line"/>
      <point x="444" y="223" type="line"/>
    </contour>
  </outline>
</glyph>
<glyph name="Eth" format="1">
  <advance width="731"/>
  <unicode hex="00D0"/>
  <outline>
    <contour>
      <point x="167" y="630" type="line" smooth="yes"/>
      <point x="153" y="630"/>
      <point x="141" y="618"/>
      <point x="141" y="604" type="curve" smooth="yes"/>
      <point x="141" y="338" type="line"/>
      <point x="72" y="338" type="line" smooth="yes"/>
      <point x="59" y="338"/>
      <point x="50" y="329"/>
      <point x="50" y="315" type="curve" smooth="yes"/>
      <point x="50" y="302"/>
      <point x="59" y="292"/>
      <point x="72" y="292" type="curve"/>
      <point x="141" y="292" type="line"/>
      <point x="141" y="26" type="line" smooth="yes"/>
      <point x="141" y="12"/>
      <point x="152" y="1"/>
      <point x="166" y="0" type="curve"/>
      <point x="284" y="0" type="line" smooth="yes"/>
      <point x="457" y="0"/>
      <point x="599" y="140"/>
      <point x="599" y="314" type="curve" smooth="yes"/>
      <point x="599" y="488"/>
      <point x="457" y="630"/>
      <point x="284" y="630" type="curve" smooth="yes"/>
    </contour>
    <contour>
      <point x="428" y="577"/>
      <point x="545" y="460"/>
      <point x="545" y="314" type="curve" smooth="yes"/>
      <point x="545" y="169"/>
      <point x="428" y="52"/>
      <point x="283" y="52" type="curve"/>
      <point x="194" y="52" type="line"/>
      <point x="194" y="292" type="line"/>
      <point x="260" y="292" type="line" smooth="yes"/>
      <point x="272" y="292"/>
      <point x="283" y="302"/>
      <point x="283" y="315" type="curve" smooth="yes"/>
      <point x="283" y="329"/>
      <point x="272" y="338"/>
      <point x="260" y="338" type="curve" smooth="yes"/>
      <point x="194" y="338" type="line"/>
      <point x="194" y="578" type="line"/>
      <point x="283" y="578" type="line" smooth="yes"/>
    </contour>
  </outline>
</glyph>
<glyph name="multiply" format="1">
  <advance width="558"/>
  <unicode hex="00D7"/>
  <outline>
    <contour>
      <point x="463" y="463" type="line"/>
      <point x="468" y="468"/>
      <point x="471" y="474"/>
      <point x="471" y="482" type="curve" smooth="yes"/>
      <point x="471" y="496"/>
      <point x="460" y="508"/>
      <point x="446" y="508" type="curve" smooth="yes"/>
      <point x="438" y="508"/>
      <point x="432" y="504"/>
      <point x="427" y="499" type="curve" smooth="yes"/>
      <point x="282" y="352" type="line"/>
      <point x="137" y="498" type="line" smooth="yes"/>
      <point x="132" y="503"/>
      <point x="125" y="508"/>
      <point x="116" y="508" type="curve" smooth="yes"/>
      <point x="102" y="508"/>
      <point x="90" y="496"/>
      <point x="90" y="481" type="curve" smooth="yes"/>
      <point x="90" y="473"/>
      <point x="94" y="465"/>
      <point x="99" y="460" type="curve" smooth="yes"/>
      <point x="246" y="316" type="line"/>
      <point x="99" y="171" type="line" smooth="yes"/>
      <point x="94" y="166"/>
      <point x="90" y="159"/>
      <point x="90" y="152" type="curve" smooth="yes"/>
      <point x="90" y="138"/>
      <point x="102" y="126"/>
      <point x="115" y="126" type="curve" smooth="yes"/>
      <point x="123" y="126"/>
      <point x="130" y="130"/>
      <point x="134" y="135" type="curve" smooth="yes"/>
      <point x="280" y="282" type="line"/>
      <point x="424" y="135" type="line" smooth="yes"/>
      <point x="429" y="131"/>
      <point x="437" y="126"/>
      <point x="445" y="126" type="curve" smooth="yes"/>
      <point x="459" y="126"/>
      <point x="471" y="138"/>
      <point x="471" y="153" type="curve" smooth="yes"/>
      <point x="471" y="161"/>
      <point x="467" y="168"/>
      <point x="462" y="174" type="curve" smooth="yes"/>
      <point x="316" y="318" type="line"/>
    </contour>
  </outline>
</glyph>
<glyph name="Oslash" format="1">
  <advance width="765"/>
  <unicode hex="00D8"/>
  <outline>
    <contour>
      <point x="575" y="-11"/>
      <point x="703" y="142"/>
      <point x="703" y="315" type="curve" smooth="yes"/>
      <point x="703" y="317" type="line" smooth="yes"/>
      <point x="703" y="400"/>
      <point x="674" y="478"/>
      <point x="622" y="536" type="curve"/>
      <point x="680" y="599" type="line" smooth="yes"/>
      <point x="685" y="604"/>
      <point x="688" y="610"/>
      <point x="688" y="617" type="curve" smooth="yes"/>
      <point x="688" y="629"/>
      <point x="679" y="638"/>
      <point x="666" y="638" type="curve" smooth="yes"/>
      <point x="659" y="638"/>
      <point x="653" y="635"/>
      <point x="647" y="630" type="curve" smooth="yes"/>
      <point x="590" y="568" type="line"/>
      <point x="536" y="613"/>
      <point x="466" y="641"/>
      <point x="385" y="641" type="curve" smooth="yes"/>
      <point x="194" y="641"/>
      <point x="66" y="488"/>
      <point x="66" y="315" type="curve" smooth="yes"/>
      <point x="66" y="313" type="line" smooth="yes"/>
      <point x="66" y="230"/>
      <point x="95" y="152"/>
      <point x="147" y="93" type="curve"/>
      <point x="88" y="31" type="line" smooth="yes"/>
      <point x="84" y="26"/>
      <point x="81" y="20"/>
      <point x="81" y="14" type="curve" smooth="yes"/>
      <point x="81" y="1"/>
      <point x="90" y="-8"/>
      <point x="103" y="-8" type="curve" smooth="yes"/>
      <point x="111" y="-8"/>
      <point x="117" y="-5"/>
      <point x="122" y="0" type="curve" smooth="yes"/>
      <point x="180" y="61" type="line"/>
      <point x="233" y="16"/>
      <point x="302" y="-11"/>
      <point x="383" y="-11" type="curve" smooth="yes"/>
    </contour>
    <contour>
      <point x="124" y="317" type="line" smooth="yes"/>
      <point x="124" y="468"/>
      <point x="232" y="590"/>
      <point x="383" y="590" type="curve" smooth="yes"/>
      <point x="450" y="590"/>
      <point x="508" y="565"/>
      <point x="552" y="527" type="curve"/>
      <point x="186" y="135" type="line"/>
      <point x="147" y="184"/>
      <point x="124" y="246"/>
      <point x="124" y="315" type="curve"/>
    </contour>
    <contour>
      <point x="320" y="41"/>
      <point x="261" y="64"/>
      <point x="216" y="104" type="curve"/>
      <point x="582" y="494" type="line"/>
      <point x="621" y="446"/>
      <point x="644" y="383"/>
      <point x="644" y="315" type="curve" smooth="yes"/>
      <point x="644" y="313" type="line" smooth="yes"/>
      <point x="644" y="162"/>
      <point x="536" y="41"/>
      <point x="385" y="41" type="curve" smooth="yes"/>
    </contour>
  </outline>
</glyph>
<glyph name="Thorn" format="1">
  <advance width="596"/>
  <unicode hex="00DE"/>
  <outline>
    <contour>
      <point x="101" y="634"/>
      <point x="88" y="621"/>
      <point x="88" y="607" type="curve" smooth="yes"/>
      <point x="88" y="24" type="line"/>
      <point x="88" y="10"/>
      <point x="101" y="-3"/>
      <point x="115" y="-3" type="curve" smooth="yes"/>
      <point x="131" y="-3"/>
      <point x="143" y="10"/>
      <point x="143" y="24" type="curve" smooth="yes"/>
      <point x="143" y="122" type="line"/>
      <point x="312" y="122" type="line" smooth="yes"/>
      <point x="440" y="122"/>
      <point x="550" y="194"/>
      <point x="550" y="324" type="curve" smooth="yes"/>
      <point x="550" y="443"/>
      <point x="456" y="517"/>
      <point x="322" y="517" type="curve" smooth="yes"/>
      <point x="143" y="517" type="line"/>
      <point x="143" y="607" type="line" smooth="yes"/>
      <point x="143" y="621"/>
      <point x="131" y="634"/>
      <point x="116" y="634" type="curve" smooth="yes"/>
    </contour>
    <contour>
      <point x="424" y="464"/>
      <point x="495" y="414"/>
      <point x="496" y="320" type="curve" smooth="yes"/>
      <point x="495" y="233"/>
      <point x="422" y="174"/>
      <point x="315" y="174" type="curve" smooth="yes"/>
      <point x="143" y="174" type="line"/>
      <point x="143" y="464" type="line"/>
      <point x="320" y="464" type="line" smooth="yes"/>
    </contour>
  </outline>
</glyph>
<glyph name="germandbls" format="1">
  <advance width="558"/>
  <unicode hex="00DF"/>
  <outline>
    <contour>
      <point x="259" y="9"/>
      <point x="270" y="-2"/>
      <point x="284" y="-2" type="curve" smooth="yes"/>
      <point x="409" y="2"/>
      <point x="506" y="59"/>
      <point x="506" y="171" type="curve" smooth="yes"/>
      <point x="506" y="173" type="line" smooth="yes"/>
      <point x="506" y="268"/>
      <point x="421" y="317"/>
      <point x="330" y="334" type="curve"/>
      <point x="398" y="360"/>
      <point x="465" y="415"/>
      <point x="465" y="502" type="curve" smooth="yes"/>
      <point x="465" y="504" type="line" smooth="yes"/>
      <point x="465" y="593"/>
      <point x="394" y="663"/>
      <point x="284" y="663" type="curve" smooth="yes"/>
      <point x="161" y="663"/>
      <point x="84" y="576"/>
      <point x="84" y="450" type="curve" smooth="yes"/>
      <point x="84" y="23" type="line" smooth="yes"/>
      <point x="84" y="7"/>
      <point x="95" y="-4"/>
      <point x="110" y="-4" type="curve" smooth="yes"/>
      <point x="125" y="-4"/>
      <point x="138" y="7"/>
      <point x="138" y="23" type="curve" smooth="yes"/>
      <point x="138" y="451" type="line" smooth="yes"/>
      <point x="138" y="551"/>
      <point x="198" y="614"/>
      <point x="281" y="614" type="curve" smooth="yes"/>
      <point x="356" y="614"/>
      <point x="409" y="567"/>
      <point x="409" y="501" type="curve" smooth="yes"/>
      <point x="409" y="500" type="line" smooth="yes"/>
      <point x="409" y="424"/>
      <point x="351" y="379"/>
      <point x="278" y="352" type="curve" smooth="yes"/>
      <point x="268" y="347"/>
      <point x="259" y="339"/>
      <point x="259" y="327" type="curve" smooth="yes"/>
      <point x="259" y="311"/>
      <point x="270" y="303"/>
      <point x="284" y="301" type="curve" smooth="yes"/>
      <point x="375" y="288"/>
      <point x="448" y="249"/>
      <point x="448" y="172" type="curve" smooth="yes"/>
      <point x="448" y="170" type="line" smooth="yes"/>
      <point x="448" y="89"/>
      <point x="378" y="51"/>
      <point x="282" y="45" type="curve" smooth="yes"/>
      <point x="270" y="43"/>
      <point x="259" y="34"/>
      <point x="259" y="22" type="curve" smooth="yes"/>
    </contour>
  </outline>
</glyph>
<glyph name="aring" format="1">
  <advance width="517"/>
  <unicode hex="00E5"/>
  <outline>
    <contour>
      <point x="212" y="673"/>
      <point x="170" y="635"/>
      <point x="170" y="590" type="curve" smooth="yes"/>
      <point x="170" y="589" type="line" smooth="yes"/>
      <point x="170" y="545"/>
      <point x="212" y="506"/>
      <point x="256" y="506" type="curve" smooth="yes"/>
      <point x="302" y="506"/>
      <point x="343" y="545"/>
      <point x="343" y="589" type="curve" smooth="yes"/>
      <point x="343" y="590" type="line" smooth="yes"/>
      <point x="343" y="635"/>
      <point x="302" y="673"/>
      <point x="256" y="673" type="curve" smooth="yes"/>
    </contour>
    <contour>
      <point x="282" y="634"/>
      <point x="300" y="612"/>
      <point x="300" y="590" type="curve" smooth="yes"/>
      <point x="300" y="589" type="line" smooth="yes"/>
      <point x="300" y="567"/>
      <point x="282" y="547"/>
      <point x="256" y="547" type="curve" smooth="yes"/>
      <point x="233" y="547"/>
      <point x="214" y="567"/>
      <point x="214" y="589" type="curve" smooth="yes"/>
      <point x="214" y="590" type="line" smooth="yes"/>
      <point x="214" y="612"/>
      <point x="233" y="634"/>
      <point x="256" y="634" type="curve" smooth="yes"/>
    </contour>
    <component base="a" xOffset="10"/>
  </outline>
</glyph>
<glyph name="ae" format="1">
  <advance width="859"/>
  <unicode hex="00E6"/>
  <outline>
    <contour>
      <point x="568" y="446"/>
      <point x="505" y="409"/>
      <point x="466" y="355" type="curve"/>
      <point x="466" y="418" type="line"/>
      <point x="466" y="433"/>
      <point x="455" y="444"/>
      <point x="441" y="444" type="curve" smooth="yes"/>
      <point x="428" y="444"/>
      <point x="417" y="434"/>
      <point x="416" y="420" type="curve"/>
      <point x="415" y="365" type="line"/>
      <point x="378" y="412"/>
      <point x="320" y="444"/>
      <point x="257" y="444" type="curve" smooth="yes"/>
      <point x="140" y="444"/>
      <point x="46" y="344"/>
      <point x="46" y="221" type="curve" smooth="yes"/>
      <point x="46" y="101"/>
      <point x="139" y="0"/>
      <point x="257" y="0" type="curve" smooth="yes"/>
      <point x="320" y="0"/>
      <point x="378" y="32"/>
      <point x="415" y="80" type="curve"/>
      <point x="416" y="23" type="line"/>
      <point x="417" y="10"/>
      <point x="428" y="0"/>
      <point x="441" y="0" type="curve" smooth="yes"/>
      <point x="455" y="0"/>
      <point x="466" y="12"/>
      <point x="466" y="26" type="curve"/>
      <point x="466" y="91" type="line"/>
      <point x="505" y="36"/>
      <point x="568" y="0"/>
      <point x="640" y="0" type="curve" smooth="yes"/>
      <point x="714" y="0"/>
      <point x="778" y="37"/>
      <point x="817" y="95" type="curve" smooth="yes"/>
      <point x="825" y="106"/>
      <point x="821" y="121"/>
      <point x="811" y="129" type="curve"/>
      <point x="801" y="136"/>
      <point x="783" y="135"/>
      <point x="775" y="122" type="curve" smooth="yes"/>
      <point x="746" y="78"/>
      <point x="696" y="50"/>
      <point x="640" y="51" type="curve" smooth="yes"/>
      <point x="553" y="51"/>
      <point x="482" y="120"/>
      <point x="476" y="210" type="curve"/>
      <point x="829" y="210" type="line"/>
      <point x="844" y="210"/>
      <point x="854" y="219"/>
      <point x="854" y="239" type="curve"/>
      <point x="846" y="355"/>
      <point x="754" y="446"/>
      <point x="640" y="446" type="curve" smooth="yes"/>
    </contour>
    <contour>
      <point x="344" y="393"/>
      <point x="415" y="317"/>
      <point x="415" y="221" type="curve" smooth="yes"/>
      <point x="415" y="127"/>
      <point x="344" y="51"/>
      <point x="257" y="51" type="curve" smooth="yes"/>
      <point x="169" y="51"/>
      <point x="97" y="126"/>
      <point x="97" y="221" type="curve" smooth="yes"/>
      <point x="97" y="317"/>
      <point x="169" y="393"/>
      <point x="257" y="393" type="curve" smooth="yes"/>
    </contour>
    <contour>
      <point x="721" y="394"/>
      <point x="787" y="334"/>
      <point x="801" y="259" type="curve"/>
      <point x="477" y="259" type="line"/>
      <point x="492" y="336"/>
      <point x="556" y="395"/>
      <point x="640" y="395" type="curve" smooth="yes"/>
    </contour>
  </outline>
</glyph>
<glyph name="igrave" format="1">
  <advance width="253"/>
  <unicode hex="00EC"/>
  <outline>
    <contour>
      <point x="92" y="442"/>
      <point x="80" y="431"/>
      <point x="80" y="417" type="curve"/>
      <point x="80" y="26" type="line"/>
      <point x="80" y="12"/>
      <point x="92" y="0"/>
      <point x="106" y="0" type="curve"/>
      <point x="121" y="0"/>
      <point x="132" y="12"/>
      <point x="132" y="26" type="curve"/>
      <point x="132" y="417" type="line"/>
      <point x="132" y="431"/>
      <point x="121" y="442"/>
      <point x="106" y="442" type="curve"/>
    </contour>
    <component base="grave" xOffset="-102" yOffset="-20"/>
  </outline>
</glyph>
<glyph name="iacute" format="1">
  <advance width="253"/>
  <unicode hex="00ED"/>
  <outline>
    <contour>
      <point x="90" y="442"/>
      <point x="78" y="431"/>
      <point x="78" y="417" type="curve"/>
      <point x="78" y="26" type="line"/>
      <point x="78" y="12"/>
      <point x="90" y="0"/>
      <point x="104" y="0" type="curve"/>
      <point x="119" y="0"/>
      <point x="131" y="12"/>
      <point x="131" y="26" type="curve"/>
      <point x="131" y="417" type="line"/>
      <point x="131" y="431"/>
      <point x="119" y="442"/>
      <point x="104" y="442" type="curve"/>
    </contour>
    <component base="acute" xOffset="-125" yOffset="-20"/>
  </outline>
</glyph>
<glyph name="icircumflex" format="1">
  <advance width="253"/>
  <unicode hex="00EE"/>
  <outline>
    <contour>
      <point x="98" y="442"/>
      <point x="86" y="431"/>
      <point x="86" y="417" type="curve"/>
      <point x="86" y="26" type="line"/>
      <point x="86" y="12"/>
      <point x="98" y="0"/>
      <point x="113" y="0" type="curve"/>
      <point x="127" y="0"/>
      <point x="139" y="12"/>
      <point x="139" y="26" type="curve"/>
      <point x="139" y="417" type="line"/>
      <point x="139" y="431"/>
      <point x="127" y="442"/>
      <point x="113" y="442" type="curve"/>
    </contour>
    <component base="circumflex" xOffset="-119" yOffset="-20"/>
  </outline>
</glyph>
<glyph name="idieresis" format="1">
  <advance width="253"/>
  <unicode hex="00EF"/>
  <outline>
    <contour>
      <point x="98" y="442"/>
      <point x="86" y="431"/>
      <point x="86" y="417" type="curve"/>
      <point x="86" y="26" type="line"/>
      <point x="86" y="12"/>
      <point x="98" y="0"/>
      <point x="113" y="0" type="curve"/>
      <point x="127" y="0"/>
      <point x="139" y="12"/>
      <point x="139" y="26" type="curve"/>
      <point x="139" y="417" type="line"/>
      <point x="139" y="431"/>
      <point x="127" y="442"/>
      <point x="113" y="442" type="curve"/>
    </contour>
    <component base="dieresis" xOffset="-125" yOffset="-19"/>
  </outline>
</glyph>
<glyph name="eth" format="1">
  <advance width="565"/>
  <unicode hex="00F0"/>
  <outline>
    <contour>
      <point x="261" y="662"/>
      <point x="250" y="650"/>
      <point x="250" y="635" type="curve" smooth="yes"/>
      <point x="250" y="627"/>
      <point x="254" y="619"/>
      <point x="259" y="614" type="curve" smooth="yes"/>
      <point x="275" y="599" type="line"/>
      <point x="167" y="548" type="line" smooth="yes"/>
      <point x="159" y="545"/>
      <point x="153" y="538"/>
      <point x="153" y="528" type="curve" smooth="yes"/>
      <point x="153" y="517"/>
      <point x="163" y="506"/>
      <point x="176" y="506" type="curve" smooth="yes"/>
      <point x="178" y="506"/>
      <point x="183" y="507"/>
      <point x="187" y="509" type="curve" smooth="yes"/>
      <point x="295" y="563" type="line"/>
      <point x="421" y="383" type="line"/>
      <point x="382" y="413"/>
      <point x="337" y="437"/>
      <point x="267" y="437" type="curve" smooth="yes"/>
      <point x="153" y="437"/>
      <point x="52" y="350"/>
      <point x="52" y="221" type="curve" smooth="yes"/>
      <point x="52" y="95"/>
      <point x="149" y="-11"/>
      <point x="281" y="-11" type="curve" smooth="yes"/>
      <point x="424" y="-11"/>
      <point x="516" y="99"/>
      <point x="516" y="225" type="curve" smooth="yes"/>
      <point x="516" y="311"/>
      <point x="486" y="373"/>
      <point x="437" y="445" type="curve" smooth="yes"/>
      <point x="343" y="585" type="line"/>
      <point x="405" y="615" type="line" smooth="yes"/>
      <point x="413" y="619"/>
      <point x="419" y="625"/>
      <point x="419" y="635" type="curve" smooth="yes"/>
      <point x="419" y="647"/>
      <point x="409" y="658"/>
      <point x="397" y="658" type="curve" smooth="yes"/>
      <point x="394" y="658"/>
      <point x="390" y="657"/>
      <point x="385" y="655" type="curve" smooth="yes"/>
      <point x="318" y="621" type="line"/>
      <point x="301" y="648" type="line" smooth="yes"/>
      <point x="295" y="655"/>
      <point x="288" y="662"/>
      <point x="276" y="662" type="curve" smooth="yes"/>
    </contour>
    <contour>
      <point x="381" y="392"/>
      <point x="460" y="314"/>
      <point x="460" y="220" type="curve" smooth="yes"/>
      <point x="460" y="122"/>
      <point x="390" y="39"/>
      <point x="285" y="39" type="curve" smooth="yes"/>
      <point x="183" y="39"/>
      <point x="109" y="124"/>
      <point x="109" y="218" type="curve" smooth="yes"/>
      <point x="109" y="316"/>
      <point x="174" y="392"/>
      <point x="277" y="392" type="curve" smooth="yes"/>
    </contour>
  </outline>
</glyph>
